{
.appVersion = "1356";
copyright = "Copyright © 2019 by ANRT 2019. All rights reserved.";
customParameters = (
{
name = glyphOrder;
value = (
.notdef,
emspace,
enspace,
threeperemspace,
fourperemspace,
space,
thinspace,
hairspace,
A,
AE,
B,
C,
D,
E,
F,
G,
H,
I,
J,
K,
L,
M,
N,
O,
OE,
P,
Q,
R,
S,
T,
U,
Udieresis,
V,
W,
X,
Y,
Z,
a,
adieresis,
a_e,
a_grave,
b,
c,
c_cedilla,
c_h,
c_k,
d,
e,
e_acute,
f,
f_f,
f_f_l,
f_i,
f_l,
g,
h,
i,
j,
k,
l,
m,
n,
o,
odieresis,
o_e,
p,
q,
r,
s,
longs,
germandbls,
germandbls.ss01,
t,
t_h,
t_z,
u,
udieresis,
u_grave,
v,
w,
x,
y,
y_dieresis,
z,
z.ss01,
zero,
one,
two,
three,
four,
five,
six,
seven,
eight,
nine,
ampersand,
period,
comma,
colon,
semicolon,
exclam,
question,
hyphen,
ellipsis,
periodcentered,
bracketleft,
bracketright,
parenleft,
parenright,
dieresis,
quotedblleft,
quotedblright,
quoteleft,
quoteright,
quotesinglbase,
quotedblbase,
quotesingle,
"_corner-bdc-court",
"_corner-bdc-long",
treppe,
mond,
kopf,
koenigspaar,
cranach_1,
cranach_2,
soldat,
eins_mensch,
maske,
mann,
Totenkopf2
);
},
{
name = "Use Typo Metrics";
value = 1;
},
{
name = vendorID;
value = ANRT;
},
{
name = unicodeRanges;
value = (
0
);
},
{
name = codePageRanges;
value = (
1252
);
},
{
name = openTypeOS2Type;
value = (
2
);
},
{
name = fsType;
value = (
2
);
},
{
name = description;

glyphs = (
{
color = 3;
glyphname = A;
lastChange = "2020-01-30 12:50:56 +0000";
layers = (
{
layerId = "60B24473-AF85-4843-BA5D-A0A691C0B2A6";
paths = (
{
closed = 1;
nodes = (
"208 0 LINE",
"208 10 LINE",
"140 40 OFFCURVE",
"109 60 OFFCURVE",
"133 112 CURVE SMOOTH",
"211 285 LINE",
"459 285 LINE",
"523 102 LINE SMOOTH",
"539 56 OFFCURVE",
"529 40 OFFCURVE",
"493 10 CURVE",
"493 0 LINE",
"661 0 LINE",
"661 10 LINE",
"569 243 OFFCURVE",
"407 620 OFFCURVE",
"399 710 CURVE",
"369 703 LINE",
"5 10 LINE",
"10 0 LINE"
);
},
{
closed = 1;
nodes = (
"344 578 LINE",
"383 490 OFFCURVE",
"416 406 OFFCURVE",
"445 325 CURVE",
"229 325 LINE"
);
}
);
width = 666;
}
);
unicode = 0041;
},
{
color = 3;
glyphname = AE;
lastChange = "2020-02-04 05:44:38 +0000";
layers = (
{
layerId = "60B24473-AF85-4843-BA5D-A0A691C0B2A6";
paths = (
{
closed = 1;
nodes = (
"828 -46 LINE",
"828 87 LINE",
"818 87 LINE",
"801 66 OFFCURVE",
"785 40 OFFCURVE",
"735 40 CURVE SMOOTH",
"640 40 LINE SMOOTH",
"583 40 OFFCURVE",
"561 57 OFFCURVE",
"561 110 CURVE SMOOTH",
"560 347 LINE",
"758 344 LINE SMOOTH",
"788 344 OFFCURVE",
"788 334 OFFCURVE",
"818 288 CURVE",
"828 288 LINE",
"828 431 LINE",
"818 431 LINE",
"795 390 OFFCURVE",
"787 384 OFFCURVE",
"757 384 CURVE SMOOTH",
"560 384 LINE",
"561 660 LINE",
"750 660 LINE SMOOTH",
"779 660 OFFCURVE",
"792 643 OFFCURVE",
"818 599 CURVE",
"828 599 LINE",
"828 700 LINE",
"334 700 LINE",
"334 683 LINE",
"376 668 OFFCURVE",
"400 662 OFFCURVE",
"434 649 CURVE",
"5 10 LINE",
"10 0 LINE",
"238 0 LINE",
"238 10 LINE",
"161 49 OFFCURVE",
"149 80 OFFCURVE",
"175 123 CURVE SMOOTH",
"309 344 LINE",
"475 344 LINE",
"476 253 OFFCURVE",
"474 161 OFFCURVE",
"469 70 CURVE",
"456 51 OFFCURVE",
"434 32 OFFCURVE",
"402 10 CURVE",
"402 0 LINE",
"765 0 LINE SMOOTH",
"785 0 OFFCURVE",
"792 -10 OFFCURVE",
"817 -46 CURVE"
);
},
{
closed = 1;
nodes = (
"474 616 LINE",
"475 605 LINE",
"475 384 LINE",
"334 384 LINE"
);
}
);
width = 853;
}
);
leftMetricsKey = A;
rightMetricsKey = E;
unicode = 00C6;
},
{
color = 3;
glyphname = B;
lastChange = "2020-01-30 12:50:56 +0000";
layers = (
{
layerId = "60B24473-AF85-4843-BA5D-A0A691C0B2A6";
paths = (
{
closed = 1;
nodes = (
"116 15 OFFCURVE",
"200 -10 OFFCURVE",
"303 -10 CURVE SMOOTH",
"423 -10 OFFCURVE",
"576 68 OFFCURVE",
"576 208 CURVE SMOOTH",
"576 333 OFFCURVE",
"477 391 OFFCURVE",
"362 407 CURVE",
"424 427 OFFCURVE",
"499 482 OFFCURVE",
"499 568 CURVE SMOOTH",
"499 648 OFFCURVE",
"430 710 OFFCURVE",
"310 710 CURVE SMOOTH",
"214 710 OFFCURVE",
"126 670 OFFCURVE",
"20 660 CURVE",
"20 640 LINE",
"82 629 OFFCURVE",
"74 601 OFFCURVE",
"76 571 CURVE SMOOTH",
"86 416 OFFCURVE",
"87 251 OFFCURVE",
"76 96 CURVE SMOOTH",
"74 69 OFFCURVE",
"62 31 OFFCURVE",
"35 4 CURVE",
"42 -15 LINE"
);
},
{
closed = 1;
nodes = (
"210 29 OFFCURVE",
"170 70 OFFCURVE",
"169 133 CURVE SMOOTH",
"166 350 LINE",
"186 359 OFFCURVE",
"232 373 OFFCURVE",
"298 373 CURVE SMOOTH",
"398 373 OFFCURVE",
"476 308 OFFCURVE",
"476 208 CURVE SMOOTH",
"476 108 OFFCURVE",
"409 29 OFFCURVE",
"299 29 CURVE SMOOTH"
);
},
{
closed = 1;
nodes = (
"222 409 OFFCURVE",
"187 411 OFFCURVE",
"167 419 CURVE",
"163 643 LINE",
"190 655 OFFCURVE",
"233 668 OFFCURVE",
"269 668 CURVE SMOOTH",
"347 668 OFFCURVE",
"407 622 OFFCURVE",
"407 542 CURVE SMOOTH",
"407 457 OFFCURVE",
"340 409 OFFCURVE",
"265 409 CURVE SMOOTH"
);
}
);
width = 596;
}
);
leftMetricsKey = H;
unicode = 0042;
},
{
color = 3;
glyphname = C;
lastChange = "2020-02-04 05:44:07 +0000";
layers = (
{
layerId = "60B24473-AF85-4843-BA5D-A0A691C0B2A6";
paths = (
{
closed = 1;
nodes = (
"408 25 OFFCURVE",
"456 51 OFFCURVE",
"509 91 CURVE",
"518 122 LINE",
"513 124 LINE",
"468 101 OFFCURVE",
"430 72 OFFCURVE",
"355 72 CURVE SMOOTH",
"216 72 OFFCURVE",
"106 206 OFFCURVE",
"106 385 CURVE SMOOTH",
"106 520 OFFCURVE",
"153 621 OFFCURVE",
"225 643 CURVE",
"308 650 OFFCURVE",
"385 627 OFFCURVE",
"452 577 CURVE",
"480 602 OFFCURVE",
"506 637 OFFCURVE",
"516 662 CURVE",
"482 681 OFFCURVE",
"392 710 OFFCURVE",
"342 710 CURVE SMOOTH",
"152 710 OFFCURVE",
"25 535 OFFCURVE",
"25 345 CURVE SMOOTH",
"25 165 OFFCURVE",
"157 -10 OFFCURVE",
"337 -10 CURVE"
);
}
);
width = 533;
}
);
leftMetricsKey = O;
unicode = 0043;
},
{
color = 3;
glyphname = D;
lastChange = "2020-01-30 12:50:56 +0000";
layers = (
{
layerId = "60B24473-AF85-4843-BA5D-A0A691C0B2A6";
paths = (
{
closed = 1;
nodes = (
"57 -1 OFFCURVE",
"101 9 OFFCURVE",
"136 9 CURVE SMOOTH",
"186 9 OFFCURVE",
"273 -10 OFFCURVE",
"323 -10 CURVE SMOOTH",
"496 -10 OFFCURVE",
"686 89 OFFCURVE",
"686 343 CURVE SMOOTH",
"686 553 OFFCURVE",
"540 710 OFFCURVE",
"330 710 CURVE SMOOTH",
"204 710 OFFCURVE",
"157 687 OFFCURVE",
"30 710 CURVE",
"20 694 LINE",
"61 652 OFFCURVE",
"68 628 OFFCURVE",
"69 575 CURVE SMOOTH",
"72 417 OFFCURVE",
"73 259 OFFCURVE",
"69 101 CURVE SMOOTH",
"68 64 OFFCURVE",
"53 35 OFFCURVE",
"26 8 CURVE",
"35 -10 LINE"
);
},
{
closed = 1;
nodes = (
"225 26 OFFCURVE",
"166 56 OFFCURVE",
"163 146 CURVE SMOOTH",
"159 254 OFFCURVE",
"159 482 OFFCURVE",
"166 666 CURVE",
"424 695 OFFCURVE",
"586 580 OFFCURVE",
"586 363 CURVE SMOOTH",
"586 202 OFFCURVE",
"517 26 OFFCURVE",
"337 26 CURVE SMOOTH"
);
}
);
width = 711;
}
);
leftMetricsKey = H;
rightMetricsKey = O;
unicode = 0044;
},
{
color = 3;
glyphname = E;
lastChange = "2020-01-30 12:50:56 +0000";
layers = (
{
layerId = "60B24473-AF85-4843-BA5D-A0A691C0B2A6";
paths = (
{
closed = 1;
nodes = (
"429 -46 LINE",
"429 86 LINE",
"419 86 LINE",
"401 55 OFFCURVE",
"386 35 OFFCURVE",
"346 35 CURVE SMOOTH",
"245 36 LINE SMOOTH",
"174 37 OFFCURVE",
"162 65 OFFCURVE",
"162 112 CURVE SMOOTH",
"161 352 LINE",
"306 352 LINE SMOOTH",
"376 352 OFFCURVE",
"394 332 OFFCURVE",
"419 296 CURVE",
"429 296 LINE",
"429 434 LINE",
"419 434 LINE",
"396 403 OFFCURVE",
"376 387 OFFCURVE",
"306 387 CURVE SMOOTH",
"161 387 LINE",
"161 489 OFFCURVE",
"161 576 OFFCURVE",
"162 669 CURVE",
"283 669 LINE SMOOTH",
"364 669 OFFCURVE",
"393 648 OFFCURVE",
"419 594 CURVE",
"429 598 LINE",
"429 700 LINE",
"20 700 LINE",
"20 690 LINE",
"61 669 OFFCURVE",
"70 658 OFFCURVE",
"71 605 CURVE SMOOTH",
"75 442 OFFCURVE",
"73 273 OFFCURVE",
"68 85 CURVE SMOOTH",
"67 42 OFFCURVE",
"52 32 OFFCURVE",
"20 10 CURVE",
"20 0 LINE",
"354 0 LINE SMOOTH",
"386 0 OFFCURVE",
"401 -13 OFFCURVE",
"419 -46 CURVE"
);
}
);
width = 454;
}
);
leftMetricsKey = H;
unicode = 0045;
},
{
color = 3;
glyphname = F;
lastChange = "2020-01-30 12:50:56 +0000";
layers = (
{
layerId = "60B24473-AF85-4843-BA5D-A0A691C0B2A6";
paths = (
{
closed = 1;
nodes = (
"242 0 LINE",
"241 10 LINE",
"176 39 OFFCURVE",
"164 45 OFFCURVE",
"163 85 CURVE SMOOTH",
"161 172 OFFCURVE",
"161 270 OFFCURVE",
"161 352 CURVE",
"317 352 LINE SMOOTH",
"387 352 OFFCURVE",
"390 332 OFFCURVE",
"415 296 CURVE",
"430 296 LINE",
"430 434 LINE",
"415 434 LINE",
"402 413 OFFCURVE",
"387 387 OFFCURVE",
"317 387 CURVE SMOOTH",
"161 387 LINE",
"163 665 LINE",
"284 665 LINE SMOOTH",
"365 665 OFFCURVE",
"389 648 OFFCURVE",
"415 594 CURVE",
"430 594 LINE",
"430 700 LINE",
"20 700 LINE",
"20 690 LINE",
"52 678 OFFCURVE",
"70 668 OFFCURVE",
"71 615 CURVE SMOOTH",
"74 452 OFFCURVE",
"72 263 OFFCURVE",
"71 125 CURVE SMOOTH",
"70 32 OFFCURVE",
"52 22 OFFCURVE",
"30 10 CURVE",
"30 0 LINE"
);
}
);
width = 455;
}
);
leftMetricsKey = H;
unicode = 0046;
},
{
color = 3;
glyphname = G;
lastChange = "2020-01-30 12:50:56 +0000";
layers = (
{
layerId = "60B24473-AF85-4843-BA5D-A0A691C0B2A6";
paths = (
{
closed = 1;
nodes = (
"480 -10 OFFCURVE",
"582 29 OFFCURVE",
"626 57 CURVE",
"622 165 OFFCURVE",
"622 272 OFFCURVE",
"626 380 CURVE",
"389 380 LINE",
"347 300 LINE",
"360 292 LINE",
"393 309 OFFCURVE",
"433 310 OFFCURVE",
"537 310 CURVE",
"539 236 OFFCURVE",
"541 153 OFFCURVE",
"531 69 CURVE",
"510 53 OFFCURVE",
"470 32 OFFCURVE",
"421 32 CURVE SMOOTH",
"231 32 OFFCURVE",
"125 170 OFFCURVE",
"125 360 CURVE SMOOTH",
"125 530 OFFCURVE",
"200 659 OFFCURVE",
"328 659 CURVE SMOOTH",
"417 659 OFFCURVE",
"541 616 OFFCURVE",
"602 566 CURVE",
"616 597 OFFCURVE",
"631 629 OFFCURVE",
"649 660 CURVE",
"580 696 OFFCURVE",
"499 710 OFFCURVE",
"419 710 CURVE SMOOTH",
"194 710 OFFCURVE",
"25 562 OFFCURVE",
"25 347 CURVE SMOOTH",
"25 143 OFFCURVE",
"168 -10 OFFCURVE",
"384 -10 CURVE SMOOTH"
);
}
);
width = 689;
}
);
leftMetricsKey = O;
unicode = 0047;
},
{
color = 3;
glyphname = H;
lastChange = "2020-01-30 12:50:56 +0000";
layers = (
{
layerId = "60B24473-AF85-4843-BA5D-A0A691C0B2A6";
paths = (
{
closed = 1;
nodes = (
"256 0 LINE",
"256 10 LINE",
"184 44 OFFCURVE",
"164 48 OFFCURVE",
"164 91 CURVE SMOOTH",
"164 165 OFFCURVE",
"162 239 OFFCURVE",
"162 335 CURVE",
"538 335 LINE",
"540 267 OFFCURVE",
"540 210 OFFCURVE",
"535 89 CURVE SMOOTH",
"533 36 OFFCURVE",
"515 32 OFFCURVE",
"484 10 CURVE",
"484 0 LINE",
"678 0 LINE",
"678 10 LINE",
"636 37 OFFCURVE",
"628 36 OFFCURVE",
"627 89 CURVE SMOOTH",
"624 252 OFFCURVE",
"623 297 OFFCURVE",
"627 435 CURVE SMOOTH",
"630 528 OFFCURVE",
"646 528 OFFCURVE",
"678 560 CURVE",
"678 570 LINE",
"456 570 LINE",
"457 560 LINE",
"524 525 OFFCURVE",
"532 525 OFFCURVE",
"535 435 CURVE SMOOTH",
"537 375 LINE",
"162 375 LINE",
"162 448 OFFCURVE",
"161 537 OFFCURVE",
"163 616 CURVE SMOOTH",
"164 651 OFFCURVE",
"174 661 OFFCURVE",
"214 690 CURVE",
"214 700 LINE",
"20 700 LINE",
"20 690 LINE",
"42 681 OFFCURVE",
"70 668 OFFCURVE",
"71 615 CURVE SMOOTH",
"74 452 OFFCURVE",
"72 267 OFFCURVE",
"71 129 CURVE SMOOTH",
"70 36 OFFCURVE",
"61 42 OFFCURVE",
"20 10 CURVE",
"20 0 LINE"
);
}
);
width = 698;
}
);
unicode = 0048;
},
{
color = 3;
glyphname = I;
lastChange = "2020-01-30 12:50:56 +0000";
layers = (
{
layerId = "60B24473-AF85-4843-BA5D-A0A691C0B2A6";
paths = (
{
closed = 1;
nodes = (
"242 0 LINE",
"242 10 LINE",
"185 35 OFFCURVE",
"164 35 OFFCURVE",
"163 125 CURVE SMOOTH",
"161 262 OFFCURVE",
"160 443 OFFCURVE",
"163 615 CURVE SMOOTH",
"164 668 OFFCURVE",
"184 671 OFFCURVE",
"214 690 CURVE",
"214 700 LINE",
"20 700 LINE",
"20 690 LINE",
"42 681 OFFCURVE",
"70 668 OFFCURVE",
"71 615 CURVE SMOOTH",
"74 452 OFFCURVE",
"73 263 OFFCURVE",
"71 125 CURVE SMOOTH",
"70 42 OFFCURVE",
"61 38 OFFCURVE",
"20 10 CURVE",
"20 0 LINE"
);
}
);
width = 262;
}
);
leftMetricsKey = H;
rightMetricsKey = H;
unicode = 0049;
},
{
color = 3;
glyphname = J;
lastChange = "2020-01-30 12:50:56 +0000";
layers = (
{
layerId = "60B24473-AF85-4843-BA5D-A0A691C0B2A6";
paths = (
{
closed = 1;
nodes = (
"249 -267 OFFCURVE",
"323 -170 OFFCURVE",
"325 45 CURVE SMOOTH",
"327 283 OFFCURVE",
"307 635 OFFCURVE",
"372 700 CURVE",
"359 710 LINE",
"267 678 OFFCURVE",
"158 689 OFFCURVE",
"49 689 CURVE",
"27 662 OFFCURVE",
"7 639 OFFCURVE",
"5 586 CURVE",
"12 583 LINE",
"44 620 OFFCURVE",
"115 619 OFFCURVE",
"233 614 CURVE",
"223 459 OFFCURVE",
"233 165 OFFCURVE",
"233 -49 CURVE SMOOTH",
"233 -166 OFFCURVE",
"199 -220 OFFCURVE",
"107 -228 CURVE",
"107 -248 LINE"
);
}
);
width = 412;
}
);
unicode = 004A;
},
{
color = 3;
glyphname = K;
lastChange = "2020-01-30 12:50:56 +0000";
layers = (
{
layerId = "60B24473-AF85-4843-BA5D-A0A691C0B2A6";
paths = (
{
closed = 1;
nodes = (
"242 0 LINE",
"242 10 LINE",
"185 35 OFFCURVE",
"164 35 OFFCURVE",
"163 125 CURVE SMOOTH",
"162 198 OFFCURVE",
"161 284 OFFCURVE",
"161 373 CURVE",
"218 355 OFFCURVE",
"337 212 OFFCURVE",
"417 90 CURVE SMOOTH",
"445 47 OFFCURVE",
"427 34 OFFCURVE",
"378 10 CURVE",
"378 0 LINE",
"633 0 LINE",
"633 10 LINE",
"561 39 OFFCURVE",
"376 274 OFFCURVE",
"248 411 CURVE",
"319 460 OFFCURVE",
"463 597 OFFCURVE",
"577 690 CURVE",
"577 700 LINE",
"352 700 LINE",
"352 690 LINE",
"385 674 OFFCURVE",
"414 659 OFFCURVE",
"401 630 CURVE SMOOTH",
"378 578 OFFCURVE",
"242 430 OFFCURVE",
"161 408 CURVE",
"161 475 OFFCURVE",
"162 547 OFFCURVE",
"163 615 CURVE SMOOTH",
"164 668 OFFCURVE",
"184 671 OFFCURVE",
"214 690 CURVE",
"214 700 LINE",
"20 700 LINE",
"20 690 LINE",
"42 681 OFFCURVE",
"70 668 OFFCURVE",
"71 615 CURVE SMOOTH",
"74 452 OFFCURVE",
"73 263 OFFCURVE",
"71 125 CURVE SMOOTH",
"70 42 OFFCURVE",
"61 38 OFFCURVE",
"20 10 CURVE",
"20 0 LINE"
);
}
);
width = 633;
}
);
leftMetricsKey = H;
unicode = 004B;
},
{
color = 3;
glyphname = L;
lastChange = "2020-01-30 12:50:56 +0000";
layers = (
{
layerId = "60B24473-AF85-4843-BA5D-A0A691C0B2A6";
paths = (
{
closed = 1;
nodes = (
"515 0 LINE",
"512 57 OFFCURVE",
"512 124 OFFCURVE",
"515 201 CURVE",
"496 201 LINE",
"476 93 OFFCURVE",
"449 71 OFFCURVE",
"400 58 CURVE SMOOTH",
"342 42 OFFCURVE",
"299 34 OFFCURVE",
"250 34 CURVE SMOOTH",
"186 34 OFFCURVE",
"167 52 OFFCURVE",
"164 100 CURVE SMOOTH",
"161 143 OFFCURVE",
"162 328 OFFCURVE",
"162 615 CURVE SMOOTH",
"162 648 OFFCURVE",
"207 671 OFFCURVE",
"262 690 CURVE",
"262 700 LINE",
"20 700 LINE",
"20 690 LINE",
"42 681 OFFCURVE",
"70 668 OFFCURVE",
"71 615 CURVE SMOOTH",
"74 452 OFFCURVE",
"72 273 OFFCURVE",
"71 135 CURVE SMOOTH",
"70 42 OFFCURVE",
"42 22 OFFCURVE",
"20 10 CURVE",
"20 0 LINE"
);
}
);
width = 540;
}
);
leftMetricsKey = H;
unicode = 004C;
},
{
color = 3;
glyphname = M;
lastChange = "2020-02-04 05:45:04 +0000";
layers = (
{
hints = (
{
horizontal = 1;
place = "{546, -20}";
target = down;
type = TopGhost;
}
);
layerId = "60B24473-AF85-4843-BA5D-A0A691C0B2A6";
paths = (
{
closed = 1;
nodes = (
"391 1 LINE",
"419 132 OFFCURVE",
"494 349 OFFCURVE",
"561 520 CURVE",
"636 111 LINE SMOOTH",
"645 60 OFFCURVE",
"629 40 OFFCURVE",
"583 10 CURVE",
"583 0 LINE",
"754 0 LINE",
"754 10 LINE",
"702 243 OFFCURVE",
"618 670 OFFCURVE",
"610 710 CURVE",
"580 710 LINE",
"390 228 LINE",
"314 430 OFFCURVE",
"231 675 OFFCURVE",
"222 710 CURVE",
"192 710 LINE",
"135 480 OFFCURVE",
"72 249 OFFCURVE",
"5 10 CURVE",
"5 0 LINE",
"153 0 LINE",
"153 10 LINE",
"108 30 OFFCURVE",
"85 56 OFFCURVE",
"92 90 CURVE SMOOTH",
"187 519 LINE",
"253 355 OFFCURVE",
"311 177 OFFCURVE",
"366 -5 CURVE"
);
}
);
width = 759;
}
);
unicode = 004D;
},
{
color = 3;
glyphname = N;
lastChange = "2020-01-30 12:50:56 +0000";
layers = (
{
layerId = "60B24473-AF85-4843-BA5D-A0A691C0B2A6";
paths = (
{
closed = 1;
nodes = (
"242 0 LINE",
"242 10 LINE",
"165 45 OFFCURVE",
"164 45 OFFCURVE",
"163 125 CURVE SMOOTH",
"162 233 OFFCURVE",
"160 369 OFFCURVE",
"162 506 CURVE",
"293 424 OFFCURVE",
"421 336 OFFCURVE",
"547 243 CURVE",
"546 122 LINE SMOOTH",
"545 52 OFFCURVE",
"544 43 OFFCURVE",
"487 10 CURVE",
"487 0 LINE",
"689 0 LINE",
"689 10 LINE",
"667 22 OFFCURVE",
"639 29 OFFCURVE",
"638 122 CURVE SMOOTH",
"637 260 OFFCURVE",
"635 452 OFFCURVE",
"638 615 CURVE SMOOTH",
"639 668 OFFCURVE",
"652 673 OFFCURVE",
"674 690 CURVE",
"674 700 LINE",
"475 700 LINE",
"475 690 LINE",
"539 662 OFFCURVE",
"545 658 OFFCURVE",
"546 615 CURVE SMOOTH",
"548 521 OFFCURVE",
"548 420 OFFCURVE",
"547 335 CURVE",
"416 416 OFFCURVE",
"287 507 OFFCURVE",
"163 591 CURVE",
"164 662 OFFCURVE",
"166 660 OFFCURVE",
"214 690 CURVE",
"214 700 LINE",
"20 700 LINE",
"20 690 LINE",
"42 681 OFFCURVE",
"70 668 OFFCURVE",
"71 615 CURVE SMOOTH",
"74 452 OFFCURVE",
"73 263 OFFCURVE",
"71 125 CURVE SMOOTH",
"70 42 OFFCURVE",
"61 38 OFFCURVE",
"30 10 CURVE",
"30 0 LINE"
);
}
);
width = 709;
}
);
leftMetricsKey = H;
rightMetricsKey = H;
unicode = 004E;
},
{
color = 3;
glyphname = O;
lastChange = "2020-01-30 12:50:56 +0000";
layers = (
{
layerId = "60B24473-AF85-4843-BA5D-A0A691C0B2A6";
paths = (
{
closed = 1;
nodes = (
"555 -10 OFFCURVE",
"686 150 OFFCURVE",
"686 340 CURVE SMOOTH",
"686 540 OFFCURVE",
"555 710 OFFCURVE",
"356 710 CURVE SMOOTH",
"156 710 OFFCURVE",
"25 540 OFFCURVE",
"25 340 CURVE SMOOTH",
"25 150 OFFCURVE",
"156 -10 OFFCURVE",
"355 -10 CURVE SMOOTH"
);
},
{
closed = 1;
nodes = (
"206 30 OFFCURVE",
"130 190 OFFCURVE",
"130 340 CURVE SMOOTH",
"130 510 OFFCURVE",
"206 670 OFFCURVE",
"356 670 CURVE SMOOTH",
"505 670 OFFCURVE",
"581 510 OFFCURVE",
"581 340 CURVE SMOOTH",
"581 190 OFFCURVE",
"505 30 OFFCURVE",
"356 30 CURVE SMOOTH"
);
}
);
width = 711;
}
);
unicode = 004F;
},
{
color = 3;
glyphname = OE;
lastChange = "2020-01-30 12:50:56 +0000";
layers = (
{
layerId = "60B24473-AF85-4843-BA5D-A0A691C0B2A6";
paths = (
{
closed = 1;
nodes = (
"896 -56 LINE",
"896 82 LINE",
"886 82 LINE",
"863 47 OFFCURVE",
"852 35 OFFCURVE",
"827 35 CURVE SMOOTH",
"682 35 OFFCURVE",
"622 26 OFFCURVE",
"619 89 CURVE SMOOTH",
"616 155 OFFCURVE",
"618 277 OFFCURVE",
"618 352 CURVE",
"783 352 LINE SMOOTH",
"853 352 OFFCURVE",
"861 332 OFFCURVE",
"886 286 CURVE",
"896 286 LINE",
"896 434 LINE",
"886 434 LINE",
"863 403 OFFCURVE",
"853 387 OFFCURVE",
"783 387 CURVE SMOOTH",
"618 387 LINE",
"618 457 OFFCURVE",
"619 540 OFFCURVE",
"619 615 CURVE SMOOTH",
"619 660 LINE",
"810 660 LINE SMOOTH",
"841 660 OFFCURVE",
"850 651 OFFCURVE",
"886 579 CURVE",
"896 579 LINE",
"896 700 LINE",
"546 700 LINE SMOOTH",
"482 698 OFFCURVE",
"398 710 OFFCURVE",
"355 710 CURVE SMOOTH",
"156 710 OFFCURVE",
"25 540 OFFCURVE",
"25 340 CURVE SMOOTH",
"25 150 OFFCURVE",
"156 -15 OFFCURVE",
"361 -15 CURVE SMOOTH",
"426 -15 OFFCURVE",
"470 -9 OFFCURVE",
"518 0 CURVE",
"812 0 LINE SMOOTH",
"852 0 OFFCURVE",
"860 -11 OFFCURVE",
"886 -56 CURVE"
);
},
{
closed = 1;
nodes = (
"214 25 OFFCURVE",
"130 190 OFFCURVE",
"130 340 CURVE SMOOTH",
"130 510 OFFCURVE",
"216 669 OFFCURVE",
"365 669 CURVE SMOOTH",
"446 669 OFFCURVE",
"494 639 OFFCURVE",
"527 619 CURVE",
"527 98 LINE",
"489 64 OFFCURVE",
"445 25 OFFCURVE",
"363 25 CURVE SMOOTH"
);
}
);
width = 921;
}
);
leftMetricsKey = O;
rightMetricsKey = E;
unicode = 0152;
},
{
color = 3;
glyphname = P;
lastChange = "2020-01-30 12:50:56 +0000";
layers = (
{
layerId = "60B24473-AF85-4843-BA5D-A0A691C0B2A6";
paths = (
{
closed = 1;
nodes = (
"272 0 LINE",
"272 10 LINE",
"195 38 OFFCURVE",
"175 45 OFFCURVE",
"173 85 CURVE SMOOTH",
"166 227 OFFCURVE",
"168 307 OFFCURVE",
"173 665 CURVE",
"240 665 LINE SMOOTH",
"370 665 OFFCURVE",
"461 596 OFFCURVE",
"461 491 CURVE SMOOTH",
"461 367 OFFCURVE",
"392 317 OFFCURVE",
"252 317 CURVE",
"259 292 LINE",
"431 282 OFFCURVE",
"552 364 OFFCURVE",
"551 483 CURVE SMOOTH",
"550 632 OFFCURVE",
"423 702 OFFCURVE",
"271 702 CURVE SMOOTH",
"194 702 OFFCURVE",
"107 699 OFFCURVE",
"20 703 CURVE",
"20 693 LINE",
"62 675 OFFCURVE",
"80 658 OFFCURVE",
"81 605 CURVE SMOOTH",
"84 442 OFFCURVE",
"83 263 OFFCURVE",
"81 125 CURVE SMOOTH",
"80 52 OFFCURVE",
"72 28 OFFCURVE",
"30 10 CURVE",
"30 0 LINE"
);
}
);
width = 561;
}
);
leftMetricsKey = H;
unicode = 0050;
},
{
color = 3;
glyphname = Q;
lastChange = "2020-02-04 05:45:27 +0000";
layers = (
{
layerId = "60B24473-AF85-4843-BA5D-A0A691C0B2A6";
paths = (
{
closed = 1;
nodes = (
"793 -220 OFFCURVE",
"893 -178 OFFCURVE",
"1060 -83 CURVE",
"1052 -54 LINE",
"960 -101 OFFCURVE",
"871 -145 OFFCURVE",
"794 -145 CURVE SMOOTH",
"722 -145 OFFCURVE",
"603 -64 OFFCURVE",
"447 2 CURVE",
"595 42 OFFCURVE",
"686 181 OFFCURVE",
"686 340 CURVE SMOOTH",
"686 540 OFFCURVE",
"555 710 OFFCURVE",
"356 710 CURVE SMOOTH",
"156 710 OFFCURVE",
"25 540 OFFCURVE",
"25 340 CURVE SMOOTH",
"25 168 OFFCURVE",
"133 20 OFFCURVE",
"301 -6 CURVE",
"430 -52 OFFCURVE",
"658 -221 OFFCURVE",
"736 -230 CURVE"
);
},
{
closed = 1;
nodes = (
"230 38 OFFCURVE",
"130 137 OFFCURVE",
"130 340 CURVE SMOOTH",
"130 510 OFFCURVE",
"206 670 OFFCURVE",
"356 670 CURVE SMOOTH",
"505 670 OFFCURVE",
"581 510 OFFCURVE",
"581 340 CURVE SMOOTH",
"581 203 OFFCURVE",
"518 38 OFFCURVE",
"362 38 CURVE SMOOTH"
);
}
);
width = 740;
}
);
leftMetricsKey = O;
unicode = 0051;
},
{
color = 3;
glyphname = R;
lastChange = "2020-01-30 12:50:56 +0000";
layers = (
{
layerId = "60B24473-AF85-4843-BA5D-A0A691C0B2A6";
paths = (
{
closed = 1;
nodes = (
"213 0 LINE",
"213 10 LINE",
"176 43 OFFCURVE",
"165 45 OFFCURVE",
"164 135 CURVE SMOOTH",
"163 197 OFFCURVE",
"163 267 OFFCURVE",
"163 342 CURVE",
"186 338 OFFCURVE",
"216 335 OFFCURVE",
"250 334 CURVE",
"430 90 LINE SMOOTH",
"459 50 OFFCURVE",
"452 30 OFFCURVE",
"400 10 CURVE",
"400 0 LINE",
"625 0 LINE",
"625 10 LINE",
"531 101 OFFCURVE",
"406 244 OFFCURVE",
"332 344 CURVE",
"405 364 OFFCURVE",
"486 423 OFFCURVE",
"486 523 CURVE SMOOTH",
"486 628 OFFCURVE",
"389 710 OFFCURVE",
"279 710 CURVE SMOOTH",
"195 710 OFFCURVE",
"129 700 OFFCURVE",
"22 700 CURVE",
"20 690 LINE",
"62 671 OFFCURVE",
"72 658 OFFCURVE",
"73 605 CURVE SMOOTH",
"79 278 OFFCURVE",
"74 212 OFFCURVE",
"73 135 CURVE SMOOTH",
"72 52 OFFCURVE",
"62 42 OFFCURVE",
"22 10 CURVE",
"22 0 LINE"
);
},
{
closed = 1;
nodes = (
"225 372 OFFCURVE",
"189 380 OFFCURVE",
"168 397 CURVE",
"168 662 LINE",
"279 693 OFFCURVE",
"396 657 OFFCURVE",
"396 523 CURVE SMOOTH",
"396 447 OFFCURVE",
"337 372 OFFCURVE",
"263 372 CURVE SMOOTH"
);
}
);
width = 615;
}
);
leftMetricsKey = H;
unicode = 0052;
},
{
color = 3;
glyphname = S;
lastChange = "2020-01-30 12:50:56 +0000";
layers = (
{
layerId = "60B24473-AF85-4843-BA5D-A0A691C0B2A6";
paths = (
{
closed = 1;
nodes = (
"422 -10 OFFCURVE",
"539 61 OFFCURVE",
"539 208 CURVE SMOOTH",
"539 311 OFFCURVE",
"462 374 OFFCURVE",
"351 410 CURVE SMOOTH",
"236 447 OFFCURVE",
"158 479 OFFCURVE",
"158 565 CURVE SMOOTH",
"158 617 OFFCURVE",
"200 668 OFFCURVE",
"276 668 CURVE SMOOTH",
"337 668 OFFCURVE",
"416 619 OFFCURVE",
"462 567 CURVE",
"484 610 OFFCURVE",
"516 651 OFFCURVE",
"552 693 CURVE",
"538 702 LINE",
"474 662 LINE",
"419 695 OFFCURVE",
"369 710 OFFCURVE",
"300 710 CURVE SMOOTH",
"187 710 OFFCURVE",
"88 631 OFFCURVE",
"88 532 CURVE SMOOTH",
"88 430 OFFCURVE",
"155 367 OFFCURVE",
"287 324 CURVE SMOOTH",
"401 287 OFFCURVE",
"474 246 OFFCURVE",
"474 156 CURVE SMOOTH",
"474 82 OFFCURVE",
"425 42 OFFCURVE",
"361 42 CURVE SMOOTH",
"279 42 OFFCURVE",
"171 90 OFFCURVE",
"134 163 CURVE",
"129 163 LINE",
"107 112 OFFCURVE",
"82 70 OFFCURVE",
"38 11 CURVE",
"60 0 LINE",
"115 47 LINE",
"144 25 OFFCURVE",
"224 -10 OFFCURVE",
"310 -10 CURVE SMOOTH"
);
}
);
width = 582;
}
);
unicode = 0053;
},
{
color = 3;
glyphname = T;
lastChange = "2020-02-04 05:45:41 +0000";
layers = (
{
layerId = "60B24473-AF85-4843-BA5D-A0A691C0B2A6";
paths = (
{
closed = 1;
nodes = (
"457 0 LINE",
"457 10 LINE",
"400 35 OFFCURVE",
"379 32 OFFCURVE",
"378 72 CURVE SMOOTH",
"376 259 OFFCURVE",
"378 443 OFFCURVE",
"378 615 CURVE SMOOTH",
"378 621 LINE",
"456 620 OFFCURVE",
"535 619 OFFCURVE",
"603 620 CURVE",
"655 706 LINE",
"648 717 LINE",
"619 692 OFFCURVE",
"568 690 OFFCURVE",
"509 690 CURVE SMOOTH",
"409 690 OFFCURVE",
"195 695 OFFCURVE",
"105 695 CURVE SMOOTH",
"46 695 OFFCURVE",
"5 681 OFFCURVE",
"5 621 CURVE SMOOTH",
"5 580 OFFCURVE",
"36 541 OFFCURVE",
"81 541 CURVE",
"86 547 LINE",
"50 565 OFFCURVE",
"62 626 OFFCURVE",
"120 626 CURVE SMOOTH",
"164 626 OFFCURVE",
"211 625 OFFCURVE",
"287 623 CURVE",
"287 615 LINE SMOOTH",
"287 452 OFFCURVE",
"288 263 OFFCURVE",
"286 85 CURVE SMOOTH",
"286 32 OFFCURVE",
"268 27 OFFCURVE",
"246 10 CURVE",
"246 0 LINE"
);
}
);
width = 660;
}
);
unicode = 0054;
},
{
color = 3;
glyphname = U;
lastChange = "2020-01-30 12:50:56 +0000";
layers = (
{
layerId = "60B24473-AF85-4843-BA5D-A0A691C0B2A6";
paths = (
{
closed = 1;
nodes = (
"361 -10 OFFCURVE",
"440 24 OFFCURVE",
"508 73 CURVE",
"508 49 OFFCURVE",
"507 25 OFFCURVE",
"506 0 CURVE",
"683 0 LINE",
"683 10 LINE",
"617 45 OFFCURVE",
"613 55 OFFCURVE",
"609 125 CURVE SMOOTH",
"601 262 OFFCURVE",
"602 443 OFFCURVE",
"604 555 CURVE SMOOTH",
"606 648 OFFCURVE",
"625 658 OFFCURVE",
"656 689 CURVE",
"656 700 LINE",
"437 700 LINE",
"437 690 LINE",
"489 664 OFFCURVE",
"507 668 OFFCURVE",
"508 615 CURVE SMOOTH",
"512 404 OFFCURVE",
"513 268 OFFCURVE",
"509 114 CURVE",
"470 86 OFFCURVE",
"389 60 OFFCURVE",
"320 60 CURVE SMOOTH",
"220 60 OFFCURVE",
"172 112 OFFCURVE",
"166 212 CURVE SMOOTH",
"158 361 OFFCURVE",
"162 500 OFFCURVE",
"167 609 CURVE SMOOTH",
"169 654 OFFCURVE",
"171 659 OFFCURVE",
"208 690 CURVE",
"208 700 LINE",
"20 700 LINE",
"20 690 LINE",
"60 659 OFFCURVE",
"70 649 OFFCURVE",
"70 600 CURVE SMOOTH",
"70 212 LINE SMOOTH",
"70 62 OFFCURVE",
"144 -10 OFFCURVE",
"280 -10 CURVE SMOOTH"
);
}
);
width = 703;
}
);
leftMetricsKey = H;
rightMetricsKey = H;
unicode = 0055;
},
{
color = 3;
glyphname = Udieresis;
lastChange = "2020-01-30 12:50:56 +0000";
layers = (
{
layerId = "60B24473-AF85-4843-BA5D-A0A691C0B2A6";
paths = (
{
closed = 1;
nodes = (
"361 -10 OFFCURVE",
"440 24 OFFCURVE",
"508 73 CURVE",
"508 49 OFFCURVE",
"507 25 OFFCURVE",
"506 0 CURVE",
"683 0 LINE",
"683 10 LINE",
"617 45 OFFCURVE",
"613 55 OFFCURVE",
"609 125 CURVE SMOOTH",
"601 262 OFFCURVE",
"603 443 OFFCURVE",
"605 555 CURVE SMOOTH",
"607 648 OFFCURVE",
"626 658 OFFCURVE",
"657 689 CURVE",
"657 700 LINE",
"407 700 LINE",
"407 690 LINE",
"489 664 OFFCURVE",
"507 668 OFFCURVE",
"508 615 CURVE SMOOTH",
"512 404 OFFCURVE",
"513 268 OFFCURVE",
"509 114 CURVE",
"470 86 OFFCURVE",
"389 60 OFFCURVE",
"320 60 CURVE SMOOTH",
"220 60 OFFCURVE",
"172 112 OFFCURVE",
"166 212 CURVE SMOOTH",
"158 361 OFFCURVE",
"162 500 OFFCURVE",
"167 609 CURVE SMOOTH",
"169 654 OFFCURVE",
"171 659 OFFCURVE",
"268 690 CURVE",
"268 700 LINE",
"20 700 LINE",
"20 690 LINE",
"60 659 OFFCURVE",
"70 649 OFFCURVE",
"70 600 CURVE SMOOTH",
"70 212 LINE SMOOTH",
"70 62 OFFCURVE",
"144 -10 OFFCURVE",
"280 -10 CURVE SMOOTH"
);
},
{
closed = 1;
nodes = (
"225 779 OFFCURVE",
"267 772 OFFCURVE",
"302 772 CURVE",
"332 833 LINE",
"224 833 LINE",
"197 774 LINE",
"197 772 LINE"
);
},
{
closed = 1;
nodes = (
"459 772 LINE",
"506 831 LINE",
"468 825 OFFCURVE",
"439 828 OFFCURVE",
"401 829 CURVE",
"364 774 LINE",
"364 772 LINE"
);
}
);
width = 703;
}
);
leftMetricsKey = U;
rightMetricsKey = U;
unicode = 00DC;
},
{
color = 3;
glyphname = V;
lastChange = "2020-02-04 05:45:54 +0000";
layers = (
{
layerId = "60B24473-AF85-4843-BA5D-A0A691C0B2A6";
paths = (
{
closed = 1;
nodes = (
"364 -3 LINE",
"374 74 OFFCURVE",
"581 469 OFFCURVE",
"719 690 CURVE",
"719 700 LINE",
"513 700 LINE",
"513 690 LINE",
"590 647 OFFCURVE",
"595 622 OFFCURVE",
"570 567 CURVE SMOOTH",
"363 113 LINE",
"309 265 OFFCURVE",
"227 411 OFFCURVE",
"169 571 CURVE SMOOTH",
"150 624 OFFCURVE",
"145 641 OFFCURVE",
"218 690 CURVE",
"218 700 LINE",
"10 700 LINE",
"5 690 LINE",
"329 -10 LINE"
);
}
);
width = 724;
}
);
unicode = 0056;
},
{
color = 3;
glyphname = W;
lastChange = "2020-02-04 05:45:59 +0000";
layers = (
{
layerId = "60B24473-AF85-4843-BA5D-A0A691C0B2A6";
paths = (
{
closed = 1;
nodes = (
"267 -5 LINE",
"285 174 OFFCURVE",
"363 349 OFFCURVE",
"411 527 CURVE",
"479 353 OFFCURVE",
"538 175 OFFCURVE",
"590 -10 CURVE",
"625 -7 LINE",
"664 227 OFFCURVE",
"809 630 OFFCURVE",
"832 691 CURVE",
"832 700 LINE",
"667 697 LINE",
"667 687 LINE",
"732 647 OFFCURVE",
"747 624 OFFCURVE",
"738 582 CURVE SMOOTH",
"712 464 OFFCURVE",
"662 321 OFFCURVE",
"622 184 CURVE",
"497 594 LINE SMOOTH",
"484 635 OFFCURVE",
"515 672 OFFCURVE",
"546 690 CURVE",
"546 700 LINE",
"334 700 LINE",
"334 690 LINE",
"360 680 OFFCURVE",
"377 627 OFFCURVE",
"384 599 CURVE",
"348 469 OFFCURVE",
"298 331 OFFCURVE",
"264 199 CURVE",
"143 594 LINE SMOOTH",
"129 639 OFFCURVE",
"143 652 OFFCURVE",
"190 690 CURVE",
"190 700 LINE",
"5 700 LINE",
"5 690 LINE",
"88 458 OFFCURVE",
"164 224 OFFCURVE",
"232 -10 CURVE"
);
}
);
width = 837;
}
);
unicode = 0057;
},
{
color = 3;
glyphname = X;
lastChange = "2020-02-04 05:46:08 +0000";
layers = (
{
layerId = "60B24473-AF85-4843-BA5D-A0A691C0B2A6";
paths = (
{
closed = 1;
nodes = (
"240 0 LINE",
"240 13 LINE",
"190 43 OFFCURVE",
"154 57 OFFCURVE",
"192 104 CURVE SMOOTH",
"361 313 LINE",
"428 232 OFFCURVE",
"493 153 OFFCURVE",
"542 90 CURVE SMOOTH",
"561 66 OFFCURVE",
"556 53 OFFCURVE",
"502 15 CURVE",
"502 0 LINE",
"741 0 LINE",
"741 10 LINE",
"646 115 OFFCURVE",
"525 255 OFFCURVE",
"417 382 CURVE",
"714 690 LINE",
"714 700 LINE",
"489 700 LINE",
"489 687 LINE",
"555 657 OFFCURVE",
"573 646 OFFCURVE",
"541 603 CURVE SMOOTH",
"395 408 LINE",
"333 481 OFFCURVE",
"278 548 OFFCURVE",
"237 599 CURVE SMOOTH",
"205 639 OFFCURVE",
"213 655 OFFCURVE",
"255 685 CURVE",
"255 700 LINE",
"35 700 LINE",
"35 690 LINE",
"63 662 OFFCURVE",
"199 505 OFFCURVE",
"335 344 CURVE",
"5 10 LINE",
"5 0 LINE"
);
}
);
width = 746;
}
);
unicode = 0058;
},
{
color = 3;
glyphname = Y;
lastChange = "2020-01-30 12:50:56 +0000";
layers = (
{
layerId = "60B24473-AF85-4843-BA5D-A0A691C0B2A6";
paths = (
{
closed = 1;
nodes = (
"426 0 LINE",
"426 10 LINE",
"360 45 OFFCURVE",
"351 49 OFFCURVE",
"347 122 CURVE SMOOTH",
"340 242 OFFCURVE",
"344 290 OFFCURVE",
"346 342 CURVE",
"437 458 OFFCURVE",
"597 675 OFFCURVE",
"619 690 CURVE",
"619 700 LINE",
"410 700 LINE",
"410 690 LINE",
"465 656 OFFCURVE",
"490 644 OFFCURVE",
"464 599 CURVE SMOOTH",
"336 381 LINE",
"171 632 LINE SMOOTH",
"154 658 OFFCURVE",
"173 662 OFFCURVE",
"224 690 CURVE",
"224 700 LINE",
"5 700 LINE",
"5 690 LINE",
"256 342 LINE",
"258 284 OFFCURVE",
"256 248 OFFCURVE",
"255 125 CURVE SMOOTH",
"254 32 OFFCURVE",
"246 33 OFFCURVE",
"204 10 CURVE",
"204 0 LINE"
);
}
);
width = 624;
}
);
unicode = 0059;
},
{
color = 3;
glyphname = Z;
lastChange = "2020-01-30 12:50:56 +0000";
layers = (
{
layerId = "60B24473-AF85-4843-BA5D-A0A691C0B2A6";
paths = (
{
closed = 1;
nodes = (
"613 20 OFFCURVE",
"644 73 OFFCURVE",
"662 146 CURVE",
"642 156 LINE",
"623 116 OFFCURVE",
"599 86 OFFCURVE",
"540 86 CURVE SMOOTH",
"479 86 OFFCURVE",
"312 102 OFFCURVE",
"169 114 CURVE",
"269 241 OFFCURVE",
"531 634 OFFCURVE",
"648 687 CURVE",
"634 710 LINE",
"588 695 OFFCURVE",
"522 677 OFFCURVE",
"432 677 CURVE SMOOTH",
"321 677 OFFCURVE",
"148 687 OFFCURVE",
"88 700 CURVE",
"54 652 OFFCURVE",
"36 599 OFFCURVE",
"19 549 CURVE",
"38 538 LINE",
"66 581 OFFCURVE",
"94 596 OFFCURVE",
"135 596 CURVE SMOOTH",
"237 596 OFFCURVE",
"366 587 OFFCURVE",
"474 587 CURVE",
"342 436 OFFCURVE",
"124 85 OFFCURVE",
"0 6 CURVE",
"37 -7 LINE",
"84 22 OFFCURVE",
"99 26 OFFCURVE",
"155 26 CURVE SMOOTH",
"257 26 OFFCURVE",
"501 -10 OFFCURVE",
"575 -10 CURVE"
);
}
);
width = 678;
}
);
unicode = 005A;
},
{
color = 4;
glyphname = a;
lastChange = "2020-02-04 05:58:22 +0000";
layers = (
{
layerId = "60B24473-AF85-4843-BA5D-A0A691C0B2A6";
paths = (
{
closed = 1;
nodes = (
"147 -10 OFFCURVE",
"194 55 OFFCURVE",
"226 82 CURVE",
"232 53 OFFCURVE",
"259 -10 OFFCURVE",
"299 -10 CURVE",
"319 1 OFFCURVE",
"370 48 OFFCURVE",
"387 72 CURVE",
"382 82 LINE",
"376 78 OFFCURVE",
"366 75 OFFCURVE",
"355 75 CURVE SMOOTH",
"333 75 OFFCURVE",
"308 83 OFFCURVE",
"308 111 CURVE SMOOTH",
"308 310 LINE SMOOTH",
"308 370 OFFCURVE",
"275 410 OFFCURVE",
"215 410 CURVE SMOOTH",
"173 410 OFFCURVE",
"79 351 OFFCURVE",
"48 337 CURVE",
"56 322 LINE",
"100 340 OFFCURVE",
"134 350 OFFCURVE",
"165 350 CURVE SMOOTH",
"205 350 OFFCURVE",
"228 318 OFFCURVE",
"228 278 CURVE SMOOTH",
"228 273 LINE",
"157 228 OFFCURVE",
"58 176 OFFCURVE",
"32 135 CURVE",
"7 75 OFFCURVE",
"49 -10 OFFCURVE",
"109 -10 CURVE SMOOTH"
);
},
{
closed = 1;
nodes = (
"128 75 OFFCURVE",
"101 93 OFFCURVE",
"101 133 CURVE SMOOTH",
"101 188 OFFCURVE",
"186 231 OFFCURVE",
"228 233 CURVE",
"228 118 LINE",
"207 90 OFFCURVE",
"189 75 OFFCURVE",
"159 75 CURVE SMOOTH"
);
}
);
width = 392;
}
);
unicode = 0061;
},
{
color = 4;
glyphname = adieresis;
lastChange = "2020-02-04 05:58:36 +0000";
layers = (
{
layerId = "60B24473-AF85-4843-BA5D-A0A691C0B2A6";
paths = (
{
closed = 1;
nodes = (
"276 485 LINE",
"302 509 OFFCURVE",
"321 527 OFFCURVE",
"343 552 CURVE",
"341 556 LINE",
"265 544 LINE",
"224 480 LINE",
"226 478 LINE"
);
},
{
closed = 1;
nodes = (
"169 483 LINE",
"220 547 LINE",
"218 551 LINE",
"150 541 LINE",
"113 477 LINE",
"113 475 LINE"
);
},
{
closed = 1;
nodes = (
"147 -10 OFFCURVE",
"194 55 OFFCURVE",
"226 82 CURVE",
"232 53 OFFCURVE",
"259 -10 OFFCURVE",
"299 -10 CURVE",
"319 1 OFFCURVE",
"370 48 OFFCURVE",
"387 72 CURVE",
"382 82 LINE",
"376 78 OFFCURVE",
"366 75 OFFCURVE",
"355 75 CURVE SMOOTH",
"333 75 OFFCURVE",
"308 83 OFFCURVE",
"308 111 CURVE SMOOTH",
"308 310 LINE SMOOTH",
"308 370 OFFCURVE",
"275 410 OFFCURVE",
"215 410 CURVE SMOOTH",
"173 410 OFFCURVE",
"79 351 OFFCURVE",
"48 337 CURVE",
"56 322 LINE",
"100 340 OFFCURVE",
"134 350 OFFCURVE",
"165 350 CURVE SMOOTH",
"205 350 OFFCURVE",
"228 318 OFFCURVE",
"228 278 CURVE SMOOTH",
"228 273 LINE",
"157 228 OFFCURVE",
"58 176 OFFCURVE",
"32 135 CURVE",
"7 75 OFFCURVE",
"49 -10 OFFCURVE",
"109 -10 CURVE SMOOTH"
);
},
{
closed = 1;
nodes = (
"128 75 OFFCURVE",
"101 93 OFFCURVE",
"101 133 CURVE SMOOTH",
"101 188 OFFCURVE",
"186 231 OFFCURVE",
"228 233 CURVE",
"228 118 LINE",
"207 90 OFFCURVE",
"189 75 OFFCURVE",
"159 75 CURVE SMOOTH"
);
}
);
width = 392;
}
);
leftMetricsKey = a;
rightMetricsKey = a;
unicode = 00E4;
},
{
color = 4;
glyphname = b;
lastChange = "2020-01-30 12:50:56 +0000";
layers = (
{
layerId = "60B24473-AF85-4843-BA5D-A0A691C0B2A6";
paths = (
{
closed = 1;
nodes = (
"214 0 OFFCURVE",
"319 80 OFFCURVE",
"340 99 CURVE SMOOTH",
"369 125 OFFCURVE",
"391 168 OFFCURVE",
"391 225 CURVE SMOOTH",
"391 315 OFFCURVE",
"331 400 OFFCURVE",
"236 410 CURVE",
"115 325 LINE",
"120 451 OFFCURVE",
"117 629 OFFCURVE",
"128 705 CURVE",
"121 710 LINE",
"10 634 LINE",
"10 629 LINE",
"29 586 OFFCURVE",
"38 558 OFFCURVE",
"38 488 CURVE SMOOTH",
"38 95 LINE",
"71 39 OFFCURVE",
"150 -2 OFFCURVE",
"184 -10 CURVE"
);
},
{
closed = 1;
nodes = (
"193 60 OFFCURVE",
"115 118 OFFCURVE",
"115 170 CURVE SMOOTH",
"115 295 LINE",
"124 305 OFFCURVE",
"154 325 OFFCURVE",
"184 325 CURVE SMOOTH",
"259 325 OFFCURVE",
"311 260 OFFCURVE",
"311 185 CURVE SMOOTH",
"311 110 OFFCURVE",
"260 72 OFFCURVE",
"241 60 CURVE"
);
}
);
width = 411;
}
);
rightMetricsKey = o;
unicode = 0062;
},
{
color = 4;
glyphname = c;
lastChange = "2020-01-30 12:50:56 +0000";
layers = (
{
layerId = "60B24473-AF85-4843-BA5D-A0A691C0B2A6";
paths = (
{
closed = 1;
nodes = (
"163 6 OFFCURVE",
"232 57 OFFCURVE",
"267 85 CURVE",
"265 109 LINE",
"240 94 OFFCURVE",
"216 75 OFFCURVE",
"178 75 CURVE SMOOTH",
"110 75 OFFCURVE",
"100 159 OFFCURVE",
"100 220 CURVE SMOOTH",
"100 274 OFFCURVE",
"102 311 OFFCURVE",
"116 350 CURVE",
"134 349 OFFCURVE",
"181 327 OFFCURVE",
"212 295 CURVE",
"280 345 LINE",
"280 350 LINE",
"246 369 OFFCURVE",
"213 387 OFFCURVE",
"179 410 CURVE",
"145 394 OFFCURVE",
"69 357 OFFCURVE",
"39 325 CURVE",
"27 286 OFFCURVE",
"20 240 OFFCURVE",
"20 194 CURVE SMOOTH",
"20 70 OFFCURVE",
"65 10 OFFCURVE",
"116 -10 CURVE"
);
}
);
width = 285;
}
);
unicode = 0063;
},
{
color = 4;
glyphname = c_h;
lastChange = "2020-01-30 12:50:56 +0000";
layers = (
{
layerId = "60B24473-AF85-4843-BA5D-A0A691C0B2A6";
paths = (
{
closed = 1;
nodes = (
"565 -50 OFFCURVE",
"665 83 OFFCURVE",
"665 202 CURVE SMOOTH",
"665 317 OFFCURVE",
"575 390 OFFCURVE",
"484 410 CURVE",
"374 308 LINE",
"374 738 LINE",
"365 740 LINE",
"325 708 OFFCURVE",
"277 700 OFFCURVE",
"176 700 CURVE",
"101 624 LINE",
"110 615 LINE",
"155 629 OFFCURVE",
"213 629 OFFCURVE",
"293 630 CURVE",
"293 342 LINE",
"250 361 OFFCURVE",
"216 379 OFFCURVE",
"183 410 CURVE",
"179 410 LINE",
"29 293 LINE",
"26 255 OFFCURVE",
"31 160 OFFCURVE",
"31 114 CURVE SMOOTH",
"31 50 OFFCURVE",
"86 10 OFFCURVE",
"137 -10 CURVE",
"293 84 LINE",
"293 63 OFFCURVE",
"287 38 OFFCURVE",
"277 10 CURVE",
"277 0 LINE",
"390 0 LINE",
"390 10 LINE",
"379 41 OFFCURVE",
"374 63 OFFCURVE",
"374 103 CURVE SMOOTH",
"374 273 LINE",
"394 296 OFFCURVE",
"424 307 OFFCURVE",
"462 307 CURVE SMOOTH",
"542 307 OFFCURVE",
"600 232 OFFCURVE",
"600 152 CURVE SMOOTH",
"600 89 OFFCURVE",
"574 24 OFFCURVE",
"559 13 CURVE",
"544 8 OFFCURVE",
"518 5 OFFCURVE",
"497 5 CURVE",
"470 -70 LINE",
"474 -75 LINE"
);
},
{
closed = 1;
nodes = (
"119 75 OFFCURVE",
"101 141 OFFCURVE",
"101 202 CURVE SMOOTH",
"101 245 OFFCURVE",
"104 312 OFFCURVE",
"117 325 CURVE",
"142 309 OFFCURVE",
"192 274 OFFCURVE",
"214 276 CURVE",
"293 327 LINE",
"293 117 LINE",
"259 98 OFFCURVE",
"236 75 OFFCURVE",
"189 75 CURVE SMOOTH"
);
}
);
width = 685;
}
);
rightMetricsKey = h;
},
{
color = 4;
glyphname = c_k;
lastChange = "2020-01-30 12:50:56 +0000";
layers = (
{
layerId = "60B24473-AF85-4843-BA5D-A0A691C0B2A6";
paths = (
{
closed = 1;
nodes = (
"171 15 OFFCURVE",
"237 63 OFFCURVE",
"273 82 CURVE",
"273 60 LINE SMOOTH",
"273 50 OFFCURVE",
"263 30 OFFCURVE",
"243 15 CURVE",
"243 0 LINE",
"389 0 LINE",
"389 15 LINE",
"369 27 OFFCURVE",
"354 50 OFFCURVE",
"354 60 CURVE SMOOTH",
"354 184 LINE",
"404 203 OFFCURVE",
"469 -10 OFFCURVE",
"528 -10 CURVE",
"552 20 OFFCURVE",
"580 50 OFFCURVE",
"610 80 CURVE",
"602 95 LINE",
"543 52 OFFCURVE",
"470 212 OFFCURVE",
"443 227 CURVE",
"482 263 OFFCURVE",
"536 296 OFFCURVE",
"536 330 CURVE SMOOTH",
"536 366 OFFCURVE",
"488 410 OFFCURVE",
"446 410 CURVE",
"418 388 OFFCURVE",
"388 365 OFFCURVE",
"354 343 CURVE",
"354 743 LINE",
"347 747 LINE",
"289 699 OFFCURVE",
"278 701 OFFCURVE",
"156 691 CURVE",
"81 618 LINE",
"90 609 LINE",
"135 623 OFFCURVE",
"193 629 OFFCURVE",
"273 630 CURVE",
"273 359 LINE",
"245 369 OFFCURVE",
"217 385 OFFCURVE",
"189 410 CURVE",
"155 394 OFFCURVE",
"79 347 OFFCURVE",
"49 325 CURVE",
"37 286 OFFCURVE",
"30 240 OFFCURVE",
"30 194 CURVE SMOOTH",
"30 70 OFFCURVE",
"75 10 OFFCURVE",
"126 -10 CURVE"
);
},
{
closed = 1;
nodes = (
"120 85 OFFCURVE",
"110 159 OFFCURVE",
"110 220 CURVE SMOOTH",
"110 274 OFFCURVE",
"117 311 OFFCURVE",
"126 340 CURVE",
"144 339 OFFCURVE",
"171 327 OFFCURVE",
"202 295 CURVE",
"273 333 LINE",
"273 108 LINE",
"249 93 OFFCURVE",
"225 85 OFFCURVE",
"188 85 CURVE SMOOTH"
);
},
{
closed = 1;
nodes = (
"354 320 LINE",
"403 358 OFFCURVE",
"460 343 OFFCURVE",
"460 305 CURVE SMOOTH",
"460 286 OFFCURVE",
"445 241 OFFCURVE",
"354 201 CURVE"
);
}
);
width = 610;
}
);
rightMetricsKey = k;
},
{
color = 4;
glyphname = d;
lastChange = "2020-01-30 12:50:56 +0000";
layers = (
{
layerId = "60B24473-AF85-4843-BA5D-A0A691C0B2A6";
paths = (
{
closed = 1;
nodes = (
"204 26 OFFCURVE",
"250 57 OFFCURVE",
"295 83 CURVE",
"311 54 OFFCURVE",
"329 10 OFFCURVE",
"369 -10 CURVE",
"389 10 OFFCURVE",
"430 51 OFFCURVE",
"457 75 CURVE",
"452 85 LINE",
"420 79 OFFCURVE",
"378 99 OFFCURVE",
"378 131 CURVE SMOOTH",
"378 440 LINE SMOOTH",
"378 503 OFFCURVE",
"381 649 OFFCURVE",
"388 707 CURVE",
"380 708 LINE",
"232 627 LINE",
"232 617 LINE",
"284 620 OFFCURVE",
"302 617 OFFCURVE",
"301 565 CURVE SMOOTH",
"298 410 LINE",
"92 318 LINE",
"50 293 OFFCURVE",
"20 228 OFFCURVE",
"20 163 CURVE SMOOTH",
"20 83 OFFCURVE",
"65 13 OFFCURVE",
"159 -10 CURVE"
);
},
{
closed = 1;
nodes = (
"139 72 OFFCURVE",
"100 129 OFFCURVE",
"100 199 CURVE SMOOTH",
"100 303 OFFCURVE",
"180 341 OFFCURVE",
"221 341 CURVE SMOOTH",
"256 341 OFFCURVE",
"284 321 OFFCURVE",
"302 297 CURVE",
"302 150 LINE SMOOTH",
"302 113 OFFCURVE",
"254 72 OFFCURVE",
"209 72 CURVE SMOOTH"
);
}
);
width = 462;
}
);
leftMetricsKey = o;
rightMetricsKey = a;
unicode = 0064;
},
{
color = 4;
glyphname = e;
lastChange = "2020-01-30 12:50:56 +0000";
layers = (
{
layerId = "60B24473-AF85-4843-BA5D-A0A691C0B2A6";
paths = (
{
closed = 1;
nodes = (
"204 10 OFFCURVE",
"235 28 OFFCURVE",
"277 60 CURVE",
"272 75 LINE",
"211 55 OFFCURVE",
"139 74 OFFCURVE",
"117 146 CURVE",
"173 198 OFFCURVE",
"279 264 OFFCURVE",
"279 325 CURVE SMOOTH",
"279 377 OFFCURVE",
"216 410 OFFCURVE",
"186 410 CURVE",
"135 391 OFFCURVE",
"84 362 OFFCURVE",
"33 325 CURVE",
"-8 159 OFFCURVE",
"53 -10 OFFCURVE",
"164 -10 CURVE"
);
},
{
closed = 1;
nodes = (
"94 223 OFFCURVE",
"84 310 OFFCURVE",
"126 350 CURVE",
"156 351 OFFCURVE",
"199 322 OFFCURVE",
"199 282 CURVE SMOOTH",
"199 245 OFFCURVE",
"121 179 OFFCURVE",
"107 169 CURVE"
);
}
);
width = 299;
}
);
unicode = 0065;
},
{
color = 4;
glyphname = f;
lastChange = "2020-01-30 12:50:56 +0000";
layers = (
{
layerId = "60B24473-AF85-4843-BA5D-A0A691C0B2A6";
paths = (
{
closed = 1;
nodes = (
"189 0 LINE",
"189 10 LINE",
"169 32 OFFCURVE",
"154 45 OFFCURVE",
"154 75 CURVE SMOOTH",
"154 325 LINE",
"262 325 LINE",
"262 390 LINE",
"152 390 LINE",
"152 650 LINE",
"185 650 OFFCURVE",
"236 623 OFFCURVE",
"264 596 CURVE",
"325 662 LINE",
"325 665 LINE",
"287 695 OFFCURVE",
"253 710 OFFCURVE",
"216 710 CURVE SMOOTH",
"203 710 OFFCURVE",
"75 624 OFFCURVE",
"75 614 CURVE SMOOTH",
"75 383 LINE",
"30 330 LINE",
"32 325 LINE",
"74 325 LINE",
"74 75 LINE SMOOTH",
"74 45 OFFCURVE",
"64 35 OFFCURVE",
"44 10 CURVE",
"44 0 LINE"
);
}
);
width = 255;
}
);
unicode = 0066;
},
{
color = 4;
glyphname = f_f;
lastChange = "2020-01-30 12:50:56 +0000";
layers = (
{
layerId = "60B24473-AF85-4843-BA5D-A0A691C0B2A6";
paths = (
{
closed = 1;
nodes = (
"169 0 LINE",
"169 10 LINE",
"149 32 OFFCURVE",
"144 44 OFFCURVE",
"144 84 CURVE SMOOTH",
"144 301 LINE",
"282 301 LINE",
"282 84 LINE SMOOTH",
"282 44 OFFCURVE",
"272 35 OFFCURVE",
"262 10 CURVE",
"262 0 LINE",
"386 0 LINE",
"386 10 LINE",
"376 32 OFFCURVE",
"362 44 OFFCURVE",
"362 84 CURVE SMOOTH",
"362 301 LINE",
"490 301 LINE",
"490 366 LINE",
"360 366 LINE",
"360 650 LINE",
"413 660 OFFCURVE",
"454 623 OFFCURVE",
"472 596 CURVE",
"553 653 LINE",
"553 656 LINE",
"523 696 OFFCURVE",
"461 710 OFFCURVE",
"424 710 CURVE SMOOTH",
"418 710 OFFCURVE",
"385 690 OFFCURVE",
"353 669 CURVE",
"312 700 OFFCURVE",
"245 717 OFFCURVE",
"212 710 CURVE",
"199 710 OFFCURVE",
"65 654 OFFCURVE",
"65 644 CURVE SMOOTH",
"65 359 LINE",
"30 306 LINE",
"32 301 LINE",
"64 301 LINE",
"64 84 LINE SMOOTH",
"64 44 OFFCURVE",
"57 35 OFFCURVE",
"47 10 CURVE",
"47 0 LINE"
);
},
{
closed = 1;
nodes = (
"142 661 LINE",
"172 675 OFFCURVE",
"247 653 OFFCURVE",
"283 614 CURVE",
"283 366 LINE",
"142 366 LINE"
);
}
);
width = 483;
}
);
leftMetricsKey = f;
rightMetricsKey = f;
},
{
color = 4;
glyphname = f_f_l;
lastChange = "2020-02-04 06:25:16 +0000";
layers = (
{
layerId = "60B24473-AF85-4843-BA5D-A0A691C0B2A6";
paths = (
{
closed = 1;
nodes = (
"657 60 LINE",
"657 70 LINE",
"627 70 OFFCURVE",
"572 80 OFFCURVE",
"570 130 CURVE SMOOTH",
"564 321 OFFCURVE",
"559 660 OFFCURVE",
"579 704 CURVE",
"572 710 LINE",
"523 680 LINE",
"492 698 OFFCURVE",
"437 710 OFFCURVE",
"411 710 CURVE SMOOTH",
"403 710 OFFCURVE",
"370 677 OFFCURVE",
"332 649 CURVE",
"307 686 OFFCURVE",
"262 710 OFFCURVE",
"196 710 CURVE SMOOTH",
"183 710 OFFCURVE",
"75 624 OFFCURVE",
"75 614 CURVE SMOOTH",
"75 359 LINE",
"30 306 LINE",
"32 301 LINE",
"74 301 LINE",
"74 60 LINE SMOOTH",
"74 40 OFFCURVE",
"64 25 OFFCURVE",
"54 10 CURVE",
"54 0 LINE",
"189 0 LINE",
"189 10 LINE",
"159 32 OFFCURVE",
"154 40 OFFCURVE",
"154 60 CURVE SMOOTH",
"154 301 LINE",
"289 300 LINE",
"289 60 LINE SMOOTH",
"289 30 OFFCURVE",
"279 25 OFFCURVE",
"269 10 CURVE",
"269 0 LINE",
"424 0 LINE",
"424 10 LINE",
"375 36 OFFCURVE",
"369 34 OFFCURVE",
"369 60 CURVE SMOOTH",
"369 301 LINE",
"457 298 LINE",
"457 366 LINE",
"367 366 LINE",
"367 650 LINE",
"399 650 OFFCURVE",
"458 623 OFFCURVE",
"487 597 CURVE",
"487 94 LINE SMOOTH",
"487 44 OFFCURVE",
"512 23 OFFCURVE",
"567 -10 CURVE"
);
},
{
closed = 1;
nodes = (
"152 650 LINE",
"215 650 OFFCURVE",
"271 624 OFFCURVE",
"290 571 CURVE",
"290 366 LINE",
"152 366 LINE"
);
}
);
width = 652;
}
);
leftMetricsKey = f;
rightMetricsKey = l;
},
{
color = 4;
glyphname = f_i;
lastChange = "2020-02-04 06:25:16 +0000";
layers = (
{
layerId = "60B24473-AF85-4843-BA5D-A0A691C0B2A6";
paths = (
{
closed = 1;
nodes = (
"428 60 LINE",
"428 75 LINE",
"412 75 OFFCURVE",
"365 97 OFFCURVE",
"365 154 CURVE SMOOTH",
"365 410 LINE",
"357 414 LINE",
"333 394 OFFCURVE",
"309 378 OFFCURVE",
"287 366 CURVE",
"152 366 LINE",
"152 650 LINE",
"185 650 OFFCURVE",
"256 615 OFFCURVE",
"284 586 CURVE",
"365 643 LINE",
"365 646 LINE",
"327 676 OFFCURVE",
"253 710 OFFCURVE",
"216 710 CURVE SMOOTH",
"203 710 OFFCURVE",
"123 662 OFFCURVE",
"75 633 CURVE",
"75 359 LINE",
"30 306 LINE",
"32 301 LINE",
"74 301 LINE",
"74 75 LINE SMOOTH",
"74 45 OFFCURVE",
"64 27 OFFCURVE",
"44 10 CURVE",
"44 0 LINE",
"189 0 LINE",
"189 10 LINE",
"161 32 OFFCURVE",
"154 45 OFFCURVE",
"154 75 CURVE SMOOTH",
"154 301 LINE",
"285 301 LINE",
"291 278 OFFCURVE",
"285 150 OFFCURVE",
"285 74 CURVE SMOOTH",
"285 46 OFFCURVE",
"337 -10 OFFCURVE",
"368 -10 CURVE"
);
}
);
width = 433;
}
);
leftMetricsKey = f;
rightMetricsKey = i;
},
{
color = 4;
glyphname = f_l;
lastChange = "2020-02-04 06:25:16 +0000";
layers = (
{
layerId = "60B24473-AF85-4843-BA5D-A0A691C0B2A6";
paths = (
{
closed = 1;
nodes = (
"397 9 OFFCURVE",
"414 28 OFFCURVE",
"441 46 CURVE",
"441 56 LINE",
"384 59 OFFCURVE",
"366 115 OFFCURVE",
"364 182 CURVE SMOOTH",
"362 260 OFFCURVE",
"368 633 OFFCURVE",
"375 700 CURVE",
"365 704 LINE",
"349 692 OFFCURVE",
"326 682 OFFCURVE",
"304 672 CURVE",
"272 690 OFFCURVE",
"234 705 OFFCURVE",
"188 705 CURVE",
"72 646 LINE",
"72 359 LINE",
"30 308 LINE",
"30 301 LINE",
"71 301 LINE",
"71 83 LINE SMOOTH",
"71 39 OFFCURVE",
"64 29 OFFCURVE",
"48 10 CURVE",
"48 0 LINE",
"178 0 LINE",
"178 10 LINE",
"157 30 OFFCURVE",
"151 40 OFFCURVE",
"151 83 CURVE SMOOTH",
"151 301 LINE",
"246 301 LINE",
"249 365 LINE",
"149 365 LINE",
"149 644 LINE",
"224 649 OFFCURVE",
"264 596 OFFCURVE",
"284 575 CURVE",
"284 402 OFFCURVE",
"285 112 OFFCURVE",
"284 85 CURVE SMOOTH",
"283 45 OFFCURVE",
"317 6 OFFCURVE",
"366 -8 CURVE"
);
}
);
width = 436;
}
);
leftMetricsKey = f;
rightMetricsKey = l;
},
{
color = 4;
glyphname = g;
lastChange = "2020-02-04 06:10:52 +0000";
layers = (
{
layerId = "60B24473-AF85-4843-BA5D-A0A691C0B2A6";
paths = (
{
closed = 1;
nodes = (
"307 -185 OFFCURVE",
"390 -109 OFFCURVE",
"390 -39 CURVE SMOOTH",
"390 37 OFFCURVE",
"312 142 OFFCURVE",
"312 210 CURVE SMOOTH",
"312 257 OFFCURVE",
"359 291 OFFCURVE",
"372 299 CURVE",
"436 281 LINE",
"434 311 OFFCURVE",
"434 342 OFFCURVE",
"434 372 CURVE",
"364 383 OFFCURVE",
"285 402 OFFCURVE",
"244 410 CURVE",
"225 400 OFFCURVE",
"115 348 OFFCURVE",
"107 339 CURVE SMOOTH",
"74 302 OFFCURVE",
"37 250 OFFCURVE",
"37 187 CURVE SMOOTH",
"37 142 OFFCURVE",
"58 95 OFFCURVE",
"103 62 CURVE",
"20 -20 LINE",
"48 -113 OFFCURVE",
"139 -185 OFFCURVE",
"225 -185 CURVE SMOOTH"
);
},
{
closed = 1;
nodes = (
"192 -150 OFFCURVE",
"108 -63 OFFCURVE",
"108 13 CURVE SMOOTH",
"108 38 OFFCURVE",
"122 66 OFFCURVE",
"227 139 CURVE",
"257 71 OFFCURVE",
"307 -5 OFFCURVE",
"307 -76 CURVE SMOOTH",
"307 -116 OFFCURVE",
"295 -150 OFFCURVE",
"249 -150 CURVE SMOOTH"
);
},
{
closed = 1;
nodes = (
"142 162 OFFCURVE",
"104 184 OFFCURVE",
"104 243 CURVE SMOOTH",
"104 291 OFFCURVE",
"133 329 OFFCURVE",
"154 343 CURVE",
"191 343 OFFCURVE",
"274 326 OFFCURVE",
"329 307 CURVE",
"301 273 OFFCURVE",
"241 190 OFFCURVE",
"238 179 CURVE",
"223 165 OFFCURVE",
"210 162 OFFCURVE",
"187 162 CURVE SMOOTH"
);
}
);
width = 441;
}
);
unicode = 0067;
},
{
color = 4;
glyphname = h;
lastChange = "2020-01-30 12:50:56 +0000";
layers = (
{
layerId = "60B24473-AF85-4843-BA5D-A0A691C0B2A6";
paths = (
{
closed = 1;
nodes = (
"330 -19 OFFCURVE",
"414 58 OFFCURVE",
"414 202 CURVE SMOOTH",
"414 317 OFFCURVE",
"343 380 OFFCURVE",
"252 410 CURVE",
"123 309 LINE",
"123 705 LINE",
"117 710 LINE",
"23 644 LINE",
"23 639 LINE",
"41 585 OFFCURVE",
"42 504 OFFCURVE",
"42 440 CURVE SMOOTH",
"42 125 LINE SMOOTH",
"42 45 OFFCURVE",
"32 34 OFFCURVE",
"20 10 CURVE",
"20 0 LINE",
"148 0 LINE",
"148 10 LINE",
"134 31 OFFCURVE",
"122 45 OFFCURVE",
"122 85 CURVE SMOOTH",
"122 280 LINE",
"142 295 OFFCURVE",
"172 310 OFFCURVE",
"211 310 CURVE SMOOTH",
"291 310 OFFCURVE",
"359 252 OFFCURVE",
"359 152 CURVE SMOOTH",
"359 89 OFFCURVE",
"335 41 OFFCURVE",
"312 20 CURVE",
"297 9 OFFCURVE",
"234 3 OFFCURVE",
"213 7 CURVE",
"186 -60 LINE",
"190 -65 LINE"
);
}
);
width = 434;
}
);
rightMetricsKey = o;
unicode = 0068;
},
{
color = 4;
glyphname = i;
lastChange = "2020-02-04 06:11:46 +0000";
layers = (
{
layerId = "60B24473-AF85-4843-BA5D-A0A691C0B2A6";
paths = (
{
closed = 1;
nodes = (
"154 16 OFFCURVE",
"184 38 OFFCURVE",
"214 56 CURVE",
"214 66 LINE",
"169 66 OFFCURVE",
"151 73 OFFCURVE",
"151 106 CURVE SMOOTH",
"151 330 LINE SMOOTH",
"151 376 OFFCURVE",
"120 410 OFFCURVE",
"94 410 CURVE",
"15 330 LINE",
"16 320 LINE",
"46 330 OFFCURVE",
"71 315 OFFCURVE",
"71 269 CURVE SMOOTH",
"71 65 LINE SMOOTH",
"71 27 OFFCURVE",
"97 -3 OFFCURVE",
"124 -10 CURVE"
);
},
{
closed = 1;
nodes = (
"128 551 LINE",
"170 685 LINE",
"112 676 LINE",
"86 544 LINE"
);
}
);
width = 219;
}
);
unicode = 0069;
},
{
color = 4;
glyphname = j;
lastChange = "2020-02-04 06:12:09 +0000";
layers = (
{
layerId = "60B24473-AF85-4843-BA5D-A0A691C0B2A6";
paths = (
{
closed = 1;
nodes = (
"105 -211 OFFCURVE",
"158 -138 OFFCURVE",
"158 -5 CURVE SMOOTH",
"158 403 LINE",
"148 410 LINE",
"9 316 LINE",
"9 306 LINE",
"59 312 OFFCURVE",
"78 294 OFFCURVE",
"78 244 CURVE SMOOTH",
"78 -9 LINE SMOOTH",
"78 -112 OFFCURVE",
"58 -200 OFFCURVE",
"5 -235 CURVE",
"7 -257 LINE"
);
},
{
closed = 1;
nodes = (
"147 565 LINE",
"176 684 LINE",
"107 667 LINE",
"91 555 LINE"
);
}
);
width = 206;
}
);
unicode = 006A;
},
{
color = 4;
glyphname = k;
lastChange = "2020-01-30 12:50:56 +0000";
layers = (
{
layerId = "60B24473-AF85-4843-BA5D-A0A691C0B2A6";
paths = (
{
closed = 1;
nodes = (
"300 1 OFFCURVE",
"335 19 OFFCURVE",
"360 41 CURVE",
"357 51 LINE",
"305 39 OFFCURVE",
"273 198 OFFCURVE",
"227 231 CURVE",
"255 253 OFFCURVE",
"283 266 OFFCURVE",
"311 288 CURVE",
"313 324 OFFCURVE",
"271 401 OFFCURVE",
"247 410 CURVE",
"135 325 LINE",
"135 706 LINE",
"128 710 LINE",
"20 648 LINE",
"21 638 LINE",
"51 598 OFFCURVE",
"54 584 OFFCURVE",
"54 509 CURVE SMOOTH",
"54 85 LINE SMOOTH",
"54 45 OFFCURVE",
"46 22 OFFCURVE",
"39 10 CURVE",
"39 0 LINE",
"169 0 LINE",
"169 10 LINE",
"143 32 OFFCURVE",
"134 45 OFFCURVE",
"134 85 CURVE SMOOTH",
"134 190 LINE",
"195 189 OFFCURVE",
"219 52 OFFCURVE",
"259 -10 CURVE"
);
},
{
closed = 1;
nodes = (
"136 306 LINE",
"185 340 OFFCURVE",
"225 325 OFFCURVE",
"225 285 CURVE SMOOTH",
"225 256 OFFCURVE",
"187 223 OFFCURVE",
"136 207 CURVE"
);
}
);
width = 360;
}
);
leftMetricsKey = h;
unicode = 006B;
},
{
color = 4;
glyphname = l;
lastChange = "2020-02-04 06:11:23 +0000";
layers = (
{
layerId = "60B24473-AF85-4843-BA5D-A0A691C0B2A6";
paths = (
{
closed = 1;
nodes = (
"152 7 OFFCURVE",
"172 22 OFFCURVE",
"212 51 CURVE",
"212 66 LINE",
"162 71 OFFCURVE",
"136 78 OFFCURVE",
"134 141 CURVE SMOOTH",
"131 242 OFFCURVE",
"135 515 OFFCURVE",
"138 706 CURVE",
"131 710 LINE",
"20 638 LINE",
"22 628 LINE",
"52 616 OFFCURVE",
"56 603 OFFCURVE",
"56 563 CURVE SMOOTH",
"52 94 LINE SMOOTH",
"52 44 OFFCURVE",
"77 4 OFFCURVE",
"132 -10 CURVE"
);
}
);
width = 207;
}
);
unicode = 006C;
},
{
color = 4;
glyphname = m;
lastChange = "2020-02-04 06:12:38 +0000";
layers = (
{
layerId = "60B24473-AF85-4843-BA5D-A0A691C0B2A6";
paths = (
{
closed = 1;
nodes = (
"185 0 LINE",
"185 10 LINE",
"165 34 OFFCURVE",
"155 37 OFFCURVE",
"155 70 CURVE SMOOTH",
"155 298 LINE",
"172 313 OFFCURVE",
"192 330 OFFCURVE",
"218 330 CURVE SMOOTH",
"248 330 OFFCURVE",
"275 311 OFFCURVE",
"275 271 CURVE SMOOTH",
"275 65 LINE SMOOTH",
"275 38 OFFCURVE",
"269 35 OFFCURVE",
"249 10 CURVE",
"249 0 LINE",
"386 0 LINE",
"386 10 LINE",
"366 32 OFFCURVE",
"355 38 OFFCURVE",
"355 65 CURVE SMOOTH",
"355 293 LINE",
"372 317 OFFCURVE",
"399 330 OFFCURVE",
"420 330 CURVE SMOOTH",
"449 330 OFFCURVE",
"475 310 OFFCURVE",
"475 270 CURVE SMOOTH",
"475 75 LINE SMOOTH",
"475 48 OFFCURVE",
"470 34 OFFCURVE",
"455 10 CURVE",
"455 0 LINE",
"580 0 LINE",
"580 10 LINE",
"560 36 OFFCURVE",
"555 48 OFFCURVE",
"555 75 CURVE SMOOTH",
"555 315 LINE SMOOTH",
"555 365 OFFCURVE",
"490 410 OFFCURVE",
"460 410 CURVE",
"354 326 LINE",
"348 371 OFFCURVE",
"294 410 OFFCURVE",
"266 410 CURVE",
"155 325 LINE",
"155 327 LINE SMOOTH",
"155 355 OFFCURVE",
"115 400 OFFCURVE",
"95 410 CURVE",
"5 340 LINE",
"5 325 LINE",
"45 325 OFFCURVE",
"75 311 OFFCURVE",
"75 280 CURVE SMOOTH",
"75 70 LINE SMOOTH",
"75 37 OFFCURVE",
"70 37 OFFCURVE",
"50 10 CURVE",
"50 0 LINE"
);
}
);
width = 600;
}
);
rightMetricsKey = n;
unicode = 006D;
},
{
color = 4;
glyphname = n;
lastChange = "2020-01-30 12:50:56 +0000";
layers = (
{
layerId = "60B24473-AF85-4843-BA5D-A0A691C0B2A6";
paths = (
{
closed = 1;
nodes = (
"182 0 LINE",
"182 10 LINE",
"162 32 OFFCURVE",
"152 44 OFFCURVE",
"152 74 CURVE SMOOTH",
"152 291 LINE",
"167 307 OFFCURVE",
"189 326 OFFCURVE",
"219 326 CURVE SMOOTH",
"249 326 OFFCURVE",
"280 311 OFFCURVE",
"280 271 CURVE SMOOTH",
"280 74 LINE SMOOTH",
"280 44 OFFCURVE",
"270 31 OFFCURVE",
"250 10 CURVE",
"250 0 LINE",
"390 0 LINE",
"390 10 LINE",
"370 33 OFFCURVE",
"360 44 OFFCURVE",
"360 74 CURVE SMOOTH",
"360 305 LINE SMOOTH",
"360 365 OFFCURVE",
"316 410 OFFCURVE",
"266 410 CURVE",
"229 378 OFFCURVE",
"192 349 OFFCURVE",
"155 325 CURVE",
"154 372 OFFCURVE",
"117 396 OFFCURVE",
"93 410 CURVE",
"20 345 LINE",
"20 335 LINE",
"60 315 OFFCURVE",
"72 301 OFFCURVE",
"72 260 CURVE SMOOTH",
"72 74 LINE SMOOTH",
"72 44 OFFCURVE",
"62 32 OFFCURVE",
"42 10 CURVE",
"42 0 LINE"
);
}
);
width = 410;
}
);
unicode = 006E;
},
{
color = 4;
glyphname = o;
lastChange = "2020-01-30 12:50:56 +0000";
layers = (
{
layerId = "60B24473-AF85-4843-BA5D-A0A691C0B2A6";
paths = (
{
closed = 1;
nodes = (
"213 -1 OFFCURVE",
"299 66 OFFCURVE",
"307 75 CURVE SMOOTH",
"332 103 OFFCURVE",
"362 153 OFFCURVE",
"362 218 CURVE SMOOTH",
"362 318 OFFCURVE",
"290 401 OFFCURVE",
"200 410 CURVE",
"190 410 OFFCURVE",
"90 335 OFFCURVE",
"79 325 CURVE SMOOTH",
"52 301 OFFCURVE",
"20 247 OFFCURVE",
"20 182 CURVE SMOOTH",
"20 82 OFFCURVE",
"95 -1 OFFCURVE",
"185 -10 CURVE"
);
},
{
closed = 1;
nodes = (
"167 65 OFFCURVE",
"95 137 OFFCURVE",
"95 217 CURVE SMOOTH",
"95 257 OFFCURVE",
"110 305 OFFCURVE",
"137 335 CURVE",
"217 335 OFFCURVE",
"287 263 OFFCURVE",
"287 183 CURVE SMOOTH",
"287 133 OFFCURVE",
"272 96 OFFCURVE",
"247 65 CURVE"
);
}
);
width = 382;
}
);
unicode = 006F;
},
{
color = 4;
glyphname = odieresis;
lastChange = "2020-01-30 12:50:56 +0000";
layers = (
{
layerId = "60B24473-AF85-4843-BA5D-A0A691C0B2A6";
paths = (
{
closed = 1;
nodes = (
"154 513 LINE",
"206 590 LINE",
"204 594 LINE",
"136 584 LINE",
"89 505 LINE",
"89 503 LINE"
);
},
{
closed = 1;
nodes = (
"286 523 LINE",
"336 590 LINE",
"334 594 LINE",
"265 586 LINE",
"219 515 LINE",
"219 513 LINE"
);
},
{
closed = 1;
nodes = (
"213 -1 OFFCURVE",
"299 66 OFFCURVE",
"307 75 CURVE SMOOTH",
"332 103 OFFCURVE",
"362 153 OFFCURVE",
"362 218 CURVE SMOOTH",
"362 318 OFFCURVE",
"290 401 OFFCURVE",
"200 410 CURVE",
"190 410 OFFCURVE",
"90 335 OFFCURVE",
"79 325 CURVE SMOOTH",
"52 301 OFFCURVE",
"20 247 OFFCURVE",
"20 182 CURVE SMOOTH",
"20 82 OFFCURVE",
"95 -1 OFFCURVE",
"185 -10 CURVE"
);
},
{
closed = 1;
nodes = (
"167 65 OFFCURVE",
"95 137 OFFCURVE",
"95 217 CURVE SMOOTH",
"95 257 OFFCURVE",
"110 305 OFFCURVE",
"137 335 CURVE",
"217 335 OFFCURVE",
"287 263 OFFCURVE",
"287 183 CURVE SMOOTH",
"287 133 OFFCURVE",
"272 96 OFFCURVE",
"247 65 CURVE"
);
}
);
width = 382;
}
);
leftMetricsKey = o;
rightMetricsKey = o;
unicode = 00F6;
},
{
color = 4;
glyphname = p;
lastChange = "2020-01-30 12:50:56 +0000";
layers = (
{
layerId = "60B24473-AF85-4843-BA5D-A0A691C0B2A6";
paths = (
{
closed = 1;
nodes = (
"121 -233 OFFCURVE",
"156 -210 OFFCURVE",
"205 -183 CURVE",
"206 -173 LINE",
"173 -170 OFFCURVE",
"157 -161 OFFCURVE",
"156 -137 CURVE SMOOTH",
"150 4 LINE",
"177 -5 OFFCURVE",
"219 -10 OFFCURVE",
"241 -10 CURVE",
"275 0 OFFCURVE",
"367 75 OFFCURVE",
"384 97 CURVE SMOOTH",
"407 125 OFFCURVE",
"424 178 OFFCURVE",
"424 225 CURVE SMOOTH",
"424 315 OFFCURVE",
"351 410 OFFCURVE",
"254 410 CURVE",
"219 377 OFFCURVE",
"185 349 OFFCURVE",
"150 324 CURVE",
"150 422 LINE",
"144 425 LINE",
"23 340 LINE",
"23 325 LINE",
"55 328 OFFCURVE",
"74 309 OFFCURVE",
"74 269 CURVE SMOOTH",
"74 122 LINE",
"15 91 LINE",
"15 87 LINE",
"35 77 OFFCURVE",
"54 62 OFFCURVE",
"74 40 CURVE",
"70 -258 LINE",
"81 -262 LINE"
);
},
{
closed = 1;
nodes = (
"297 46 LINE",
"296 45 OFFCURVE",
"295 45 OFFCURVE",
"294 45 CURVE"
);
},
{
closed = 1;
nodes = (
"221 41 OFFCURVE",
"172 68 OFFCURVE",
"150 91 CURVE",
"150 295 LINE",
"165 305 OFFCURVE",
"202 315 OFFCURVE",
"232 315 CURVE SMOOTH",
"299 315 OFFCURVE",
"362 260 OFFCURVE",
"362 175 CURVE SMOOTH",
"362 109 OFFCURVE",
"314 62 OFFCURVE",
"270 42 CURVE"
);
}
);
width = 444;
}
);
rightMetricsKey = o;
unicode = 0070;
},
{
color = 4;
glyphname = q;
lastChange = "2020-02-04 06:12:50 +0000";
layers = (
{
layerId = "60B24473-AF85-4843-BA5D-A0A691C0B2A6";
paths = (
{
closed = 1;
nodes = (
"358 -250 LINE",
"352 156 OFFCURVE",
"352 247 OFFCURVE",
"355 403 CURVE",
"350 406 LINE",
"306 384 LINE",
"218 410 LINE",
"105 315 LINE SMOOTH",
"36 257 OFFCURVE",
"20 198 OFFCURVE",
"20 141 CURVE SMOOTH",
"20 63 OFFCURVE",
"81 10 OFFCURVE",
"150 -10 CURVE",
"274 72 LINE",
"270 -250 LINE"
);
},
{
closed = 1;
nodes = (
"141 75 OFFCURVE",
"97 121 OFFCURVE",
"97 181 CURVE SMOOTH",
"97 241 OFFCURVE",
"122 296 OFFCURVE",
"160 325 CURVE",
"194 325 OFFCURVE",
"252 303 OFFCURVE",
"276 284 CURVE",
"274 107 LINE",
"256 91 OFFCURVE",
"234 75 OFFCURVE",
"201 75 CURVE SMOOTH"
);
}
);
width = 388;
}
);
leftMetricsKey = o;
unicode = 0071;
},
{
color = 4;
glyphname = r;
lastChange = "2020-02-04 06:12:59 +0000";
layers = (
{
layerId = "60B24473-AF85-4843-BA5D-A0A691C0B2A6";
paths = (
{
closed = 1;
nodes = (
"189 0 LINE",
"189 10 LINE",
"160 29 OFFCURVE",
"154 52 OFFCURVE",
"154 72 CURVE SMOOTH",
"154 156 OFFCURVE",
"155 290 OFFCURVE",
"151 324 CURVE",
"169 335 OFFCURVE",
"203 291 OFFCURVE",
"213 285 CURVE",
"274 356 LINE",
"204 411 LINE",
"148 348 LINE",
"144 373 OFFCURVE",
"106 403 OFFCURVE",
"74 410 CURVE",
"20 345 LINE",
"20 335 LINE",
"56 335 OFFCURVE",
"72 302 OFFCURVE",
"72 261 CURVE SMOOTH",
"72 72 LINE SMOOTH",
"72 52 OFFCURVE",
"68 31 OFFCURVE",
"42 10 CURVE",
"42 0 LINE"
);
}
);
width = 274;
}
);
leftMetricsKey = n;
unicode = 0072;
},
{
color = 4;
glyphname = s;
lastChange = "2020-02-04 06:13:28 +0000";
layers = (
{
layerId = "60B24473-AF85-4843-BA5D-A0A691C0B2A6";
paths = (
{
closed = 1;
nodes = (
"170 -10 OFFCURVE",
"273 49 OFFCURVE",
"273 114 CURVE SMOOTH",
"273 157 OFFCURVE",
"235 196 OFFCURVE",
"185 233 CURVE SMOOTH",
"129 275 OFFCURVE",
"91 317 OFFCURVE",
"123 347 CURVE",
"150 342 OFFCURVE",
"173 314 OFFCURVE",
"200 303 CURVE",
"262 356 LINE",
"262 361 LINE",
"246 365 OFFCURVE",
"205 386 OFFCURVE",
"176 410 CURVE",
"173 410 LINE",
"150 400 OFFCURVE",
"38 323 OFFCURVE",
"38 281 CURVE SMOOTH",
"38 248 OFFCURVE",
"73 211 OFFCURVE",
"121 175 CURVE SMOOTH",
"162 144 OFFCURVE",
"214 106 OFFCURVE",
"214 74 CURVE SMOOTH",
"214 54 OFFCURVE",
"202 39 OFFCURVE",
"182 39 CURVE SMOOTH",
"155 39 OFFCURVE",
"100 82 OFFCURVE",
"81 115 CURVE",
"57 95 OFFCURVE",
"34 78 OFFCURVE",
"10 64 CURVE",
"42 28 OFFCURVE",
"97 -10 OFFCURVE",
"137 -10 CURVE SMOOTH"
);
}
);
width = 288;
}
);
unicode = 0073;
},
{
color = 4;
glyphname = germandbls;
lastChange = "2020-01-30 12:50:56 +0000";
layers = (
{
layerId = "60B24473-AF85-4843-BA5D-A0A691C0B2A6";
paths = (
{
closed = 1;
nodes = (
"202 -223 OFFCURVE",
"263 -188 OFFCURVE",
"286 -167 CURVE SMOOTH",
"303 -152 OFFCURVE",
"355 -80 OFFCURVE",
"355 15 CURVE SMOOTH",
"355 122 OFFCURVE",
"316 188 OFFCURVE",
"231 217 CURVE",
"273 246 OFFCURVE",
"306 288 OFFCURVE",
"306 320 CURVE SMOOTH",
"306 371 OFFCURVE",
"224 410 OFFCURVE",
"204 410 CURVE",
"125 344 LINE",
"125 650 LINE",
"178 669 OFFCURVE",
"237 613 OFFCURVE",
"265 586 CURVE",
"329 643 LINE",
"329 646 LINE",
"298 686 OFFCURVE",
"234 710 OFFCURVE",
"187 710 CURVE SMOOTH",
"164 710 OFFCURVE",
"45 624 OFFCURVE",
"45 614 CURVE SMOOTH",
"45 140 LINE SMOOTH",
"45 50 OFFCURVE",
"39 29 OFFCURVE",
"20 10 CURVE",
"20 0 LINE",
"67 0 OFFCURVE",
"113 1 OFFCURVE",
"160 -3 CURVE",
"160 7 LINE",
"132 38 OFFCURVE",
"125 46 OFFCURVE",
"125 137 CURVE SMOOTH",
"125 151 LINE",
"197 186 OFFCURVE",
"287 78 OFFCURVE",
"287 -35 CURVE SMOOTH",
"287 -125 OFFCURVE",
"261 -153 OFFCURVE",
"245 -166 CURVE SMOOTH",
"236 -173 OFFCURVE",
"156 -171 OFFCURVE",
"112 -160 CURVE",
"64 -223 LINE"
);
},
{
closed = 1;
nodes = (
"125 325 LINE",
"194 354 OFFCURVE",
"226 306 OFFCURVE",
"226 275 CURVE SMOOTH",
"226 229 OFFCURVE",
"162 197 OFFCURVE",
"125 178 CURVE"
);
}
);
width = 355;
}
);
leftMetricsKey = l;
rightMetricsKey = k;
unicode = 00DF;
},
{
color = 4;
glyphname = germandbls.ss01;
lastChange = "2020-02-04 06:13:41 +0000";
layers = (
{
layerId = "60B24473-AF85-4843-BA5D-A0A691C0B2A6";
paths = (
{
closed = 1;
nodes = (
"238 -212 OFFCURVE",
"361 -122 OFFCURVE",
"361 30 CURVE SMOOTH",
"361 117 OFFCURVE",
"306 200 OFFCURVE",
"218 216 CURVE",
"377 370 LINE",
"378 380 LINE",
"130 380 LINE",
"130 650 LINE",
"193 650 OFFCURVE",
"242 613 OFFCURVE",
"270 586 CURVE",
"351 643 LINE",
"351 646 LINE",
"313 666 OFFCURVE",
"259 710 OFFCURVE",
"192 710 CURVE SMOOTH",
"179 710 OFFCURVE",
"77 648 OFFCURVE",
"50 634 CURVE",
"50 75 LINE SMOOTH",
"50 45 OFFCURVE",
"40 25 OFFCURVE",
"20 10 CURVE",
"20 0 LINE",
"174 0 LINE",
"174 10 LINE",
"145 22 OFFCURVE",
"130 45 OFFCURVE",
"130 75 CURVE SMOOTH",
"130 159 LINE",
"239 164 OFFCURVE",
"277 67 OFFCURVE",
"277 -17 CURVE SMOOTH",
"277 -70 OFFCURVE",
"258 -147 OFFCURVE",
"219 -172 CURVE",
"185 -172 OFFCURVE",
"150 -162 OFFCURVE",
"122 -136 CURVE",
"50 -188 LINE",
"84 -203 OFFCURVE",
"126 -212 OFFCURVE",
"163 -212 CURVE SMOOTH"
);
},
{
closed = 1;
nodes = (
"130 301 LINE",
"155 307 OFFCURVE",
"214 307 OFFCURVE",
"268 305 CURVE",
"130 174 LINE"
);
}
);
width = 388;
}
);
leftMetricsKey = n;
},
{
color = 4;
glyphname = t;
lastChange = "2020-02-04 06:13:55 +0000";
layers = (
{
layerId = "60B24473-AF85-4843-BA5D-A0A691C0B2A6";
paths = (
{
closed = 1;
nodes = (
"157 0 OFFCURVE",
"215 34 OFFCURVE",
"241 50 CURVE",
"236 65 LINE",
"157 65 OFFCURVE",
"136 80 OFFCURVE",
"136 143 CURVE SMOOTH",
"136 325 LINE",
"248 325 LINE",
"245 390 LINE",
"136 390 LINE",
"136 460 LINE",
"130 460 LINE",
"10 340 LINE",
"10 332 LINE",
"46 324 OFFCURVE",
"56 312 OFFCURVE",
"56 291 CURVE SMOOTH",
"56 80 LINE SMOOTH",
"56 30 OFFCURVE",
"87 9 OFFCURVE",
"132 -10 CURVE"
);
}
);
width = 253;
}
);
unicode = 0074;
},
{
color = 4;
glyphname = t_h;
lastChange = "2020-02-04 06:14:51 +0000";
layers = (
{
layerId = "60B24473-AF85-4843-BA5D-A0A691C0B2A6";
paths = (
{
closed = 1;
nodes = (
"592 -50 OFFCURVE",
"692 83 OFFCURVE",
"692 202 CURVE SMOOTH",
"692 317 OFFCURVE",
"602 390 OFFCURVE",
"511 410 CURVE",
"401 308 LINE",
"401 738 LINE",
"392 740 LINE",
"352 708 OFFCURVE",
"304 700 OFFCURVE",
"203 700 CURVE",
"128 624 LINE",
"137 615 LINE",
"182 629 OFFCURVE",
"240 629 OFFCURVE",
"320 630 CURVE",
"320 390 LINE",
"136 390 LINE",
"136 460 LINE",
"130 460 LINE",
"10 334 LINE",
"10 325 LINE",
"51 318 OFFCURVE",
"56 298 OFFCURVE",
"56 268 CURVE SMOOTH",
"56 130 LINE SMOOTH",
"56 30 OFFCURVE",
"137 -10 OFFCURVE",
"182 -10 CURVE SMOOTH",
"194 -10 OFFCURVE",
"261 21 OFFCURVE",
"317 66 CURVE",
"315 42 OFFCURVE",
"310 27 OFFCURVE",
"304 10 CURVE",
"304 0 LINE",
"417 0 LINE",
"417 10 LINE",
"406 41 OFFCURVE",
"401 63 OFFCURVE",
"401 103 CURVE SMOOTH",
"401 273 LINE",
"421 296 OFFCURVE",
"451 307 OFFCURVE",
"489 307 CURVE SMOOTH",
"569 307 OFFCURVE",
"627 232 OFFCURVE",
"627 152 CURVE SMOOTH",
"627 89 OFFCURVE",
"601 24 OFFCURVE",
"586 13 CURVE",
"571 8 OFFCURVE",
"545 5 OFFCURVE",
"524 5 CURVE",
"497 -70 LINE",
"501 -75 LINE"
);
},
{
closed = 1;
nodes = (
"163 69 OFFCURVE",
"136 89 OFFCURVE",
"136 163 CURVE SMOOTH",
"136 325 LINE",
"320 325 LINE",
"320 95 LINE",
"269 73 OFFCURVE",
"252 69 OFFCURVE",
"213 69 CURVE SMOOTH"
);
}
);
width = 712;
}
);
leftMetricsKey = t;
rightMetricsKey = h;
},
{
color = 4;
glyphname = t_z;
lastChange = "2020-02-04 06:15:41 +0000";
layers = (
{
layerId = "60B24473-AF85-4843-BA5D-A0A691C0B2A6";
paths = (
{
closed = 1;
nodes = (
"229 -260 OFFCURVE",
"315 -238 OFFCURVE",
"355 -217 CURVE",
"413 -163 OFFCURVE",
"464 -101 OFFCURVE",
"464 10 CURVE SMOOTH",
"464 115 OFFCURVE",
"423 202 OFFCURVE",
"330 243 CURVE",
"373 295 OFFCURVE",
"416 340 OFFCURVE",
"459 379 CURVE",
"459 386 LINE",
"141 386 LINE",
"141 473 LINE",
"132 473 LINE",
"10 321 LINE",
"10 311 LINE",
"55 310 OFFCURVE",
"56 293 OFFCURVE",
"56 261 CURVE SMOOTH",
"56 91 LINE SMOOTH",
"56 51 OFFCURVE",
"77 -10 OFFCURVE",
"147 -10 CURVE",
"258 75 LINE",
"251 90 LINE",
"188 75 OFFCURVE",
"136 75 OFFCURVE",
"136 157 CURVE SMOOTH",
"136 311 LINE",
"342 311 LINE",
"228 178 LINE",
"232 169 LINE",
"370 164 OFFCURVE",
"383 41 OFFCURVE",
"383 -19 CURVE SMOOTH",
"383 -116 OFFCURVE",
"356 -169 OFFCURVE",
"336 -191 CURVE",
"306 -202 OFFCURVE",
"243 -184 OFFCURVE",
"220 -157 CURVE",
"156 -241 LINE"
);
}
);
width = 479;
}
);
leftMetricsKey = t;
rightMetricsKey = z;
},
{
color = 4;
glyphname = u;
lastChange = "2020-02-04 06:16:10 +0000";
layers = (
{
layerId = "60B24473-AF85-4843-BA5D-A0A691C0B2A6";
paths = (
{
closed = 1;
nodes = (
"181 6 OFFCURVE",
"234 50 OFFCURVE",
"261 65 CURVE",
"281 31 OFFCURVE",
"309 0 OFFCURVE",
"326 -10 CURVE",
"400 65 LINE",
"400 75 LINE",
"370 79 OFFCURVE",
"340 89 OFFCURVE",
"341 155 CURVE SMOOTH",
"342 220 OFFCURVE",
"341 314 OFFCURVE",
"345 408 CURVE",
"341 410 LINE",
"258 382 LINE",
"265 314 OFFCURVE",
"261 187 OFFCURVE",
"261 109 CURVE",
"256 81 OFFCURVE",
"227 64 OFFCURVE",
"198 64 CURVE SMOOTH",
"168 64 OFFCURVE",
"138 79 OFFCURVE",
"138 139 CURVE SMOOTH",
"138 307 LINE SMOOTH",
"138 355 OFFCURVE",
"125 385 OFFCURVE",
"68 410 CURVE",
"10 339 LINE",
"10 329 LINE",
"46 311 OFFCURVE",
"58 299 OFFCURVE",
"58 257 CURVE SMOOTH",
"58 75 LINE SMOOTH",
"58 30 OFFCURVE",
"106 -11 OFFCURVE",
"151 -11 CURVE"
);
}
);
width = 405;
}
);
unicode = 0075;
},
{
color = 4;
glyphname = udieresis;
lastChange = "2020-02-04 06:16:38 +0000";
layers = (
{
layerId = "60B24473-AF85-4843-BA5D-A0A691C0B2A6";
paths = (
{
closed = 1;
nodes = (
"247 74 LINE",
"254 44 OFFCURVE",
"281 -10 OFFCURVE",
"320 -10 CURVE",
"340 10 OFFCURVE",
"366 36 OFFCURVE",
"393 60 CURVE",
"393 72 LINE",
"357 72 OFFCURVE",
"329 89 OFFCURVE",
"329 132 CURVE SMOOTH",
"329 422 LINE",
"325 424 LINE",
"249 371 LINE",
"249 162 LINE SMOOTH",
"249 96 OFFCURVE",
"220 74 OFFCURVE",
"195 74 CURVE SMOOTH",
"155 74 OFFCURVE",
"131 95 OFFCURVE",
"131 155 CURVE SMOOTH",
"131 209 OFFCURVE",
"130 316 OFFCURVE",
"140 400 CURVE",
"132 410 LINE",
"50 353 LINE",
"50 85 LINE SMOOTH",
"50 60 OFFCURVE",
"114 -11 OFFCURVE",
"149 -11 CURVE"
);
},
{
closed = 1;
nodes = (
"141 467 LINE",
"193 540 LINE",
"191 544 LINE",
"123 544 LINE",
"76 465 LINE",
"76 463 LINE"
);
},
{
closed = 1;
nodes = (
"282 463 LINE",
"345 547 LINE",
"343 551 LINE",
"253 544 LINE",
"206 465 LINE",
"206 463 LINE"
);
}
);
width = 398;
}
);
rightMetricsKey = u;
unicode = 00FC;
},
{
color = 4;
glyphname = v;
lastChange = "2020-01-30 12:50:56 +0000";
layers = (
{
layerId = "60B24473-AF85-4843-BA5D-A0A691C0B2A6";
paths = (
{
closed = 1;
nodes = (
"267 -10 LINE",
"384 181 OFFCURVE",
"429 252 OFFCURVE",
"429 310 CURVE SMOOTH",
"429 361 OFFCURVE",
"394 410 OFFCURVE",
"321 410 CURVE",
"198 273 LINE",
"157 362 OFFCURVE",
"153 380 OFFCURVE",
"63 410 CURVE",
"0 329 LINE",
"4 319 LINE",
"72 338 OFFCURVE",
"93 296 OFFCURVE",
"130 219 CURVE SMOOTH",
"242 -10 LINE"
);
},
{
closed = 1;
nodes = (
"218 234 LINE",
"226 281 OFFCURVE",
"266 313 OFFCURVE",
"303 313 CURVE SMOOTH",
"338 313 OFFCURVE",
"364 292 OFFCURVE",
"364 245 CURVE SMOOTH",
"364 184 OFFCURVE",
"321 130 OFFCURVE",
"291 84 CURVE"
);
}
);
width = 449;
}
);
rightMetricsKey = o;
unicode = 0076;
},
{
color = 4;
glyphname = w;
lastChange = "2020-01-30 12:50:56 +0000";
layers = (
{
layerId = "60B24473-AF85-4843-BA5D-A0A691C0B2A6";
paths = (
{
closed = 1;
nodes = (
"219 -10 LINE",
"330 165 LINE",
"400 -10 LINE",
"415 -10 LINE",
"488 101 LINE SMOOTH",
"548 193 OFFCURVE",
"567 232 OFFCURVE",
"567 281 CURVE SMOOTH",
"567 322 OFFCURVE",
"540 402 OFFCURVE",
"464 410 CURVE",
"371 280 LINE",
"334 356 LINE SMOOTH",
"316 392 OFFCURVE",
"288 409 OFFCURVE",
"238 410 CURVE",
"167 317 LINE",
"138 387 OFFCURVE",
"117 396 OFFCURVE",
"60 412 CURVE",
"0 332 LINE",
"6 323 LINE",
"62 336 OFFCURVE",
"75 317 OFFCURVE",
"102 248 CURVE SMOOTH",
"204 -10 LINE"
);
},
{
closed = 1;
nodes = (
"175 295 LINE",
"234 359 OFFCURVE",
"308 301 OFFCURVE",
"308 222 CURVE SMOOTH",
"308 173 OFFCURVE",
"283 133 OFFCURVE",
"252 97 CURVE"
);
},
{
closed = 1;
nodes = (
"386 243 LINE",
"389 264 OFFCURVE",
"420 309 OFFCURVE",
"451 309 CURVE SMOOTH",
"487 309 OFFCURVE",
"510 278 OFFCURVE",
"510 239 CURVE SMOOTH",
"510 174 OFFCURVE",
"473 132 OFFCURVE",
"449 92 CURVE"
);
}
);
width = 587;
}
);
leftMetricsKey = v;
rightMetricsKey = o;
unicode = 0077;
},
{
color = 4;
glyphname = x;
lastChange = "2020-02-04 06:17:09 +0000";
layers = (
{
layerId = "60B24473-AF85-4843-BA5D-A0A691C0B2A6";
paths = (
{
closed = 1;
nodes = (
"11 -142 LINE",
"117 67 LINE",
"138 35 OFFCURVE",
"181 3 OFFCURVE",
"220 -10 CURVE",
"360 88 LINE",
"342 100 LINE",
"317 88 OFFCURVE",
"303 75 OFFCURVE",
"272 75 CURVE SMOOTH",
"232 75 OFFCURVE",
"183 92 OFFCURVE",
"183 153 CURVE SMOOTH",
"183 301 LINE",
"228 328 OFFCURVE",
"253 280 OFFCURVE",
"296 280 CURVE",
"356 354 LINE",
"356 363 LINE",
"320 372 OFFCURVE",
"273 388 OFFCURVE",
"256 409 CURVE",
"251 409 LINE",
"178 325 LINE",
"169 361 OFFCURVE",
"136 400 OFFCURVE",
"68 410 CURVE",
"8 334 LINE",
"14 325 LINE",
"65 345 OFFCURVE",
"103 318 OFFCURVE",
"103 264 CURVE SMOOTH",
"103 95 LINE",
"-25 -142 LINE"
);
}
);
width = 365;
}
);
rightMetricsKey = c;
unicode = 0078;
},
{
color = 4;
glyphname = y;
lastChange = "2020-02-04 06:17:37 +0000";
layers = (
{
layerId = "60B24473-AF85-4843-BA5D-A0A691C0B2A6";
paths = (
{
closed = 1;
nodes = (
"124 -260 OFFCURVE",
"234 -219 OFFCURVE",
"308 -219 CURVE SMOOTH",
"325 -219 OFFCURVE",
"332 -223 OFFCURVE",
"326 -260 CURVE",
"345 -254 LINE",
"362 -189 OFFCURVE",
"363 -153 OFFCURVE",
"333 -143 CURVE",
"258 -143 OFFCURVE",
"69 -200 OFFCURVE",
"69 -163 CURVE SMOOTH",
"69 -130 OFFCURVE",
"146 -52 OFFCURVE",
"216 45 CURVE SMOOTH",
"281 135 OFFCURVE",
"334 208 OFFCURVE",
"334 291 CURVE SMOOTH",
"334 358 OFFCURVE",
"294 410 OFFCURVE",
"217 410 CURVE",
"154 325 LINE",
"131 359 OFFCURVE",
"84 399 OFFCURVE",
"50 410 CURVE",
"5 319 LINE",
"10 304 LINE",
"34 332 OFFCURVE",
"80 303 OFFCURVE",
"82 253 CURVE SMOOTH",
"85 167 OFFCURVE",
"83 80 OFFCURVE",
"82 -6 CURVE SMOOTH",
"81 -101 OFFCURVE",
"26 -170 OFFCURVE",
"7 -198 CURVE",
"7 -231 OFFCURVE",
"30 -260 OFFCURVE",
"76 -260 CURVE SMOOTH"
);
},
{
closed = 1;
nodes = (
"151 100 OFFCURVE",
"154 202 OFFCURVE",
"158 303 CURVE",
"211 330 OFFCURVE",
"264 298 OFFCURVE",
"264 238 CURVE SMOOTH",
"264 163 OFFCURVE",
"237 121 OFFCURVE",
"151 -1 CURVE"
);
}
);
width = 362;
}
);
unicode = 0079;
},
{
color = 4;
glyphname = z;
lastChange = "2020-02-04 06:15:28 +0000";
layers = (
{
layerId = "60B24473-AF85-4843-BA5D-A0A691C0B2A6";
paths = (
{
closed = 1;
nodes = (
"109 4 OFFCURVE",
"198 0 OFFCURVE",
"290 0 CURVE",
"324 90 LINE",
"321 93 LINE",
"301 82 OFFCURVE",
"280 75 OFFCURVE",
"249 75 CURVE SMOOTH",
"118 76 LINE",
"185 189 OFFCURVE",
"256 294 OFFCURVE",
"332 398 CURVE",
"327 404 LINE",
"311 400 OFFCURVE",
"189 400 OFFCURVE",
"67 400 CURVE",
"17 309 LINE",
"32 307 LINE",
"69 335 OFFCURVE",
"143 325 OFFCURVE",
"243 326 CURVE",
"178 222 OFFCURVE",
"90 89 OFFCURVE",
"15 1 CURVE",
"17 -4 LINE"
);
}
);
width = 347;
}
);
unicode = 007A;
},
{
color = 4;
glyphname = z.ss01;
lastChange = "2020-02-04 06:17:51 +0000";
layers = (
{
layerId = "60B24473-AF85-4843-BA5D-A0A691C0B2A6";
paths = (
{
closed = 1;
nodes = (
"50 9 OFFCURVE",
"86 30 OFFCURVE",
"106 30 CURVE SMOOTH",
"157 30 OFFCURVE",
"255 -10 OFFCURVE",
"301 -10 CURVE",
"363 84 LINE",
"350 92 LINE",
"344 84 OFFCURVE",
"322 75 OFFCURVE",
"302 75 CURVE SMOOTH",
"250 75 OFFCURVE",
"195 87 OFFCURVE",
"148 109 CURVE",
"214 206 OFFCURVE",
"306 362 OFFCURVE",
"354 393 CURVE",
"342 410 LINE",
"307 386 OFFCURVE",
"295 381 OFFCURVE",
"277 381 CURVE SMOOTH",
"232 381 OFFCURVE",
"161 398 OFFCURVE",
"98 410 CURVE",
"29 328 LINE",
"40 317 LINE",
"48 323 OFFCURVE",
"62 328 OFFCURVE",
"85 328 CURVE SMOOTH",
"117 328 OFFCURVE",
"195 317 OFFCURVE",
"245 307 CURVE",
"190 213 OFFCURVE",
"78 57 OFFCURVE",
"15 5 CURVE",
"30 -10 LINE"
);
}
);
width = 378;
}
);
},
{
color = 6;
glyphname = zero;
lastChange = "2020-02-04 06:19:26 +0000";
layers = (
{
layerId = "60B24473-AF85-4843-BA5D-A0A691C0B2A6";
paths = (
{
closed = 1;
nodes = (
"257 15 OFFCURVE",
"303 48 OFFCURVE",
"324 69 CURVE SMOOTH",
"348 92 OFFCURVE",
"386 163 OFFCURVE",
"386 228 CURVE SMOOTH",
"386 328 OFFCURVE",
"303 400 OFFCURVE",
"203 410 CURVE",
"193 410 OFFCURVE",
"103 331 OFFCURVE",
"92 321 CURVE SMOOTH",
"60 292 OFFCURVE",
"30 237 OFFCURVE",
"30 172 CURVE SMOOTH",
"30 72 OFFCURVE",
"103 0 OFFCURVE",
"214 -10 CURVE"
);
},
{
closed = 1;
nodes = (
"172 74 OFFCURVE",
"103 136 OFFCURVE",
"103 236 CURVE SMOOTH",
"103 276 OFFCURVE",
"119 306 OFFCURVE",
"134 324 CURVE",
"240 324 OFFCURVE",
"309 262 OFFCURVE",
"309 162 CURVE SMOOTH",
"309 132 OFFCURVE",
"295 92 OFFCURVE",
"281 74 CURVE"
);
}
);
width = 416;
}
);
unicode = 0030;
},
{
color = 6;
glyphname = one;
lastChange = "2020-02-04 06:18:47 +0000";
layers = (
{
layerId = "60B24473-AF85-4843-BA5D-A0A691C0B2A6";
paths = (
{
closed = 1;
nodes = (
"200 0 LINE",
"200 10 LINE",
"180 29 OFFCURVE",
"165 27 OFFCURVE",
"165 67 CURVE SMOOTH",
"165 337 LINE SMOOTH",
"165 361 OFFCURVE",
"168 386 OFFCURVE",
"175 409 CURVE",
"159 411 LINE",
"30 292 LINE",
"30 282 LINE",
"78 270 OFFCURVE",
"85 267 OFFCURVE",
"85 233 CURVE SMOOTH",
"85 93 LINE SMOOTH",
"85 45 OFFCURVE",
"87 43 OFFCURVE",
"33 10 CURVE",
"33 0 LINE"
);
}
);
width = 235;
}
);
unicode = 0031;
},
{
color = 6;
glyphname = two;
lastChange = "2020-02-04 06:21:42 +0000";
layers = (
{
layerId = "60B24473-AF85-4843-BA5D-A0A691C0B2A6";
paths = (
{
closed = 1;
nodes = (
"270 20 OFFCURVE",
"286 49 OFFCURVE",
"304 77 CURVE",
"290 80 LINE",
"272 66 OFFCURVE",
"262 62 OFFCURVE",
"252 62 CURVE SMOOTH",
"233 62 OFFCURVE",
"180 82 OFFCURVE",
"137 84 CURVE",
"207 151 OFFCURVE",
"273 218 OFFCURVE",
"273 301 CURVE SMOOTH",
"273 388 OFFCURVE",
"182 423 OFFCURVE",
"95 407 CURVE",
"10 332 LINE",
"17 314 LINE",
"84 360 OFFCURVE",
"188 325 OFFCURVE",
"188 250 CURVE SMOOTH",
"188 192 OFFCURVE",
"142 125 OFFCURVE",
"13 -4 CURVE",
"45 -9 LINE",
"63 11 OFFCURVE",
"80 22 OFFCURVE",
"98 22 CURVE SMOOTH",
"152 22 OFFCURVE",
"218 -10 OFFCURVE",
"254 -10 CURVE"
);
}
);
width = 319;
}
);
unicode = 0032;
},
{
color = 6;
glyphname = three;
lastChange = "2020-02-04 06:24:41 +0000";
layers = (
{
layerId = "60B24473-AF85-4843-BA5D-A0A691C0B2A6";
paths = (
{
closed = 1;
nodes = (
"213 -105 OFFCURVE",
"327 -14 OFFCURVE",
"327 76 CURVE SMOOTH",
"327 157 OFFCURVE",
"266 203 OFFCURVE",
"196 222 CURVE",
"307 392 LINE",
"302 399 LINE",
"244 388 OFFCURVE",
"136 392 OFFCURVE",
"63 398 CURVE",
"41 371 OFFCURVE",
"27 335 OFFCURVE",
"16 298 CURVE",
"34 293 LINE",
"49 311 OFFCURVE",
"157 309 OFFCURVE",
"212 309 CURVE",
"107 145 LINE",
"112 141 LINE",
"190 141 OFFCURVE",
"244 103 OFFCURVE",
"244 37 CURVE SMOOTH",
"244 -28 OFFCURVE",
"208 -60 OFFCURVE",
"168 -60 CURVE SMOOTH",
"110 -60 OFFCURVE",
"86 -28 OFFCURVE",
"65 -12 CURVE",
"5 -68 LINE",
"5 -73 LINE",
"25 -93 OFFCURVE",
"51 -105 OFFCURVE",
"103 -105 CURVE SMOOTH"
);
}
);
width = 352;
}
);
unicode = 0033;
},
{
color = 6;
glyphname = four;
lastChange = "2020-02-04 06:20:16 +0000";
layers = (
{
layerId = "60B24473-AF85-4843-BA5D-A0A691C0B2A6";
paths = (
{
closed = 1;
nodes = (
"352 -122 LINE",
"352 -112 LINE",
"332 -92 OFFCURVE",
"317 -77 OFFCURVE",
"317 -37 CURVE SMOOTH",
"317 27 LINE",
"417 24 LINE",
"454 116 LINE",
"446 123 LINE",
"406 101 OFFCURVE",
"366 92 OFFCURVE",
"317 90 CURVE",
"317 420 LINE",
"298 420 LINE",
"20 49 LINE",
"27 29 LINE",
"93 30 OFFCURVE",
"165 30 OFFCURVE",
"234 29 CURVE",
"234 -37 LINE SMOOTH",
"234 -77 OFFCURVE",
"224 -89 OFFCURVE",
"204 -112 CURVE",
"204 -122 LINE"
);
},
{
closed = 1;
nodes = (
"234 275 LINE",
"234 90 LINE",
"112 90 LINE"
);
}
);
width = 459;
}
);
unicode = 0034;
},
{
color = 6;
glyphname = five;
lastChange = "2020-01-30 12:50:56 +0000";
layers = (
{
layerId = "60B24473-AF85-4843-BA5D-A0A691C0B2A6";
paths = (
{
closed = 1;
nodes = (
"167 -121 OFFCURVE",
"288 -33 OFFCURVE",
"288 73 CURVE SMOOTH",
"288 159 OFFCURVE",
"215 223 OFFCURVE",
"130 239 CURVE",
"156 313 LINE",
"201 313 OFFCURVE",
"263 317 OFFCURVE",
"310 324 CURVE",
"370 414 LINE",
"365 420 LINE",
"330 398 OFFCURVE",
"153 398 OFFCURVE",
"145 398 CURVE",
"57 150 LINE",
"61 144 LINE",
"139 161 OFFCURVE",
"212 103 OFFCURVE",
"212 29 CURVE SMOOTH",
"212 -8 OFFCURVE",
"199 -39 OFFCURVE",
"176 -62 CURVE",
"141 -62 OFFCURVE",
"93 -50 OFFCURVE",
"69 -39 CURVE",
"-10 -105 LINE",
"-10 -111 LINE",
"19 -116 OFFCURVE",
"42 -121 OFFCURVE",
"72 -121 CURVE SMOOTH"
);
}
);
width = 365;
}
);
unicode = 0035;
},
{
color = 6;
glyphname = six;
lastChange = "2020-02-04 06:20:33 +0000";
layers = (
{
layerId = "60B24473-AF85-4843-BA5D-A0A691C0B2A6";
paths = (
{
closed = 1;
nodes = (
"296 26 OFFCURVE",
"379 92 OFFCURVE",
"380 197 CURVE SMOOTH",
"381 316 OFFCURVE",
"254 382 OFFCURVE",
"163 376 CURVE",
"189 417 OFFCURVE",
"280 499 OFFCURVE",
"386 532 CURVE",
"389 543 LINE",
"309 561 LINE",
"170 485 OFFCURVE",
"20 354 OFFCURVE",
"20 200 CURVE SMOOTH",
"20 70 OFFCURVE",
"96 1 OFFCURVE",
"215 -8 CURVE"
);
},
{
closed = 1;
nodes = (
"182 66 OFFCURVE",
"98 141 OFFCURVE",
"98 231 CURVE SMOOTH",
"98 262 OFFCURVE",
"103 290 OFFCURVE",
"114 307 CURVE",
"218 316 OFFCURVE",
"297 247 OFFCURVE",
"304 162 CURVE SMOOTH",
"307 121 OFFCURVE",
"295 96 OFFCURVE",
"282 76 CURVE"
);
}
);
width = 404;
}
);
unicode = 0036;
},
{
color = 6;
glyphname = seven;
lastChange = "2020-02-04 06:20:38 +0000";
layers = (
{
layerId = "60B24473-AF85-4843-BA5D-A0A691C0B2A6";
paths = (
{
closed = 1;
nodes = (
"92 -133 OFFCURVE",
"164 -85 OFFCURVE",
"193 -10 CURVE SMOOTH",
"244 119 OFFCURVE",
"261 269 OFFCURVE",
"343 395 CURVE",
"337 403 LINE",
"288 387 OFFCURVE",
"111 399 OFFCURVE",
"77 402 CURVE",
"55 375 OFFCURVE",
"38 340 OFFCURVE",
"21 303 CURVE",
"43 299 LINE",
"77 325 OFFCURVE",
"133 321 OFFCURVE",
"219 316 CURVE",
"183 207 OFFCURVE",
"166 99 OFFCURVE",
"137 -10 CURVE SMOOTH",
"117 -82 OFFCURVE",
"90 -93 OFFCURVE",
"-5 -29 CURVE",
"-20 -123 LINE"
);
}
);
width = 338;
}
);
unicode = 0037;
},
{
color = 6;
glyphname = eight;
lastChange = "2020-02-04 06:21:49 +0000";
layers = (
{
layerId = "60B24473-AF85-4843-BA5D-A0A691C0B2A6";
paths = (
{
closed = 1;
nodes = (
"189 -10 OFFCURVE",
"279 56 OFFCURVE",
"295 69 CURVE SMOOTH",
"315 88 OFFCURVE",
"337 128 OFFCURVE",
"337 161 CURVE SMOOTH",
"337 221 OFFCURVE",
"307 258 OFFCURVE",
"240 288 CURVE",
"277 318 OFFCURVE",
"307 345 OFFCURVE",
"307 398 CURVE SMOOTH",
"307 456 OFFCURVE",
"250 505 OFFCURVE",
"192 515 CURVE",
"177 515 OFFCURVE",
"105 465 OFFCURVE",
"73 439 CURVE SMOOTH",
"59 429 OFFCURVE",
"34 391 OFFCURVE",
"34 355 CURVE SMOOTH",
"34 316 OFFCURVE",
"54 278 OFFCURVE",
"111 257 CURVE",
"45 229 OFFCURVE",
"20 182 OFFCURVE",
"20 128 CURVE SMOOTH",
"20 51 OFFCURVE",
"94 0 OFFCURVE",
"170 -10 CURVE"
);
},
{
closed = 1;
nodes = (
"143 59 OFFCURVE",
"96 106 OFFCURVE",
"96 162 CURVE SMOOTH",
"96 203 OFFCURVE",
"123 232 OFFCURVE",
"143 242 CURVE",
"200 242 OFFCURVE",
"255 213 OFFCURVE",
"255 138 CURVE SMOOTH",
"255 108 OFFCURVE",
"237 72 OFFCURVE",
"222 59 CURVE"
);
},
{
closed = 1;
nodes = (
"155 300 OFFCURVE",
"108 326 OFFCURVE",
"108 382 CURVE SMOOTH",
"108 411 OFFCURVE",
"122 435 OFFCURVE",
"137 446 CURVE",
"180 456 OFFCURVE",
"232 421 OFFCURVE",
"232 366 CURVE SMOOTH",
"232 333 OFFCURVE",
"213 309 OFFCURVE",
"201 300 CURVE"
);
}
);
width = 357;
}
);
unicode = 0038;
},
{
color = 6;
glyphname = nine;
lastChange = "2020-02-04 06:20:13 +0000";
layers = (
{
layerId = "60B24473-AF85-4843-BA5D-A0A691C0B2A6";
paths = (
{
closed = 1;
nodes = (
"108 373 OFFCURVE",
"25 307 OFFCURVE",
"24 202 CURVE SMOOTH",
"23 83 OFFCURVE",
"150 17 OFFCURVE",
"241 23 CURVE",
"215 -18 OFFCURVE",
"124 -100 OFFCURVE",
"18 -133 CURVE",
"15 -144 LINE",
"95 -162 LINE",
"234 -86 OFFCURVE",
"384 45 OFFCURVE",
"384 199 CURVE SMOOTH",
"384 329 OFFCURVE",
"308 398 OFFCURVE",
"189 407 CURVE"
);
},
{
closed = 1;
nodes = (
"222 333 OFFCURVE",
"306 258 OFFCURVE",
"306 168 CURVE SMOOTH",
"306 137 OFFCURVE",
"301 109 OFFCURVE",
"290 92 CURVE",
"186 83 OFFCURVE",
"107 152 OFFCURVE",
"100 237 CURVE SMOOTH",
"97 278 OFFCURVE",
"109 303 OFFCURVE",
"122 323 CURVE"
);
}
);
width = 404;
}
);
unicode = 0039;
},
{
color = 10;
glyphname = period;
lastChange = "2020-02-04 06:22:08 +0000";
layers = (
{
layerId = "60B24473-AF85-4843-BA5D-A0A691C0B2A6";
paths = (
{
closed = 1;
nodes = (
"83 -20 LINE",
"135 42 LINE",
"135 46 LINE",
"76 97 LINE",
"72 97 LINE",
"20 36 LINE",
"20 32 LINE",
"79 -20 LINE"
);
}
);
width = 155;
}
);
unicode = 002E;
},
{
color = 10;
glyphname = comma;
lastChange = "2020-02-04 06:22:13 +0000";
layers = (
{
layerId = "60B24473-AF85-4843-BA5D-A0A691C0B2A6";
paths = (
{
closed = 1;
nodes = (
"179 27 LINE",
"179 31 LINE",
"111 97 LINE",
"106 97 LINE",
"48 27 LINE",
"48 22 LINE",
"63 13 OFFCURVE",
"78 2 OFFCURVE",
"91 -9 CURVE",
"69 -53 OFFCURVE",
"46 -98 OFFCURVE",
"20 -142 CURVE",
"32 -152 LINE"
);
}
);
width = 199;
}
);
unicode = 002C;
},
{
color = 10;
glyphname = colon;
lastChange = "2020-02-04 06:22:19 +0000";
layers = (
{
layerId = "60B24473-AF85-4843-BA5D-A0A691C0B2A6";
paths = (
{
closed = 1;
nodes = (
"83 -20 LINE",
"135 42 LINE",
"135 46 LINE",
"76 97 LINE",
"72 97 LINE",
"20 36 LINE",
"20 32 LINE",
"79 -20 LINE"
);
},
{
closed = 1;
nodes = (
"83 160 LINE",
"135 222 LINE",
"135 226 LINE",
"76 277 LINE",
"72 277 LINE",
"20 216 LINE",
"20 212 LINE",
"79 160 LINE"
);
}
);
width = 155;
}
);
unicode = 003A;
},
{
color = 10;
glyphname = semicolon;
lastChange = "2020-02-04 06:22:24 +0000";
layers = (
{
layerId = "60B24473-AF85-4843-BA5D-A0A691C0B2A6";
paths = (
{
closed = 1;
nodes = (
"115 128 LINE",
"167 190 LINE",
"167 194 LINE",
"108 245 LINE",
"104 245 LINE",
"52 184 LINE",
"52 180 LINE",
"111 128 LINE"
);
},
{
closed = 1;
nodes = (
"179 27 LINE",
"179 31 LINE",
"111 97 LINE",
"106 97 LINE",
"48 27 LINE",
"48 22 LINE",
"63 13 OFFCURVE",
"78 2 OFFCURVE",
"91 -9 CURVE",
"69 -53 OFFCURVE",
"46 -98 OFFCURVE",
"20 -142 CURVE",
"32 -152 LINE"
);
}
);
width = 199;
}
);
unicode = 003B;
},
{
color = 10;
glyphname = exclam;
lastChange = "2020-02-04 06:22:29 +0000";
layers = (
{
layerId = "60B24473-AF85-4843-BA5D-A0A691C0B2A6";
paths = (
{
closed = 1;
nodes = (
"93 147 LINE",
"93 262 OFFCURVE",
"110 482 OFFCURVE",
"130 710 CURVE",
"25 710 LINE",
"43 482 OFFCURVE",
"62 262 OFFCURVE",
"62 147 CURVE"
);
},
{
closed = 1;
nodes = (
"83 -20 LINE",
"135 42 LINE",
"135 46 LINE",
"76 97 LINE",
"72 97 LINE",
"20 36 LINE",
"20 32 LINE",
"79 -20 LINE"
);
}
);
width = 155;
}
);
unicode = 0021;
},
{
color = 10;
glyphname = question;
lastChange = "2020-02-04 06:23:12 +0000";
layers = (
{
layerId = "60B24473-AF85-4843-BA5D-A0A691C0B2A6";
paths = (
{
closed = 1;
nodes = (
"261 213 LINE",
"248 226 LINE",
"238 214 OFFCURVE",
"225 206 OFFCURVE",
"214 206 CURVE SMOOTH",
"197 206 OFFCURVE",
"179 231 OFFCURVE",
"179 269 CURVE SMOOTH",
"179 352 OFFCURVE",
"249 486 OFFCURVE",
"249 564 CURVE SMOOTH",
"249 662 OFFCURVE",
"193 703 OFFCURVE",
"121 710 CURVE",
"0 565 LINE",
"10 552 LINE",
"46 576 OFFCURVE",
"72 590 OFFCURVE",
"98 590 CURVE SMOOTH",
"129 590 OFFCURVE",
"174 574 OFFCURVE",
"174 502 CURVE SMOOTH",
"174 444 OFFCURVE",
"129 307 OFFCURVE",
"129 230 CURVE SMOOTH",
"129 163 OFFCURVE",
"181 135 OFFCURVE",
"195 135 CURVE"
);
},
{
closed = 1;
nodes = (
"176 -20 LINE",
"228 42 LINE",
"228 46 LINE",
"169 97 LINE",
"165 97 LINE",
"113 36 LINE",
"113 32 LINE",
"172 -20 LINE"
);
}
);
width = 281;
}
);
unicode = 003F;
},
{
color = 10;
glyphname = hyphen;
lastChange = "2020-02-04 06:23:18 +0000";
layers = (
{
layerId = "60B24473-AF85-4843-BA5D-A0A691C0B2A6";
paths = (
{
closed = 1;
nodes = (
"290 162 LINE",
"337 222 LINE",
"67 222 LINE",
"20 162 LINE"
);
}
);
width = 357;
}
);
unicode = 002D;
},
{
color = 10;
glyphname = parenleft;
lastChange = "2020-02-04 06:23:43 +0000";
layers = (
{
layerId = "60B24473-AF85-4843-BA5D-A0A691C0B2A6";
paths = (
{
closed = 1;
nodes = (
"259 -165 LINE",
"224 -130 OFFCURVE",
"139 50 OFFCURVE",
"139 234 CURVE SMOOTH",
"139 502 OFFCURVE",
"194 591 OFFCURVE",
"259 710 CURVE",
"227 710 LINE",
"143 591 OFFCURVE",
"50 462 OFFCURVE",
"50 233 CURVE SMOOTH",
"50 40 OFFCURVE",
"203 -175 OFFCURVE",
"259 -205 CURVE"
);
}
);
width = 279;
}
);
unicode = 0028;
},
{
color = 10;
glyphname = parenright;
lastChange = "2020-02-04 06:23:48 +0000";
layers = (
{
layerId = "60B24473-AF85-4843-BA5D-A0A691C0B2A6";
paths = (
{
closed = 1;
nodes = (
"20 671 LINE",
"55 636 OFFCURVE",
"140 456 OFFCURVE",
"140 272 CURVE SMOOTH",
"140 4 OFFCURVE",
"85 -85 OFFCURVE",
"20 -204 CURVE",
"52 -204 LINE",
"136 -85 OFFCURVE",
"229 44 OFFCURVE",
"229 273 CURVE SMOOTH",
"229 466 OFFCURVE",
"76 681 OFFCURVE",
"20 711 CURVE"
);
}
);
width = 279;
}
);
unicode = 0029;
},
{
color = 10;
export = 0;
glyphname = dieresis;
lastChange = "2021-02-18 14:08:15 +0000";
layers = (
{
layerId = "60B24473-AF85-4843-BA5D-A0A691C0B2A6";
paths = (
{
closed = 1;
nodes = (
"205 483 LINE",
"267 560 LINE",
"265 564 LINE",
"197 564 LINE",
"150 485 LINE",
"150 483 LINE"
);
},
{
closed = 1;
nodes = (
"75 483 LINE",
"137 560 LINE",
"135 564 LINE",
"67 564 LINE",
"20 485 LINE",
"20 483 LINE"
);
}
);
width = 287;
}
);
unicode = 00A8;
},
{
color = 10;
glyphname = quoteleft;
lastChange = "2020-02-04 06:24:00 +0000";
layers = (
{
layerId = "60B24473-AF85-4843-BA5D-A0A691C0B2A6";
paths = (
{
closed = 1;
nodes = (
"53 446 LINE",
"198 624 LINE",
"121 716 LINE",
"63 639 LINE",
"106 597 LINE",
"20 446 LINE"
);
}
);
width = 218;
}
);
unicode = 2018;
},
{
color = 10;
glyphname = quoteright;
lastChange = "2020-02-04 06:24:05 +0000";
layers = (
{
layerId = "60B24473-AF85-4843-BA5D-A0A691C0B2A6";
paths = (
{
closed = 1;
nodes = (
"111 439 LINE",
"163 500 LINE",
"163 504 LINE",
"117 544 LINE",
"205 700 LINE",
"172 700 LINE",
"20 515 LINE",
"107 439 LINE"
);
}
);
width = 225;
}
);
unicode = 2019;
},
{
color = 10;
glyphname = quotesinglbase;
lastChange = "2020-02-04 06:24:11 +0000";
layers = (
{
layerId = "60B24473-AF85-4843-BA5D-A0A691C0B2A6";
paths = (
{
closed = 1;
nodes = (
"53 -152 LINE",
"198 26 LINE",
"121 118 LINE",
"63 41 LINE",
"106 -1 LINE",
"20 -152 LINE"
);
}
);
width = 218;
}
);
unicode = 201A;
},
{
color = 10;
glyphname = quotedblbase;
lastChange = "2020-02-04 06:24:16 +0000";
layers = (
{
layerId = "60B24473-AF85-4843-BA5D-A0A691C0B2A6";
paths = (
{
closed = 1;
nodes = (
"53 -152 LINE",
"198 26 LINE",
"121 118 LINE",
"63 41 LINE",
"106 -1 LINE",
"20 -152 LINE"
);
},
{
closed = 1;
nodes = (
"284 -152 LINE",
"429 26 LINE",
"352 118 LINE",
"294 41 LINE",
"337 -1 LINE",
"251 -152 LINE"
);
}
);
width = 449;
}
);
unicode = 201E;
},
{
color = 10;
glyphname = quotesingle;
lastChange = "2020-01-30 12:50:56 +0000";
layers = (
{
layerId = "60B24473-AF85-4843-BA5D-A0A691C0B2A6";
paths = (
{
closed = 1;
nodes = (
"179 640 LINE",
"179 644 LINE",
"111 710 LINE",
"106 710 LINE",
"48 640 LINE",
"48 635 LINE",
"63 626 OFFCURVE",
"78 615 OFFCURVE",
"91 604 CURVE",
"69 560 OFFCURVE",
"46 515 OFFCURVE",
"20 471 CURVE",
"32 461 LINE"
);
}
);
width = 199;
}
);
unicode = 0027;
},
{
glyphname = mond;
lastChange = "2020-01-30 12:50:56 +0000";
layers = (
{
layerId = "60B24473-AF85-4843-BA5D-A0A691C0B2A6";
paths = (
{
closed = 1;
nodes = (
"752 50 OFFCURVE",
"883 235 OFFCURVE",
"871 368 CURVE",
"855 364 LINE",
"855 245 OFFCURVE",
"737 125 OFFCURVE",
"617 90 CURVE SMOOTH",
"421 32 OFFCURVE",
"248 90 OFFCURVE",
"135 263 CURVE SMOOTH",
"61 377 OFFCURVE",
"78 546 OFFCURVE",
"161 685 CURVE SMOOTH",
"164 691 OFFCURVE",
"152 698 OFFCURVE",
"147 690 CURVE SMOOTH",
"98 623 OFFCURVE",
"69 566 OFFCURVE",
"56 488 CURVE SMOOTH",
"23 290 OFFCURVE",
"120 115 OFFCURVE",
"269 43 CURVE SMOOTH",
"364 -3 OFFCURVE",
"474 -14 OFFCURVE",
"577 10 CURVE SMOOTH"
);
}
);
width = 922;
}
);
},
{
glyphname = kopf;
lastChange = "2020-01-30 12:50:56 +0000";
layers = (
{
layerId = "60B24473-AF85-4843-BA5D-A0A691C0B2A6";
paths = (
{
closed = 1;
nodes = (
"617 -13 OFFCURVE",
"773 142 OFFCURVE",
"766 348 CURVE SMOOTH",
"759 563 OFFCURVE",
"572 700 OFFCURVE",
"406 700 CURVE SMOOTH",
"209 700 OFFCURVE",
"50 552 OFFCURVE",
"50 348 CURVE SMOOTH",
"50 150 OFFCURVE",
"209 -2 OFFCURVE",
"406 -7 CURVE SMOOTH"
);
},
{
closed = 1;
nodes = (
"177 99 OFFCURVE",
"145 138 OFFCURVE",
"123 176 CURVE",
"141 255 OFFCURVE",
"158 335 OFFCURVE",
"177 414 CURVE",
"202 304 OFFCURVE",
"220 199 OFFCURVE",
"239 93 CURVE",
"230 90 OFFCURVE",
"222 86 OFFCURVE",
"213 82 CURVE"
);
},
{
closed = 1;
nodes = (
"340 19 OFFCURVE",
"277 34 OFFCURVE",
"227 68 CURVE",
"249 85 OFFCURVE",
"357 107 OFFCURVE",
"414 107 CURVE SMOOTH",
"495 107 OFFCURVE",
"558 104 OFFCURVE",
"624 88 CURVE",
"555 30 OFFCURVE",
"492 19 OFFCURVE",
"406 19 CURVE SMOOTH"
);
},
{
closed = 1;
nodes = (
"208 345 LINE",
"236 316 LINE",
"233 203 LINE"
);
},
{
closed = 1;
nodes = (
"251 111 OFFCURVE",
"244 132 OFFCURVE",
"244 149 CURVE SMOOTH",
"244 188 OFFCURVE",
"251 276 OFFCURVE",
"251 284 CURVE SMOOTH",
"251 290 OFFCURVE",
"252 295 OFFCURVE",
"259 295 CURVE SMOOTH",
"263 295 OFFCURVE",
"272 284 OFFCURVE",
"289 269 CURVE SMOOTH",
"317 242 OFFCURVE",
"356 212 OFFCURVE",
"393 180 CURVE",
"420 160 OFFCURVE",
"446 142 OFFCURVE",
"466 122 CURVE",
"364 124 OFFCURVE",
"304 111 OFFCURVE",
"254 97 CURVE"
);
},
{
closed = 1;
nodes = (
"219 369 LINE",
"261 390 LINE",
"243 340 LINE"
);
},
{
closed = 1;
nodes = (
"533 121 OFFCURVE",
"513 121 OFFCURVE",
"494 122 CURVE",
"442 166 OFFCURVE",
"396 202 OFFCURVE",
"339 249 CURVE",
"353 248 OFFCURVE",
"361 251 OFFCURVE",
"371 259 CURVE",
"377 266 OFFCURVE",
"364 274 OFFCURVE",
"360 271 CURVE",
"350 266 OFFCURVE",
"339 261 OFFCURVE",
"329 266 CURVE SMOOTH",
"318 270 OFFCURVE",
"307 281 OFFCURVE",
"293 295 CURVE SMOOTH",
"273 316 OFFCURVE",
"266 323 OFFCURVE",
"262 335 CURVE",
"268 361 OFFCURVE",
"287 389 OFFCURVE",
"298 413 CURVE",
"337 421 OFFCURVE",
"357 432 OFFCURVE",
"406 436 CURVE SMOOTH",
"452 440 OFFCURVE",
"462 439 OFFCURVE",
"501 436 CURVE SMOOTH",
"538 433 OFFCURVE",
"572 426 OFFCURVE",
"584 420 CURVE SMOOTH",
"591 417 OFFCURVE",
"597 416 OFFCURVE",
"597 410 CURVE SMOOTH",
"597 404 OFFCURVE",
"594 401 OFFCURVE",
"590 400 CURVE SMOOTH",
"581 397 OFFCURVE",
"559 407 OFFCURVE",
"548 410 CURVE SMOOTH",
"522 416 OFFCURVE",
"480 421 OFFCURVE",
"477 418 CURVE",
"477 414 OFFCURVE",
"510 403 OFFCURVE",
"533 390 CURVE SMOOTH",
"548 382 OFFCURVE",
"561 369 OFFCURVE",
"570 369 CURVE SMOOTH",
"579 369 OFFCURVE",
"581 373 OFFCURVE",
"590 383 CURVE SMOOTH",
"598 393 OFFCURVE",
"603 400 OFFCURVE",
"607 404 CURVE SMOOTH",
"611 409 OFFCURVE",
"617 420 OFFCURVE",
"608 424 CURVE",
"600 426 OFFCURVE",
"537 442 OFFCURVE",
"512 446 CURVE SMOOTH",
"501 447 OFFCURVE",
"483 449 OFFCURVE",
"472 452 CURVE",
"621 492 LINE",
"628 467 OFFCURVE",
"632 429 OFFCURVE",
"629 413 CURVE",
"626 404 OFFCURVE",
"621 401 OFFCURVE",
"615 393 CURVE",
"615 256 LINE",
"604 256 OFFCURVE",
"583 266 OFFCURVE",
"580 266 CURVE",
"577 261 OFFCURVE",
"577 258 OFFCURVE",
"577 254 CURVE",
"580 251 OFFCURVE",
"584 251 OFFCURVE",
"587 249 CURVE",
"580 221 OFFCURVE",
"561 160 OFFCURVE",
"552 118 CURVE"
);
},
{
closed = 1;
nodes = (
"158 506 OFFCURVE",
"247 666 OFFCURVE",
"411 658 CURVE SMOOTH",
"572 651 OFFCURVE",
"603 569 OFFCURVE",
"617 509 CURVE",
"557 494 OFFCURVE",
"495 477 OFFCURVE",
"435 468 CURVE",
"400 452 OFFCURVE",
"365 443 OFFCURVE",
"326 435 CURVE",
"283 418 OFFCURVE",
"240 401 OFFCURVE",
"198 385 CURVE"
);
}
);
width = 816;
}
);
},
{
glyphname = koenigspaar;
lastChange = "2020-01-30 12:50:56 +0000";
layers = (
{
layerId = "60B24473-AF85-4843-BA5D-A0A691C0B2A6";
paths = (
{
closed = 1;
nodes = (
"610 -8 OFFCURVE",
"780 124 OFFCURVE",
"780 351 CURVE SMOOTH",
"780 548 OFFCURVE",
"601 713 OFFCURVE",
"411 713 CURVE SMOOTH",
"222 713 OFFCURVE",
"50 562 OFFCURVE",
"50 354 CURVE SMOOTH",
"50 145 OFFCURVE",
"211 -8 OFFCURVE",
"411 -8 CURVE SMOOTH"
);
},
{
closed = 1;
nodes = (
"175 98 OFFCURVE",
"174 99 OFFCURVE",
"172 100 CURVE",
"172 107 LINE SMOOTH",
"172 113 OFFCURVE",
"179 112 OFFCURVE",
"183 113 CURVE",
"183 111 LINE",
"175 111 OFFCURVE",
"175 108 OFFCURVE",
"175 106 CURVE SMOOTH",
"175 97 OFFCURVE",
"183 99 OFFCURVE",
"187 99 CURVE SMOOTH",
"191 99 LINE",
"191 97 LINE",
"176 97 LINE"
);
},
{
closed = 1;
nodes = (
"119 165 OFFCURVE",
"119 166 OFFCURVE",
"118 166 CURVE",
"121 176 OFFCURVE",
"128 190 OFFCURVE",
"128 194 CURVE SMOOTH",
"128 196 OFFCURVE",
"132 198 OFFCURVE",
"131 194 CURVE SMOOTH",
"130 190 OFFCURVE",
"122 170 OFFCURVE",
"120 164 CURVE"
);
},
{
closed = 1;
nodes = (
"111 203 LINE SMOOTH",
"113 205 OFFCURVE",
"115 203 OFFCURVE",
"113 202 CURVE SMOOTH",
"107 198 LINE SMOOTH",
"105 196 OFFCURVE",
"102 198 OFFCURVE",
"104 198 CURVE"
);
},
{
closed = 1;
nodes = (
"109 206 LINE SMOOTH",
"111 207 OFFCURVE",
"112 206 OFFCURVE",
"111 205 CURVE",
"104 202 LINE SMOOTH",
"102 201 OFFCURVE",
"101 202 OFFCURVE",
"102 202 CURVE"
);
},
{
closed = 1;
nodes = (
"87 231 LINE",
"87 232 OFFCURVE",
"86 233 OFFCURVE",
"86 235 CURVE",
"87 235 OFFCURVE",
"88 234 OFFCURVE",
"90 234 CURVE SMOOTH",
"93 234 OFFCURVE",
"101 221 OFFCURVE",
"107 214 CURVE",
"107 209 LINE"
);
},
{
closed = 1;
nodes = (
"148 138 OFFCURVE",
"139 152 OFFCURVE",
"140 168 CURVE",
"143 168 LINE",
"142 153 OFFCURVE",
"151 138 OFFCURVE",
"156 132 CURVE SMOOTH",
"164 124 OFFCURVE",
"168 119 OFFCURVE",
"168 143 CURVE SMOOTH",
"168 211 LINE",
"171 211 LINE",
"171 133 LINE SMOOTH",
"171 131 OFFCURVE",
"167 116 OFFCURVE",
"155 129 CURVE SMOOTH"
);
},
{
closed = 1;
nodes = (
"78 261 LINE",
"79 261 LINE",
"82 259 OFFCURVE",
"85 259 OFFCURVE",
"86 253 CURVE",
"89 248 OFFCURVE",
"90 244 OFFCURVE",
"89 242 CURVE",
"87 241 OFFCURVE",
"86 240 OFFCURVE",
"84 240 CURVE"
);
},
{
closed = 1;
nodes = (
"136 198 OFFCURVE",
"133 199 OFFCURVE",
"132 203 CURVE SMOOTH",
"131 207 OFFCURVE",
"134 209 OFFCURVE",
"136 210 CURVE",
"152 210 LINE SMOOTH",
"155 210 OFFCURVE",
"151 210 OFFCURVE",
"151 209 CURVE SMOOTH",
"151 208 OFFCURVE",
"148 208 OFFCURVE",
"146 208 CURVE SMOOTH",
"143 208 OFFCURVE",
"141 208 OFFCURVE",
"138 207 CURVE SMOOTH",
"136 206 OFFCURVE",
"137 206 OFFCURVE",
"138 206 CURVE",
"138 205 OFFCURVE",
"140 206 OFFCURVE",
"144 206 CURVE",
"147 207 OFFCURVE",
"146 205 OFFCURVE",
"143 201 CURVE SMOOTH",
"140 198 OFFCURVE",
"139 198 OFFCURVE",
"138 198 CURVE SMOOTH"
);
},
{
closed = 1;
nodes = (
"93 242 LINE",
"97 244 LINE",
"98 264 LINE SMOOTH",
"98 279 OFFCURVE",
"122 274 OFFCURVE",
"121 264 CURVE SMOOTH",
"120 245 LINE SMOOTH",
"120 241 OFFCURVE",
"110 241 OFFCURVE",
"101 241 CURVE",
"102 236 LINE",
"129 237 LINE",
"119 211 LINE"
);
},
{
closed = 1;
nodes = (
"174 221 LINE",
"176 221 LINE",
"180 146 LINE",
"177 146 LINE"
);
},
{
closed = 1;
nodes = (
"290 70 LINE",
"301 70 OFFCURVE",
"315 69 OFFCURVE",
"320 72 CURVE SMOOTH",
"332 77 LINE",
"324 77 OFFCURVE",
"311 75 OFFCURVE",
"307 77 CURVE",
"297 78 OFFCURVE",
"307 82 OFFCURVE",
"311 82 CURVE SMOOTH",
"345 82 LINE",
"335 77 OFFCURVE",
"328 56 OFFCURVE",
"305 64 CURVE SMOOTH"
);
},
{
closed = 1;
nodes = (
"141 213 OFFCURVE",
"132 213 OFFCURVE",
"130 218 CURVE SMOOTH",
"128 225 OFFCURVE",
"137 240 OFFCURVE",
"140 245 CURVE SMOOTH",
"143 249 OFFCURVE",
"141 250 OFFCURVE",
"141 253 CURVE SMOOTH",
"141 265 LINE SMOOTH",
"141 276 OFFCURVE",
"167 289 OFFCURVE",
"167 264 CURVE SMOOTH",
"167 254 OFFCURVE",
"165 253 OFFCURVE",
"153 253 CURVE SMOOTH",
"149 253 LINE",
"151 248 LINE SMOOTH",
"152 246 OFFCURVE",
"164 244 OFFCURVE",
"168 246 CURVE SMOOTH",
"174 248 OFFCURVE",
"184 234 OFFCURVE",
"177 230 CURVE SMOOTH",
"145 214 LINE"
);
},
{
closed = 1;
nodes = (
"183 161 LINE",
"183 285 LINE",
"184 285 LINE",
"187 160 LINE"
);
},
{
closed = 1;
nodes = (
"296 97 OFFCURVE",
"278 108 OFFCURVE",
"278 119 CURVE SMOOTH",
"278 132 OFFCURVE",
"278 146 OFFCURVE",
"277 148 CURVE",
"277 150 OFFCURVE",
"273 153 OFFCURVE",
"273 148 CURVE SMOOTH",
"273 135 LINE SMOOTH",
"273 120 OFFCURVE",
"256 133 OFFCURVE",
"256 144 CURVE SMOOTH",
"256 188 LINE",
"251 196 LINE",
"251 169 LINE SMOOTH",
"251 144 OFFCURVE",
"241 167 OFFCURVE",
"239 190 CURVE SMOOTH",
"237 224 LINE SMOOTH",
"237 226 OFFCURVE",
"231 226 OFFCURVE",
"231 222 CURVE SMOOTH",
"230 205 LINE SMOOTH",
"229 190 OFFCURVE",
"228 199 OFFCURVE",
"224 210 CURVE SMOOTH",
"221 218 OFFCURVE",
"219 228 OFFCURVE",
"213 232 CURVE SMOOTH",
"208 236 OFFCURVE",
"200 256 OFFCURVE",
"196 262 CURVE SMOOTH",
"192 269 OFFCURVE",
"191 280 OFFCURVE",
"191 282 CURVE SMOOTH",
"191 284 OFFCURVE",
"188 295 OFFCURVE",
"192 295 CURVE SMOOTH",
"220 293 LINE",
"226 299 LINE",
"213 299 OFFCURVE",
"195 299 OFFCURVE",
"191 300 CURVE SMOOTH",
"186 301 OFFCURVE",
"183 307 OFFCURVE",
"192 307 CURVE SMOOTH",
"238 307 LINE",
"245 312 LINE",
"227 314 OFFCURVE",
"194 312 OFFCURVE",
"187 314 CURVE",
"177 315 OFFCURVE",
"181 322 OFFCURVE",
"188 322 CURVE SMOOTH",
"301 322 LINE SMOOTH",
"305 322 OFFCURVE",
"308 318 OFFCURVE",
"305 311 CURVE",
"301 305 OFFCURVE",
"297 299 OFFCURVE",
"297 293 CURVE",
"297 293 OFFCURVE",
"298 283 OFFCURVE",
"298 182 CURVE SMOOTH",
"298 174 OFFCURVE",
"296 170 OFFCURVE",
"296 162 CURVE SMOOTH",
"296 118 LINE SMOOTH"
);
},
{
closed = 1;
nodes = (
"309 198 LINE",
"343 198 OFFCURVE",
"402 196 OFFCURVE",
"410 198 CURVE",
"414 194 OFFCURVE",
"432 191 OFFCURVE",
"438 198 CURVE",
"481 198 LINE SMOOTH",
"483 198 OFFCURVE",
"493 187 OFFCURVE",
"478 186 CURVE SMOOTH",
"465 186 OFFCURVE",
"413 184 OFFCURVE",
"406 184 CURVE SMOOTH",
"398 184 OFFCURVE",
"378 177 OFFCURVE",
"402 177 CURVE SMOOTH",
"426 177 OFFCURVE",
"495 179 OFFCURVE",
"495 177 CURVE SMOOTH",
"495 175 OFFCURVE",
"492 169 OFFCURVE",
"471 168 CURVE SMOOTH",
"375 162 LINE",
"364 157 LINE",
"439 157 LINE SMOOTH",
"463 157 OFFCURVE",
"465 143 OFFCURVE",
"440 141 CURVE SMOOTH",
"355 139 LINE",
"342 134 LINE",
"399 133 LINE SMOOTH",
"438 133 OFFCURVE",
"418 120 OFFCURVE",
"398 119 CURVE SMOOTH",
"328 116 LINE",
"328 113 LINE",
"364 112 LINE SMOOTH",
"398 112 OFFCURVE",
"380 96 OFFCURVE",
"362 96 CURVE SMOOTH",
"307 96 LINE"
);
},
{
closed = 1;
nodes = (
"327 206 OFFCURVE",
"320 214 OFFCURVE",
"315 217 CURVE",
"309 209 LINE SMOOTH",
"305 205 OFFCURVE",
"303 205 OFFCURVE",
"308 210 CURVE SMOOTH",
"313 217 OFFCURVE",
"316 230 OFFCURVE",
"320 241 CURVE SMOOTH",
"324 250 OFFCURVE",
"323 242 OFFCURVE",
"320 232 CURVE",
"317 226 OFFCURVE",
"313 221 OFFCURVE",
"319 216 CURVE SMOOTH",
"324 211 OFFCURVE",
"329 208 OFFCURVE",
"332 210 CURVE SMOOTH",
"347 222 OFFCURVE",
"332 208 OFFCURVE",
"329 207 CURVE SMOOTH"
);
},
{
closed = 1;
nodes = (
"351 202 OFFCURVE",
"347 206 OFFCURVE",
"350 206 CURVE SMOOTH",
"356 206 OFFCURVE",
"362 202 OFFCURVE",
"367 207 CURVE",
"373 211 OFFCURVE",
"380 209 OFFCURVE",
"383 207 CURVE",
"386 206 OFFCURVE",
"392 206 OFFCURVE",
"394 208 CURVE",
"395 210 OFFCURVE",
"402 210 OFFCURVE",
"403 210 CURVE",
"405 209 OFFCURVE",
"406 206 OFFCURVE",
"402 207 CURVE SMOOTH",
"400 208 OFFCURVE",
"394 206 OFFCURVE",
"394 205 CURVE",
"391 202 OFFCURVE",
"382 205 OFFCURVE",
"378 207 CURVE SMOOTH",
"372 210 OFFCURVE",
"370 206 OFFCURVE",
"367 203 CURVE",
"365 202 OFFCURVE",
"356 202 OFFCURVE",
"355 202 CURVE SMOOTH"
);
},
{
closed = 1;
nodes = (
"333 230 OFFCURVE",
"337 246 OFFCURVE",
"338 254 CURVE SMOOTH",
"340 262 OFFCURVE",
"345 275 OFFCURVE",
"347 285 CURVE",
"349 289 OFFCURVE",
"348 281 OFFCURVE",
"347 279 CURVE",
"341 257 LINE SMOOTH",
"340 254 OFFCURVE",
"337 237 OFFCURVE",
"335 226 CURVE SMOOTH",
"333 218 OFFCURVE",
"333 221 OFFCURVE",
"333 225 CURVE SMOOTH"
);
},
{
closed = 1;
nodes = (
"394 230 LINE SMOOTH",
"394 234 OFFCURVE",
"397 233 OFFCURVE",
"397 230 CURVE SMOOTH",
"397 218 LINE SMOOTH",
"397 211 OFFCURVE",
"394 218 OFFCURVE",
"394 218 CURVE"
);
},
{
closed = 1;
nodes = (
"305 268 OFFCURVE",
"304 266 OFFCURVE",
"307 273 CURVE SMOOTH",
"309 280 OFFCURVE",
"320 299 OFFCURVE",
"327 303 CURVE",
"331 307 OFFCURVE",
"333 311 OFFCURVE",
"333 314 CURVE SMOOTH",
"333 322 LINE SMOOTH",
"333 327 OFFCURVE",
"336 337 OFFCURVE",
"337 326 CURVE SMOOTH",
"337 315 OFFCURVE",
"337 310 OFFCURVE",
"335 307 CURVE SMOOTH",
"332 304 OFFCURVE",
"316 291 OFFCURVE",
"312 282 CURVE SMOOTH",
"308 271 LINE"
);
},
{
closed = 1;
nodes = (
"416 199 OFFCURVE",
"413 199 OFFCURVE",
"417 205 CURVE SMOOTH",
"420 209 OFFCURVE",
"434 211 OFFCURVE",
"435 209 CURVE",
"438 206 OFFCURVE",
"441 202 OFFCURVE",
"434 202 CURVE SMOOTH",
"426 201 OFFCURVE",
"419 199 OFFCURVE",
"418 199 CURVE SMOOTH"
);
},
{
closed = 1;
nodes = (
"257 330 OFFCURVE",
"256 331 OFFCURVE",
"256 332 CURVE SMOOTH",
"257 335 OFFCURVE",
"260 341 OFFCURVE",
"263 346 CURVE SMOOTH",
"265 351 OFFCURVE",
"288 380 OFFCURVE",
"290 383 CURVE SMOOTH",
"293 386 OFFCURVE",
"297 388 OFFCURVE",
"297 387 CURVE",
"298 386 OFFCURVE",
"297 384 OFFCURVE",
"294 383 CURVE",
"293 382 OFFCURVE",
"292 371 OFFCURVE",
"290 368 CURVE",
"289 365 OFFCURVE",
"288 348 OFFCURVE",
"286 341 CURVE SMOOTH",
"285 334 OFFCURVE",
"285 330 OFFCURVE",
"274 335 CURVE SMOOTH",
"263 339 LINE",
"262 339 OFFCURVE",
"258 334 OFFCURVE",
"258 332 CURVE SMOOTH",
"258 331 OFFCURVE",
"261 329 OFFCURVE",
"261 327 CURVE",
"261 327 OFFCURVE",
"261 326 OFFCURVE",
"259 327 CURVE"
);
},
{
closed = 1;
nodes = (
"374 239 OFFCURVE",
"378 278 OFFCURVE",
"375 281 CURVE",
"374 285 OFFCURVE",
"361 316 OFFCURVE",
"360 319 CURVE SMOOTH",
"359 322 OFFCURVE",
"360 325 OFFCURVE",
"361 323 CURVE SMOOTH",
"365 311 OFFCURVE",
"374 291 OFFCURVE",
"375 289 CURVE",
"378 286 OFFCURVE",
"379 285 OFFCURVE",
"379 270 CURVE SMOOTH",
"379 254 OFFCURVE",
"374 229 OFFCURVE",
"375 222 CURVE",
"378 216 OFFCURVE",
"374 206 OFFCURVE",
"374 222 CURVE SMOOTH"
);
},
{
closed = 1;
nodes = (
"409 253 LINE",
"409 253 OFFCURVE",
"410 260 OFFCURVE",
"410 253 CURVE SMOOTH",
"411 222 LINE SMOOTH",
"411 220 OFFCURVE",
"410 218 OFFCURVE",
"410 222 CURVE SMOOTH"
);
},
{
closed = 1;
nodes = (
"363 341 OFFCURVE",
"350 375 OFFCURVE",
"350 375 CURVE",
"347 389 OFFCURVE",
"360 354 OFFCURVE",
"361 352 CURVE SMOOTH",
"362 348 OFFCURVE",
"365 341 OFFCURVE",
"370 335 CURVE",
"378 329 OFFCURVE",
"371 331 OFFCURVE",
"366 335 CURVE"
);
},
{
closed = 1;
nodes = (
"373 337 OFFCURVE",
"370 337 OFFCURVE",
"373 341 CURVE SMOOTH",
"375 345 OFFCURVE",
"378 364 OFFCURVE",
"378 376 CURVE",
"379 379 OFFCURVE",
"380 378 OFFCURVE",
"380 374 CURVE SMOOTH",
"380 371 OFFCURVE",
"378 344 OFFCURVE",
"374 339 CURVE SMOOTH"
);
},
{
closed = 1;
nodes = (
"365 347 OFFCURVE",
"362 347 OFFCURVE",
"365 351 CURVE SMOOTH",
"367 354 OFFCURVE",
"371 373 OFFCURVE",
"374 384 CURVE",
"374 381 LINE SMOOTH",
"374 379 OFFCURVE",
"368 351 OFFCURVE",
"366 348 CURVE SMOOTH"
);
},
{
closed = 1;
nodes = (
"442 210 OFFCURVE",
"437 216 OFFCURVE",
"435 217 CURVE",
"435 218 OFFCURVE",
"433 218 OFFCURVE",
"432 218 CURVE",
"431 217 OFFCURVE",
"418 246 OFFCURVE",
"417 253 CURVE",
"414 261 OFFCURVE",
"406 277 OFFCURVE",
"406 282 CURVE SMOOTH",
"406 289 OFFCURVE",
"406 304 OFFCURVE",
"410 304 CURVE SMOOTH",
"414 304 OFFCURVE",
"434 304 OFFCURVE",
"435 305 CURVE SMOOTH",
"439 308 LINE",
"439 311 OFFCURVE",
"445 322 OFFCURVE",
"435 312 CURVE SMOOTH",
"433 310 OFFCURVE",
"425 308 OFFCURVE",
"419 310 CURVE SMOOTH",
"414 311 OFFCURVE",
"409 311 OFFCURVE",
"406 307 CURVE SMOOTH",
"402 301 OFFCURVE",
"402 296 OFFCURVE",
"402 292 CURVE SMOOTH",
"402 281 LINE SMOOTH",
"402 279 OFFCURVE",
"392 272 OFFCURVE",
"394 283 CURVE",
"398 295 OFFCURVE",
"410 316 OFFCURVE",
"412 319 CURVE SMOOTH",
"424 339 LINE",
"444 377 LINE SMOOTH",
"446 380 OFFCURVE",
"459 384 OFFCURVE",
"457 374 CURVE SMOOTH",
"454 364 OFFCURVE",
"449 350 OFFCURVE",
"450 344 CURVE",
"453 338 OFFCURVE",
"456 334 OFFCURVE",
"457 331 CURVE",
"459 330 OFFCURVE",
"465 324 OFFCURVE",
"461 334 CURVE SMOOTH",
"457 344 OFFCURVE",
"457 348 OFFCURVE",
"458 355 CURVE SMOOTH",
"461 371 LINE SMOOTH",
"461 372 OFFCURVE",
"461 374 OFFCURVE",
"464 371 CURVE",
"466 367 OFFCURVE",
"468 363 OFFCURVE",
"472 364 CURVE SMOOTH",
"475 365 OFFCURVE",
"478 365 OFFCURVE",
"479 368 CURVE SMOOTH",
"480 371 OFFCURVE",
"485 374 OFFCURVE",
"485 371 CURVE SMOOTH",
"485 369 OFFCURVE",
"483 364 OFFCURVE",
"483 360 CURVE SMOOTH",
"481 344 LINE SMOOTH",
"481 339 OFFCURVE",
"477 331 OFFCURVE",
"477 343 CURVE SMOOTH",
"477 352 OFFCURVE",
"477 361 OFFCURVE",
"475 361 CURVE SMOOTH",
"474 361 OFFCURVE",
"472 362 OFFCURVE",
"473 355 CURVE SMOOTH",
"474 348 OFFCURVE",
"475 339 OFFCURVE",
"475 335 CURVE SMOOTH",
"475 330 OFFCURVE",
"471 314 OFFCURVE",
"470 312 CURVE SMOOTH",
"469 311 OFFCURVE",
"466 305 OFFCURVE",
"466 312 CURVE SMOOTH",
"466 319 OFFCURVE",
"461 311 OFFCURVE",
"461 311 CURVE",
"461 308 OFFCURVE",
"459 303 OFFCURVE",
"463 300 CURVE",
"466 299 OFFCURVE",
"469 299 OFFCURVE",
"473 307 CURVE SMOOTH",
"476 315 OFFCURVE",
"478 323 OFFCURVE",
"479 326 CURVE SMOOTH",
"480 330 OFFCURVE",
"483 335 OFFCURVE",
"483 338 CURVE SMOOTH",
"483 343 OFFCURVE",
"486 346 OFFCURVE",
"487 344 CURVE",
"488 339 OFFCURVE",
"485 334 OFFCURVE",
"483 327 CURVE SMOOTH",
"481 320 OFFCURVE",
"480 307 OFFCURVE",
"481 303 CURVE SMOOTH",
"482 297 OFFCURVE",
"470 276 OFFCURVE",
"468 275 CURVE SMOOTH",
"466 274 OFFCURVE",
"463 266 OFFCURVE",
"453 272 CURVE",
"435 287 LINE",
"434 289 OFFCURVE",
"429 292 OFFCURVE",
"434 284 CURVE SMOOTH",
"449 261 LINE SMOOTH",
"454 253 OFFCURVE",
"466 254 OFFCURVE",
"469 260 CURVE SMOOTH",
"475 272 OFFCURVE",
"480 279 OFFCURVE",
"481 284 CURVE SMOOTH",
"482 289 OFFCURVE",
"490 311 OFFCURVE",
"486 289 CURVE SMOOTH",
"482 268 OFFCURVE",
"474 252 OFFCURVE",
"470 249 CURVE SMOOTH",
"466 246 OFFCURVE",
"458 234 OFFCURVE",
"444 250 CURVE SMOOTH",
"422 274 LINE SMOOTH",
"420 276 OFFCURVE",
"406 289 OFFCURVE",
"418 271 CURVE SMOOTH",
"431 254 OFFCURVE",
"452 215 OFFCURVE",
"471 234 CURVE SMOOTH",
"477 239 LINE SMOOTH",
"479 241 OFFCURVE",
"481 240 OFFCURVE",
"476 234 CURVE SMOOTH",
"472 230 OFFCURVE",
"460 211 OFFCURVE",
"444 222 CURVE SMOOTH",
"426 232 OFFCURVE",
"439 218 OFFCURVE",
"439 218 CURVE",
"440 217 OFFCURVE",
"460 199 OFFCURVE",
"470 215 CURVE SMOOTH",
"480 230 OFFCURVE",
"483 242 OFFCURVE",
"483 244 CURVE SMOOTH",
"488 273 LINE SMOOTH",
"489 279 OFFCURVE",
"490 305 OFFCURVE",
"491 279 CURVE SMOOTH",
"492 253 OFFCURVE",
"489 242 OFFCURVE",
"488 238 CURVE SMOOTH",
"487 233 OFFCURVE",
"477 209 OFFCURVE",
"471 206 CURVE SMOOTH",
"465 203 OFFCURVE",
"454 201 OFFCURVE",
"448 206 CURVE SMOOTH"
);
},
{
closed = 1;
nodes = (
"354 382 OFFCURVE",
"352 388 OFFCURVE",
"352 394 CURVE SMOOTH",
"352 400 OFFCURVE",
"356 408 OFFCURVE",
"360 408 CURVE SMOOTH",
"365 408 OFFCURVE",
"369 400 OFFCURVE",
"369 394 CURVE SMOOTH",
"369 388 OFFCURVE",
"367 382 OFFCURVE",
"362 382 CURVE SMOOTH"
);
},
{
closed = 1;
nodes = (
"347 416 OFFCURVE",
"347 416 OFFCURVE",
"347 417 CURVE",
"347 417 OFFCURVE",
"347 418 OFFCURVE",
"348 418 CURVE SMOOTH",
"349 418 OFFCURVE",
"350 417 OFFCURVE",
"350 417 CURVE",
"350 416 OFFCURVE",
"349 416 OFFCURVE",
"348 416 CURVE SMOOTH"
);
},
{
closed = 1;
nodes = (
"355 416 OFFCURVE",
"354 417 OFFCURVE",
"354 417 CURVE",
"354 418 OFFCURVE",
"355 420 OFFCURVE",
"356 420 CURVE SMOOTH",
"357 420 OFFCURVE",
"357 418 OFFCURVE",
"357 417 CURVE",
"357 417 OFFCURVE",
"357 416 OFFCURVE",
"356 416 CURVE SMOOTH"
);
},
{
closed = 1;
nodes = (
"556 81 OFFCURVE",
"548 82 OFFCURVE",
"548 100 CURVE SMOOTH",
"548 116 LINE SMOOTH",
"548 122 OFFCURVE",
"544 122 OFFCURVE",
"544 116 CURVE SMOOTH",
"544 107 LINE SMOOTH",
"544 104 OFFCURVE",
"540 93 OFFCURVE",
"540 109 CURVE SMOOTH",
"540 138 LINE SMOOTH",
"540 144 OFFCURVE",
"534 151 OFFCURVE",
"534 138 CURVE SMOOTH",
"534 129 LINE SMOOTH",
"534 120 OFFCURVE",
"528 118 OFFCURVE",
"527 136 CURVE SMOOTH",
"527 153 OFFCURVE",
"521 162 OFFCURVE",
"521 170 CURVE SMOOTH",
"519 249 LINE",
"519 292 LINE SMOOTH",
"519 299 OFFCURVE",
"520 314 OFFCURVE",
"540 314 CURVE SMOOTH",
"612 314 LINE SMOOTH",
"628 314 OFFCURVE",
"626 316 OFFCURVE",
"628 287 CURVE SMOOTH",
"632 222 LINE SMOOTH",
"632 214 OFFCURVE",
"628 217 OFFCURVE",
"628 225 CURVE SMOOTH",
"628 232 OFFCURVE",
"625 238 OFFCURVE",
"624 225 CURVE SMOOTH",
"623 199 LINE SMOOTH",
"623 195 OFFCURVE",
"617 191 OFFCURVE",
"616 202 CURVE SMOOTH",
"616 211 OFFCURVE",
"610 222 OFFCURVE",
"610 209 CURVE SMOOTH",
"610 179 LINE SMOOTH",
"610 176 OFFCURVE",
"607 164 OFFCURVE",
"605 179 CURVE SMOOTH",
"604 196 OFFCURVE",
"601 189 OFFCURVE",
"601 182 CURVE SMOOTH",
"598 153 LINE SMOOTH",
"598 149 OFFCURVE",
"592 148 OFFCURVE",
"592 154 CURVE SMOOTH",
"592 161 OFFCURVE",
"589 160 OFFCURVE",
"589 155 CURVE SMOOTH",
"590 140 LINE SMOOTH",
"590 135 OFFCURVE",
"584 122 OFFCURVE",
"583 139 CURVE SMOOTH",
"582 155 OFFCURVE",
"576 154 OFFCURVE",
"575 143 CURVE SMOOTH",
"574 106 LINE SMOOTH",
"573 89 OFFCURVE",
"567 89 OFFCURVE",
"565 112 CURVE SMOOTH",
"563 143 LINE SMOOTH",
"562 154 OFFCURVE",
"557 166 OFFCURVE",
"556 143 CURVE SMOOTH",
"556 97 LINE SMOOTH"
);
},
{
closed = 1;
nodes = (
"361 416 OFFCURVE",
"360 417 OFFCURVE",
"360 417 CURVE",
"360 418 OFFCURVE",
"361 420 OFFCURVE",
"362 420 CURVE SMOOTH",
"363 420 OFFCURVE",
"364 418 OFFCURVE",
"364 417 CURVE",
"364 417 OFFCURVE",
"363 416 OFFCURVE",
"362 416 CURVE SMOOTH"
);
},
{
closed = 1;
nodes = (
"368 416 OFFCURVE",
"367 416 OFFCURVE",
"367 417 CURVE",
"367 417 OFFCURVE",
"368 418 OFFCURVE",
"369 418 CURVE SMOOTH",
"370 418 OFFCURVE",
"371 417 OFFCURVE",
"371 417 CURVE",
"371 416 OFFCURVE",
"370 416 OFFCURVE",
"369 416 CURVE SMOOTH"
);
},
{
closed = 1;
nodes = (
"312 472 LINE",
"311 475 OFFCURVE",
"313 475 OFFCURVE",
"315 475 CURVE SMOOTH",
"316 475 OFFCURVE",
"325 474 OFFCURVE",
"329 473 CURVE SMOOTH",
"333 472 OFFCURVE",
"343 473 OFFCURVE",
"349 474 CURVE SMOOTH",
"356 475 OFFCURVE",
"350 471 OFFCURVE",
"347 471 CURVE SMOOTH",
"327 471 LINE SMOOTH",
"324 471 OFFCURVE",
"320 466 OFFCURVE",
"320 465 CURVE SMOOTH",
"320 464 OFFCURVE",
"331 448 OFFCURVE",
"333 447 CURVE SMOOTH",
"335 446 OFFCURVE",
"335 448 OFFCURVE",
"338 448 CURVE SMOOTH",
"342 448 OFFCURVE",
"339 446 OFFCURVE",
"339 444 CURVE",
"331 444 LINE"
);
},
{
closed = 1;
nodes = (
"320 315 OFFCURVE",
"312 325 OFFCURVE",
"312 326 CURVE",
"311 327 OFFCURVE",
"303 325 OFFCURVE",
"294 326 CURVE SMOOTH",
"289 327 OFFCURVE",
"293 362 OFFCURVE",
"297 371 CURVE",
"298 378 OFFCURVE",
"301 385 OFFCURVE",
"307 400 CURVE SMOOTH",
"312 416 OFFCURVE",
"329 433 OFFCURVE",
"329 435 CURVE",
"329 435 OFFCURVE",
"335 432 OFFCURVE",
"337 433 CURVE",
"338 435 OFFCURVE",
"340 440 OFFCURVE",
"345 444 CURVE",
"349 452 OFFCURVE",
"361 453 OFFCURVE",
"369 457 CURVE",
"374 453 LINE",
"380 453 LINE SMOOTH",
"382 453 OFFCURVE",
"387 463 OFFCURVE",
"388 463 CURVE SMOOTH",
"390 463 OFFCURVE",
"406 468 OFFCURVE",
"426 468 CURVE SMOOTH",
"446 468 OFFCURVE",
"473 463 OFFCURVE",
"503 440 CURVE SMOOTH",
"530 417 OFFCURVE",
"540 368 OFFCURVE",
"539 334 CURVE",
"535 334 LINE",
"535 335 OFFCURVE",
"534 343 OFFCURVE",
"531 348 CURVE",
"530 352 OFFCURVE",
"522 369 OFFCURVE",
"519 372 CURVE SMOOTH",
"511 379 OFFCURVE",
"504 392 OFFCURVE",
"509 397 CURVE",
"514 400 OFFCURVE",
"518 413 OFFCURVE",
"516 416 CURVE SMOOTH",
"515 418 OFFCURVE",
"503 436 OFFCURVE",
"500 439 CURVE SMOOTH",
"499 440 OFFCURVE",
"494 439 OFFCURVE",
"492 437 CURVE",
"489 436 OFFCURVE",
"481 431 OFFCURVE",
"479 427 CURVE SMOOTH",
"477 424 OFFCURVE",
"473 414 OFFCURVE",
"471 414 CURVE SMOOTH",
"470 414 LINE",
"474 403 LINE SMOOTH",
"475 401 OFFCURVE",
"472 400 OFFCURVE",
"471 402 CURVE SMOOTH",
"467 414 LINE",
"463 414 LINE",
"465 409 LINE",
"466 408 OFFCURVE",
"468 403 OFFCURVE",
"468 401 CURVE SMOOTH",
"468 400 OFFCURVE",
"466 400 OFFCURVE",
"466 401 CURVE",
"459 414 LINE",
"457 414 LINE SMOOTH",
"454 414 OFFCURVE",
"457 410 OFFCURVE",
"457 408 CURVE",
"458 405 OFFCURVE",
"460 399 OFFCURVE",
"460 394 CURVE SMOOTH",
"460 390 OFFCURVE",
"469 395 OFFCURVE",
"470 397 CURVE SMOOTH",
"471 398 OFFCURVE",
"490 397 OFFCURVE",
"490 394 CURVE SMOOTH",
"490 392 OFFCURVE",
"486 383 OFFCURVE",
"482 379 CURVE SMOOTH",
"478 374 OFFCURVE",
"469 373 OFFCURVE",
"467 375 CURVE",
"466 377 OFFCURVE",
"464 384 OFFCURVE",
"462 386 CURVE SMOOTH",
"460 388 OFFCURVE",
"438 386 OFFCURVE",
"435 388 CURVE",
"432 389 OFFCURVE",
"431 402 OFFCURVE",
"432 405 CURVE SMOOTH",
"433 408 OFFCURVE",
"442 417 OFFCURVE",
"446 420 CURVE",
"448 424 OFFCURVE",
"448 436 OFFCURVE",
"445 440 CURVE",
"439 444 OFFCURVE",
"426 446 OFFCURVE",
"418 441 CURVE",
"413 439 OFFCURVE",
"410 433 OFFCURVE",
"410 431 CURVE SMOOTH",
"409 427 OFFCURVE",
"398 416 OFFCURVE",
"395 413 CURVE SMOOTH",
"394 412 OFFCURVE",
"384 389 OFFCURVE",
"383 388 CURVE SMOOTH",
"382 386 OFFCURVE",
"380 386 OFFCURVE",
"378 386 CURVE SMOOTH",
"375 386 OFFCURVE",
"374 388 OFFCURVE",
"374 389 CURVE SMOOTH",
"374 391 OFFCURVE",
"371 409 OFFCURVE",
"372 412 CURVE",
"373 413 OFFCURVE",
"378 420 OFFCURVE",
"375 422 CURVE",
"374 424 OFFCURVE",
"343 424 OFFCURVE",
"342 422 CURVE SMOOTH",
"341 421 OFFCURVE",
"343 414 OFFCURVE",
"344 412 CURVE SMOOTH",
"345 410 OFFCURVE",
"347 409 OFFCURVE",
"347 408 CURVE SMOOTH",
"346 397 LINE SMOOTH",
"346 393 OFFCURVE",
"348 385 OFFCURVE",
"347 382 CURVE",
"347 380 OFFCURVE",
"340 368 OFFCURVE",
"337 364 CURVE SMOOTH",
"335 361 OFFCURVE",
"332 347 OFFCURVE",
"329 338 CURVE",
"329 330 OFFCURVE",
"325 315 OFFCURVE",
"323 315 CURVE SMOOTH"
);
},
{
closed = 1;
nodes = (
"492 190 OFFCURVE",
"493 198 OFFCURVE",
"496 198 CURVE",
"500 201 OFFCURVE",
"503 213 OFFCURVE",
"503 218 CURVE SMOOTH",
"503 276 LINE",
"501 289 OFFCURVE",
"503 314 OFFCURVE",
"504 316 CURVE",
"507 319 OFFCURVE",
"507 319 OFFCURVE",
"505 319 CURVE SMOOTH",
"503 319 OFFCURVE",
"499 315 OFFCURVE",
"499 308 CURVE SMOOTH",
"496 243 LINE SMOOTH",
"496 238 OFFCURVE",
"496 230 OFFCURVE",
"489 210 CURVE SMOOTH",
"481 191 OFFCURVE",
"482 207 OFFCURVE",
"482 210 CURVE SMOOTH",
"482 211 OFFCURVE",
"483 214 OFFCURVE",
"489 226 CURVE SMOOTH",
"495 239 OFFCURVE",
"494 249 OFFCURVE",
"494 264 CURVE SMOOTH",
"494 279 OFFCURVE",
"495 310 OFFCURVE",
"496 319 CURVE SMOOTH",
"497 327 OFFCURVE",
"535 327 OFFCURVE",
"546 327 CURVE SMOOTH",
"555 327 OFFCURVE",
"594 330 OFFCURVE",
"628 329 CURVE SMOOTH",
"661 327 OFFCURVE",
"637 319 OFFCURVE",
"632 319 CURVE SMOOTH",
"543 319 LINE",
"528 316 LINE",
"523 316 OFFCURVE",
"515 312 OFFCURVE",
"514 308 CURVE",
"511 305 OFFCURVE",
"515 244 OFFCURVE",
"515 203 CURVE SMOOTH",
"515 162 OFFCURVE",
"512 190 OFFCURVE",
"512 195 CURVE SMOOTH",
"512 199 OFFCURVE",
"511 246 OFFCURVE",
"509 258 CURVE SMOOTH",
"508 269 OFFCURVE",
"509 299 OFFCURVE",
"509 308 CURVE SMOOTH",
"509 318 OFFCURVE",
"519 319 OFFCURVE",
"524 319 CURVE",
"539 322 OFFCURVE",
"543 323 OFFCURVE",
"531 323 CURVE SMOOTH",
"530 323 OFFCURVE",
"511 319 OFFCURVE",
"508 318 CURVE SMOOTH",
"504 316 OFFCURVE",
"503 293 OFFCURVE",
"503 287 CURVE SMOOTH",
"503 281 OFFCURVE",
"507 226 OFFCURVE",
"507 218 CURVE SMOOTH",
"507 210 OFFCURVE",
"504 198 OFFCURVE",
"499 194 CURVE SMOOTH"
);
},
{
closed = 1;
nodes = (
"373 457 OFFCURVE",
"372 463 OFFCURVE",
"368 468 CURVE SMOOTH",
"366 471 OFFCURVE",
"368 472 OFFCURVE",
"371 472 CURVE SMOOTH",
"384 472 LINE SMOOTH",
"386 472 OFFCURVE",
"387 471 OFFCURVE",
"387 469 CURVE",
"386 469 LINE SMOOTH",
"384 469 OFFCURVE",
"384 467 OFFCURVE",
"386 467 CURVE SMOOTH",
"387 467 LINE",
"387 464 OFFCURVE",
"382 457 OFFCURVE",
"378 457 CURVE SMOOTH"
);
},
{
closed = 1;
nodes = (
"379 465 LINE SMOOTH",
"382 465 OFFCURVE",
"382 467 OFFCURVE",
"379 467 CURVE SMOOTH",
"378 467 LINE SMOOTH",
"375 467 OFFCURVE",
"375 465 OFFCURVE",
"378 465 CURVE SMOOTH"
);
},
{
closed = 1;
nodes = (
"485 308 OFFCURVE",
"485 318 OFFCURVE",
"486 323 CURVE SMOOTH",
"487 327 OFFCURVE",
"495 338 OFFCURVE",
"499 339 CURVE",
"503 343 OFFCURVE",
"511 343 OFFCURVE",
"511 343 CURVE",
"519 343 OFFCURVE",
"514 347 OFFCURVE",
"501 347 CURVE SMOOTH",
"495 347 OFFCURVE",
"494 354 OFFCURVE",
"494 359 CURVE SMOOTH",
"494 360 OFFCURVE",
"490 374 OFFCURVE",
"493 375 CURVE SMOOTH",
"500 378 OFFCURVE",
"511 365 OFFCURVE",
"515 356 CURVE SMOOTH",
"519 347 OFFCURVE",
"523 339 OFFCURVE",
"526 337 CURVE SMOOTH",
"528 335 OFFCURVE",
"530 331 OFFCURVE",
"523 331 CURVE SMOOTH",
"518 331 OFFCURVE",
"501 331 OFFCURVE",
"497 329 CURVE SMOOTH",
"494 327 OFFCURVE",
"489 320 OFFCURVE",
"489 316 CURVE SMOOTH",
"489 314 OFFCURVE",
"486 311 OFFCURVE",
"487 308 CURVE",
"488 307 OFFCURVE",
"486 303 OFFCURVE",
"485 307 CURVE SMOOTH"
);
},
{
closed = 1;
nodes = (
"390 469 OFFCURVE",
"390 472 OFFCURVE",
"391 480 CURVE SMOOTH",
"392 488 OFFCURVE",
"383 489 OFFCURVE",
"375 489 CURVE SMOOTH",
"374 489 OFFCURVE",
"367 490 OFFCURVE",
"378 490 CURVE SMOOTH",
"380 490 OFFCURVE",
"384 489 OFFCURVE",
"387 488 CURVE SMOOTH",
"394 485 OFFCURVE",
"394 480 OFFCURVE",
"392 474 CURVE SMOOTH"
);
},
{
closed = 0;
nodes = (
"467 414 LINE",
"467 414 OFFCURVE",
"467 414 OFFCURVE",
"467 414 CURVE SMOOTH"
);
},
{
closed = 1;
nodes = (
"476 416 LINE SMOOTH",
"476 417 OFFCURVE",
"479 417 OFFCURVE",
"479 416 CURVE SMOOTH",
"479 403 LINE SMOOTH",
"479 401 OFFCURVE",
"476 401 OFFCURVE",
"476 403 CURVE SMOOTH"
);
},
{
closed = 1;
nodes = (
"485 400 OFFCURVE",
"481 400 OFFCURVE",
"482 402 CURVE SMOOTH",
"486 416 LINE",
"487 417 OFFCURVE",
"490 416 OFFCURVE",
"489 414 CURVE SMOOTH",
"485 401 LINE"
);
},
{
closed = 1;
nodes = (
"92 278 OFFCURVE",
"101 311 OFFCURVE",
"115 322 CURVE SMOOTH",
"119 325 OFFCURVE",
"120 327 OFFCURVE",
"119 329 CURVE",
"119 331 OFFCURVE",
"115 327 OFFCURVE",
"114 327 CURVE",
"102 316 OFFCURVE",
"88 280 OFFCURVE",
"83 264 CURVE",
"83 264 OFFCURVE",
"82 264 OFFCURVE",
"82 265 CURVE SMOOTH",
"86 282 OFFCURVE",
"99 327 OFFCURVE",
"113 338 CURVE SMOOTH",
"118 343 OFFCURVE",
"119 344 OFFCURVE",
"118 346 CURVE SMOOTH",
"117 348 OFFCURVE",
"113 345 OFFCURVE",
"112 344 CURVE SMOOTH",
"101 332 OFFCURVE",
"83 286 OFFCURVE",
"78 268 CURVE",
"77 268 OFFCURVE",
"76 269 OFFCURVE",
"76 270 CURVE",
"75 270 OFFCURVE",
"75 271 OFFCURVE",
"75 271 CURVE",
"85 299 OFFCURVE",
"101 341 OFFCURVE",
"111 352 CURVE",
"116 356 OFFCURVE",
"118 357 OFFCURVE",
"117 359 CURVE SMOOTH",
"116 361 OFFCURVE",
"112 358 OFFCURVE",
"111 357 CURVE SMOOTH",
"101 348 OFFCURVE",
"83 306 OFFCURVE",
"73 280 CURVE",
"73 282 OFFCURVE",
"72 284 OFFCURVE",
"72 286 CURVE",
"82 313 OFFCURVE",
"98 352 OFFCURVE",
"109 362 CURVE SMOOTH",
"113 366 OFFCURVE",
"115 367 OFFCURVE",
"114 369 CURVE SMOOTH",
"113 371 OFFCURVE",
"110 368 OFFCURVE",
"109 367 CURVE SMOOTH",
"99 358 OFFCURVE",
"80 321 OFFCURVE",
"70 296 CURVE",
"70 297 LINE",
"79 323 OFFCURVE",
"97 365 OFFCURVE",
"109 375 CURVE",
"113 380 OFFCURVE",
"115 380 OFFCURVE",
"114 382 CURVE SMOOTH",
"113 384 OFFCURVE",
"110 381 OFFCURVE",
"109 380 CURVE SMOOTH",
"98 371 OFFCURVE",
"77 331 OFFCURVE",
"69 308 CURVE",
"69 310 LINE",
"77 335 OFFCURVE",
"95 377 OFFCURVE",
"107 388 CURVE SMOOTH",
"111 392 OFFCURVE",
"113 393 OFFCURVE",
"112 395 CURVE SMOOTH",
"111 398 OFFCURVE",
"107 394 OFFCURVE",
"107 393 CURVE",
"96 383 OFFCURVE",
"75 344 OFFCURVE",
"67 321 CURVE",
"67 323 LINE",
"75 346 OFFCURVE",
"95 390 OFFCURVE",
"107 402 CURVE SMOOTH",
"111 407 OFFCURVE",
"113 408 OFFCURVE",
"112 409 CURVE",
"111 412 OFFCURVE",
"107 408 OFFCURVE",
"107 408 CURVE",
"95 396 OFFCURVE",
"73 357 OFFCURVE",
"66 336 CURVE",
"66 339 LINE",
"73 360 OFFCURVE",
"94 405 OFFCURVE",
"107 417 CURVE SMOOTH",
"111 421 OFFCURVE",
"113 422 OFFCURVE",
"112 424 CURVE SMOOTH",
"111 426 OFFCURVE",
"107 424 OFFCURVE",
"107 422 CURVE",
"94 413 OFFCURVE",
"71 372 OFFCURVE",
"66 352 CURVE",
"66 356 LINE",
"72 373 OFFCURVE",
"92 418 OFFCURVE",
"107 428 CURVE",
"111 432 OFFCURVE",
"113 435 OFFCURVE",
"112 436 CURVE SMOOTH",
"111 437 OFFCURVE",
"107 435 OFFCURVE",
"107 435 CURVE",
"95 423 OFFCURVE",
"72 388 OFFCURVE",
"66 370 CURVE",
"67 377 LINE",
"73 392 OFFCURVE",
"91 431 OFFCURVE",
"107 441 CURVE SMOOTH",
"111 444 OFFCURVE",
"113 447 OFFCURVE",
"112 448 CURVE",
"111 452 OFFCURVE",
"107 448 OFFCURVE",
"107 447 CURVE",
"94 438 OFFCURVE",
"75 406 OFFCURVE",
"68 392 CURVE",
"68 394 OFFCURVE",
"68 396 OFFCURVE",
"69 397 CURVE",
"77 414 OFFCURVE",
"95 444 OFFCURVE",
"107 455 CURVE",
"111 460 OFFCURVE",
"113 461 OFFCURVE",
"112 463 CURVE SMOOTH",
"111 464 OFFCURVE",
"107 461 OFFCURVE",
"107 461 CURVE",
"96 453 OFFCURVE",
"78 423 OFFCURVE",
"70 408 CURVE",
"71 411 OFFCURVE",
"71 413 OFFCURVE",
"71 416 CURVE",
"81 432 OFFCURVE",
"96 456 OFFCURVE",
"107 467 CURVE SMOOTH",
"111 472 OFFCURVE",
"113 472 OFFCURVE",
"112 474 CURVE SMOOTH",
"111 476 OFFCURVE",
"107 473 OFFCURVE",
"107 472 CURVE",
"97 465 OFFCURVE",
"82 441 OFFCURVE",
"74 429 CURVE",
"77 440 LINE",
"86 454 OFFCURVE",
"97 470 OFFCURVE",
"107 479 CURVE SMOOTH",
"111 483 OFFCURVE",
"113 484 OFFCURVE",
"112 486 CURVE SMOOTH",
"111 488 OFFCURVE",
"107 485 OFFCURVE",
"107 484 CURVE",
"100 479 OFFCURVE",
"89 464 OFFCURVE",
"80 453 CURVE",
"83 460 LINE",
"90 471 OFFCURVE",
"98 481 OFFCURVE",
"107 489 CURVE",
"111 494 OFFCURVE",
"113 495 OFFCURVE",
"112 497 CURVE SMOOTH",
"111 498 OFFCURVE",
"107 496 OFFCURVE",
"107 495 CURVE",
"99 490 OFFCURVE",
"93 483 OFFCURVE",
"87 474 CURVE",
"92 485 LINE SMOOTH",
"94 489 OFFCURVE",
"98 492 OFFCURVE",
"102 497 CURVE",
"107 501 OFFCURVE",
"114 508 OFFCURVE",
"113 510 CURVE SMOOTH",
"112 511 OFFCURVE",
"109 509 OFFCURVE",
"107 508 CURVE",
"103 503 OFFCURVE",
"100 499 OFFCURVE",
"96 495 CURVE",
"98 500 OFFCURVE",
"100 505 OFFCURVE",
"103 509 CURVE",
"111 515 LINE",
"115 517 OFFCURVE",
"118 521 OFFCURVE",
"117 522 CURVE SMOOTH",
"116 524 OFFCURVE",
"112 521 OFFCURVE",
"111 521 CURVE",
"107 518 LINE",
"167 628 OFFCURVE",
"285 699 OFFCURVE",
"411 699 CURVE SMOOTH",
"593 699 OFFCURVE",
"766 539 OFFCURVE",
"766 351 CURVE SMOOTH",
"766 343 OFFCURVE",
"766 334 OFFCURVE",
"765 326 CURVE",
"762 331 LINE SMOOTH",
"760 334 OFFCURVE",
"758 334 OFFCURVE",
"752 334 CURVE SMOOTH",
"747 334 OFFCURVE",
"741 330 OFFCURVE",
"741 327 CURVE SMOOTH",
"741 324 OFFCURVE",
"738 319 OFFCURVE",
"734 318 CURVE SMOOTH",
"727 316 OFFCURVE",
"719 300 OFFCURVE",
"719 293 CURVE SMOOTH",
"719 285 OFFCURVE",
"713 289 OFFCURVE",
"712 291 CURVE SMOOTH",
"711 292 OFFCURVE",
"707 304 OFFCURVE",
"711 311 CURVE SMOOTH",
"715 318 OFFCURVE",
"718 319 OFFCURVE",
"700 334 CURVE",
"695 335 OFFCURVE",
"692 335 OFFCURVE",
"690 331 CURVE",
"667 299 LINE",
"657 299 LINE SMOOTH",
"653 299 OFFCURVE",
"649 284 OFFCURVE",
"644 279 CURVE",
"644 307 LINE",
"652 308 OFFCURVE",
"657 320 OFFCURVE",
"657 326 CURVE SMOOTH",
"656 331 OFFCURVE",
"661 332 OFFCURVE",
"667 334 CURVE SMOOTH",
"672 335 OFFCURVE",
"672 335 OFFCURVE",
"668 335 CURVE SMOOTH",
"551 335 LINE SMOOTH",
"549 335 OFFCURVE",
"548 343 OFFCURVE",
"548 352 CURVE SMOOTH",
"548 361 OFFCURVE",
"547 377 OFFCURVE",
"544 397 CURVE SMOOTH",
"540 416 OFFCURVE",
"520 455 OFFCURVE",
"503 468 CURVE SMOOTH",
"489 478 OFFCURVE",
"496 481 OFFCURVE",
"499 485 CURVE SMOOTH",
"503 490 OFFCURVE",
"534 497 OFFCURVE",
"552 501 CURVE SMOOTH",
"570 507 OFFCURVE",
"568 510 OFFCURVE",
"565 510 CURVE SMOOTH",
"538 511 LINE SMOOTH",
"522 512 OFFCURVE",
"499 509 OFFCURVE",
"493 507 CURVE SMOOTH",
"487 506 OFFCURVE",
"461 499 OFFCURVE",
"457 502 CURVE",
"454 506 OFFCURVE",
"446 507 OFFCURVE",
"442 507 CURVE SMOOTH",
"439 507 OFFCURVE",
"422 497 OFFCURVE",
"414 494 CURVE SMOOTH",
"407 491 OFFCURVE",
"378 492 OFFCURVE",
"374 491 CURVE SMOOTH",
"370 490 OFFCURVE",
"366 485 OFFCURVE",
"364 484 CURVE SMOOTH",
"361 483 OFFCURVE",
"356 483 OFFCURVE",
"355 485 CURVE SMOOTH",
"354 487 OFFCURVE",
"346 489 OFFCURVE",
"341 489 CURVE SMOOTH",
"335 489 OFFCURVE",
"308 486 OFFCURVE",
"301 485 CURVE SMOOTH",
"294 484 OFFCURVE",
"293 478 OFFCURVE",
"293 475 CURVE",
"296 470 OFFCURVE",
"305 459 OFFCURVE",
"311 455 CURVE SMOOTH",
"316 452 OFFCURVE",
"315 452 OFFCURVE",
"312 448 CURVE",
"297 433 OFFCURVE",
"293 428 OFFCURVE",
"283 401 CURVE",
"279 399 OFFCURVE",
"262 384 OFFCURVE",
"260 371 CURVE SMOOTH",
"258 359 OFFCURVE",
"243 335 OFFCURVE",
"240 329 CURVE SMOOTH",
"238 323 OFFCURVE",
"238 329 OFFCURVE",
"238 330 CURVE SMOOTH",
"238 331 OFFCURVE",
"245 343 OFFCURVE",
"248 348 CURVE",
"234 357 LINE SMOOTH",
"230 359 OFFCURVE",
"225 359 OFFCURVE",
"220 355 CURVE SMOOTH",
"176 325 LINE",
"173 325 OFFCURVE",
"161 326 OFFCURVE",
"161 324 CURVE SMOOTH",
"161 323 OFFCURVE",
"161 316 OFFCURVE",
"171 316 CURVE SMOOTH",
"175 316 OFFCURVE",
"175 303 OFFCURVE",
"172 301 CURVE SMOOTH",
"169 299 OFFCURVE",
"162 298 OFFCURVE",
"159 296 CURVE",
"155 295 OFFCURVE",
"153 286 OFFCURVE",
"144 278 CURVE SMOOTH",
"135 270 OFFCURVE",
"138 278 OFFCURVE",
"139 280 CURVE SMOOTH",
"140 283 OFFCURVE",
"144 289 OFFCURVE",
"147 295 CURVE SMOOTH",
"149 301 OFFCURVE",
"137 305 OFFCURVE",
"132 307 CURVE",
"128 307 OFFCURVE",
"120 298 OFFCURVE",
"115 293 CURVE SMOOTH",
"99 276 LINE",
"102 289 OFFCURVE",
"107 302 OFFCURVE",
"116 310 CURVE SMOOTH",
"120 314 OFFCURVE",
"121 315 OFFCURVE",
"120 316 CURVE",
"119 319 OFFCURVE",
"116 316 OFFCURVE",
"115 315 CURVE SMOOTH",
"105 305 OFFCURVE",
"97 282 OFFCURVE",
"92 266 CURVE SMOOTH",
"91 264 OFFCURVE",
"89 262 OFFCURVE",
"87 262 CURVE"
);
},
{
closed = 1;
nodes = (
"490 398 OFFCURVE",
"487 400 OFFCURVE",
"488 401 CURVE",
"494 412 LINE SMOOTH",
"495 414 OFFCURVE",
"497 412 OFFCURVE",
"496 412 CURVE",
"491 400 LINE SMOOTH"
);
},
{
closed = 1;
nodes = (
"656 194 OFFCURVE",
"653 198 OFFCURVE",
"646 225 CURVE SMOOTH",
"644 233 OFFCURVE",
"641 241 OFFCURVE",
"641 243 CURVE",
"646 250 OFFCURVE",
"640 262 OFFCURVE",
"653 262 CURVE SMOOTH",
"665 262 OFFCURVE",
"668 261 OFFCURVE",
"671 262 CURVE SMOOTH",
"677 263 LINE",
"676 262 OFFCURVE",
"676 263 OFFCURVE",
"673 261 CURVE SMOOTH",
"670 258 OFFCURVE",
"659 243 OFFCURVE",
"657 230 CURVE",
"653 218 OFFCURVE",
"655 213 OFFCURVE",
"656 210 CURVE SMOOTH",
"658 199 LINE",
"660 210 OFFCURVE",
"661 222 OFFCURVE",
"665 232 CURVE SMOOTH",
"668 242 OFFCURVE",
"677 258 OFFCURVE",
"681 260 CURVE SMOOTH",
"685 262 OFFCURVE",
"687 263 OFFCURVE",
"688 269 CURVE SMOOTH",
"689 289 LINE SMOOTH",
"689 297 OFFCURVE",
"704 299 OFFCURVE",
"708 289 CURVE SMOOTH",
"712 278 OFFCURVE",
"708 274 OFFCURVE",
"707 271 CURVE",
"706 270 OFFCURVE",
"706 264 OFFCURVE",
"704 265 CURVE SMOOTH",
"701 267 OFFCURVE",
"691 267 OFFCURVE",
"691 263 CURVE SMOOTH",
"691 262 OFFCURVE",
"692 260 OFFCURVE",
"693 260 CURVE SMOOTH",
"695 260 OFFCURVE",
"701 259 OFFCURVE",
"704 261 CURVE",
"708 262 OFFCURVE",
"711 262 OFFCURVE",
"713 261 CURVE SMOOTH",
"716 259 OFFCURVE",
"721 254 OFFCURVE",
"723 253 CURVE",
"725 253 OFFCURVE",
"730 255 OFFCURVE",
"731 259 CURVE SMOOTH",
"731 262 OFFCURVE",
"730 266 OFFCURVE",
"731 268 CURVE",
"733 270 OFFCURVE",
"749 270 OFFCURVE",
"750 265 CURVE",
"754 260 OFFCURVE",
"749 250 OFFCURVE",
"749 246 CURVE",
"746 242 OFFCURVE",
"745 241 OFFCURVE",
"742 241 CURVE SMOOTH",
"740 241 OFFCURVE",
"735 242 OFFCURVE",
"734 244 CURVE SMOOTH",
"733 246 OFFCURVE",
"729 246 OFFCURVE",
"725 245 CURVE SMOOTH",
"721 244 OFFCURVE",
"716 242 OFFCURVE",
"715 241 CURVE SMOOTH",
"714 239 OFFCURVE",
"710 236 OFFCURVE",
"710 234 CURVE SMOOTH",
"710 232 OFFCURVE",
"713 234 OFFCURVE",
"713 234 CURVE",
"714 234 OFFCURVE",
"716 234 OFFCURVE",
"713 230 CURVE SMOOTH",
"710 226 OFFCURVE",
"706 222 OFFCURVE",
"706 221 CURVE SMOOTH",
"706 220 OFFCURVE",
"707 218 OFFCURVE",
"711 222 CURVE",
"713 226 OFFCURVE",
"718 233 OFFCURVE",
"718 234 CURVE SMOOTH",
"718 237 OFFCURVE",
"721 240 OFFCURVE",
"721 234 CURVE SMOOTH",
"720 228 OFFCURVE",
"721 215 OFFCURVE",
"720 214 CURVE",
"719 214 OFFCURVE",
"716 210 OFFCURVE",
"716 210 CURVE",
"713 207 OFFCURVE",
"718 206 OFFCURVE",
"721 209 CURVE SMOOTH",
"723 211 OFFCURVE",
"726 218 OFFCURVE",
"726 221 CURVE SMOOTH",
"727 236 LINE",
"731 234 OFFCURVE",
"738 236 OFFCURVE",
"740 234 CURVE",
"741 232 OFFCURVE",
"745 229 OFFCURVE",
"745 226 CURVE SMOOTH",
"745 225 LINE",
"739 209 LINE",
"737 207 OFFCURVE",
"736 205 OFFCURVE",
"733 202 CURVE SMOOTH",
"729 199 OFFCURVE",
"721 190 OFFCURVE",
"719 186 CURVE SMOOTH",
"711 171 LINE",
"707 166 OFFCURVE",
"700 170 OFFCURVE",
"703 175 CURVE",
"710 192 LINE",
"696 194 LINE",
"692 186 OFFCURVE",
"686 176 OFFCURVE",
"684 170 CURVE",
"683 169 OFFCURVE",
"676 147 OFFCURVE",
"667 170 CURVE SMOOTH"
);
},
{
closed = 1;
nodes = (
"397 486 OFFCURVE",
"402 487 OFFCURVE",
"402 488 CURVE",
"402 487 OFFCURVE",
"414 486 OFFCURVE",
"417 487 CURVE",
"418 488 OFFCURVE",
"433 489 OFFCURVE",
"434 489 CURVE SMOOTH",
"437 489 OFFCURVE",
"442 488 OFFCURVE",
"446 488 CURVE",
"460 491 LINE",
"491 492 LINE SMOOTH",
"499 492 OFFCURVE",
"492 490 OFFCURVE",
"491 490 CURVE SMOOTH",
"457 489 LINE SMOOTH",
"453 489 OFFCURVE",
"450 487 OFFCURVE",
"446 486 CURVE SMOOTH",
"441 485 OFFCURVE",
"437 487 OFFCURVE",
"433 487 CURVE SMOOTH",
"429 487 OFFCURVE",
"422 487 OFFCURVE",
"420 486 CURVE SMOOTH",
"418 485 OFFCURVE",
"407 484 OFFCURVE",
"402 485 CURVE SMOOTH"
);
},
{
closed = 1;
nodes = (
"664 267 OFFCURVE",
"661 266 OFFCURVE",
"658 269 CURVE SMOOTH",
"657 270 OFFCURVE",
"657 271 OFFCURVE",
"656 269 CURVE",
"653 270 LINE",
"656 276 OFFCURVE",
"657 285 OFFCURVE",
"660 289 CURVE",
"664 291 OFFCURVE",
"672 297 OFFCURVE",
"672 289 CURVE SMOOTH",
"672 279 OFFCURVE",
"671 267 OFFCURVE",
"667 267 CURVE SMOOTH"
);
}
);
width = 830;
}
);
},
{
glyphname = cranach_1;
lastChange = "2020-01-30 12:50:56 +0000";
layers = (
{
layerId = "60B24473-AF85-4843-BA5D-A0A691C0B2A6";
paths = (
{
closed = 1;
nodes = (
"474 11 OFFCURVE",
"638 161 OFFCURVE",
"638 353 CURVE SMOOTH",
"638 555 OFFCURVE",
"495 691 OFFCURVE",
"347 691 CURVE SMOOTH",
"219 691 OFFCURVE",
"43 574 OFFCURVE",
"50 344 CURVE SMOOTH",
"58 80 OFFCURVE",
"243 11 OFFCURVE",
"339 11 CURVE SMOOTH"
);
},
{
closed = 1;
nodes = (
"170 134 OFFCURVE",
"164 136 OFFCURVE",
"155 136 CURVE",
"158 144 OFFCURVE",
"159 150 OFFCURVE",
"158 158 CURVE",
"166 153 OFFCURVE",
"170 151 OFFCURVE",
"177 151 CURVE",
"175 143 OFFCURVE",
"175 138 OFFCURVE",
"176 131 CURVE"
);
},
{
closed = 1;
nodes = (
"171 78 OFFCURVE",
"167 86 OFFCURVE",
"169 89 CURVE SMOOTH",
"181 107 OFFCURVE",
"196 124 OFFCURVE",
"215 144 CURVE",
"224 142 OFFCURVE",
"248 125 OFFCURVE",
"241 107 CURVE SMOOTH",
"238 99 OFFCURVE",
"216 94 OFFCURVE",
"203 106 CURVE SMOOTH",
"202 107 OFFCURVE",
"206 108 OFFCURVE",
"206 109 CURVE",
"210 105 OFFCURVE",
"230 99 OFFCURVE",
"234 111 CURVE SMOOTH",
"236 117 OFFCURVE",
"233 129 OFFCURVE",
"217 135 CURVE",
"202 116 OFFCURVE",
"187 102 OFFCURVE",
"173 81 CURVE SMOOTH"
);
},
{
closed = 1;
nodes = (
"105 156 OFFCURVE",
"103 164 OFFCURVE",
"105 166 CURVE SMOOTH",
"114 175 OFFCURVE",
"127 178 OFFCURVE",
"135 186 CURVE SMOOTH",
"136 187 OFFCURVE",
"119 209 OFFCURVE",
"116 214 CURVE SMOOTH",
"114 217 OFFCURVE",
"94 204 OFFCURVE",
"86 199 CURVE SMOOTH",
"83 197 OFFCURVE",
"81 200 OFFCURVE",
"81 204 CURVE SMOOTH",
"81 207 OFFCURVE",
"127 232 OFFCURVE",
"149 243 CURVE SMOOTH",
"151 244 OFFCURVE",
"155 236 OFFCURVE",
"153 235 CURVE SMOOTH",
"144 230 OFFCURVE",
"125 223 OFFCURVE",
"125 219 CURVE SMOOTH",
"125 217 OFFCURVE",
"139 190 OFFCURVE",
"142 191 CURVE SMOOTH",
"150 194 OFFCURVE",
"157 201 OFFCURVE",
"166 204 CURVE SMOOTH",
"169 205 OFFCURVE",
"176 198 OFFCURVE",
"173 196 CURVE SMOOTH",
"151 181 OFFCURVE",
"127 171 OFFCURVE",
"107 158 CURVE"
);
},
{
closed = 1;
nodes = (
"293 23 OFFCURVE",
"283 32 OFFCURVE",
"278 42 CURVE SMOOTH",
"271 55 OFFCURVE",
"267 68 OFFCURVE",
"264 77 CURVE SMOOTH",
"263 80 OFFCURVE",
"285 76 OFFCURVE",
"285 89 CURVE SMOOTH",
"285 95 OFFCURVE",
"275 102 OFFCURVE",
"266 103 CURVE",
"260 80 OFFCURVE",
"251 65 OFFCURVE",
"241 42 CURVE SMOOTH",
"240 39 OFFCURVE",
"232 48 OFFCURVE",
"233 51 CURVE SMOOTH",
"243 72 OFFCURVE",
"251 87 OFFCURVE",
"261 112 CURVE",
"270 112 OFFCURVE",
"291 100 OFFCURVE",
"293 85 CURVE SMOOTH",
"294 76 OFFCURVE",
"278 72 OFFCURVE",
"278 71 CURVE SMOOTH",
"278 46 OFFCURVE",
"298 36 OFFCURVE",
"308 26 CURVE SMOOTH",
"309 25 OFFCURVE",
"309 23 OFFCURVE",
"307 23 CURVE SMOOTH"
);
},
{
closed = 1;
nodes = (
"73 238 OFFCURVE",
"70 239 OFFCURVE",
"68 253 CURVE SMOOTH",
"67 262 OFFCURVE",
"70 274 OFFCURVE",
"76 281 CURVE SMOOTH",
"86 292 OFFCURVE",
"94 298 OFFCURVE",
"106 297 CURVE SMOOTH",
"125 295 OFFCURVE",
"133 287 OFFCURVE",
"138 281 CURVE SMOOTH",
"144 274 OFFCURVE",
"143 269 OFFCURVE",
"143 249 CURVE",
"133 247 LINE",
"134 261 OFFCURVE",
"138 258 OFFCURVE",
"131 277 CURVE SMOOTH",
"128 285 OFFCURVE",
"114 286 OFFCURVE",
"106 286 CURVE SMOOTH",
"101 286 OFFCURVE",
"86 283 OFFCURVE",
"81 275 CURVE SMOOTH",
"76 267 OFFCURVE",
"74 258 OFFCURVE",
"75 250 CURVE SMOOTH",
"76 239 OFFCURVE",
"79 240 OFFCURVE",
"89 232 CURVE",
"87 228 LINE"
);
},
{
closed = 1;
nodes = (
"327 29 OFFCURVE",
"325 94 OFFCURVE",
"326 94 CURVE SMOOTH",
"329 94 OFFCURVE",
"356 98 OFFCURVE",
"369 98 CURVE SMOOTH",
"371 98 OFFCURVE",
"370 90 OFFCURVE",
"368 90 CURVE SMOOTH",
"359 90 OFFCURVE",
"340 88 OFFCURVE",
"337 87 CURVE SMOOTH",
"335 86 OFFCURVE",
"335 65 OFFCURVE",
"337 65 CURVE SMOOTH",
"348 65 OFFCURVE",
"361 70 OFFCURVE",
"372 70 CURVE SMOOTH",
"375 70 OFFCURVE",
"375 63 OFFCURVE",
"372 62 CURVE SMOOTH",
"362 59 OFFCURVE",
"338 60 OFFCURVE",
"338 56 CURVE SMOOTH",
"338 51 OFFCURVE",
"340 37 OFFCURVE",
"341 37 CURVE SMOOTH",
"352 37 OFFCURVE",
"365 39 OFFCURVE",
"378 43 CURVE SMOOTH",
"381 44 OFFCURVE",
"381 34 OFFCURVE",
"378 34 CURVE SMOOTH",
"363 34 OFFCURVE",
"340 29 OFFCURVE",
"329 29 CURVE SMOOTH"
);
},
{
closed = 1;
nodes = (
"221 161 OFFCURVE",
"235 172 OFFCURVE",
"237 174 CURVE SMOOTH",
"240 177 OFFCURVE",
"258 205 OFFCURVE",
"255 208 CURVE SMOOTH",
"254 209 OFFCURVE",
"246 202 OFFCURVE",
"245 201 CURVE SMOOTH",
"239 195 OFFCURVE",
"223 189 OFFCURVE",
"219 186 CURVE SMOOTH",
"215 183 OFFCURVE",
"208 176 OFFCURVE",
"207 174 CURVE SMOOTH",
"206 171 OFFCURVE",
"215 164 OFFCURVE",
"219 162 CURVE SMOOTH"
);
},
{
closed = 1;
nodes = (
"269 125 OFFCURVE",
"286 131 OFFCURVE",
"289 136 CURVE SMOOTH",
"293 143 OFFCURVE",
"296 152 OFFCURVE",
"296 164 CURVE SMOOTH",
"296 170 OFFCURVE",
"296 184 OFFCURVE",
"293 184 CURVE SMOOTH",
"284 184 OFFCURVE",
"247 150 OFFCURVE",
"231 150 CURVE SMOOTH",
"229 150 OFFCURVE",
"241 141 OFFCURVE",
"243 139 CURVE SMOOTH",
"247 135 OFFCURVE",
"267 125 OFFCURVE",
"269 125 CURVE"
);
},
{
closed = 1;
nodes = (
"162 257 OFFCURVE",
"164 259 OFFCURVE",
"166 263 CURVE",
"164 263 OFFCURVE",
"162 262 OFFCURVE",
"162 257 CURVE"
);
},
{
closed = 1;
nodes = (
"61 295 OFFCURVE",
"61 306 OFFCURVE",
"63 308 CURVE SMOOTH",
"68 313 OFFCURVE",
"84 316 OFFCURVE",
"84 317 CURVE SMOOTH",
"84 344 LINE SMOOTH",
"84 346 OFFCURVE",
"59 351 OFFCURVE",
"59 353 CURVE SMOOTH",
"59 356 OFFCURVE",
"57 360 OFFCURVE",
"61 361 CURVE",
"61 361 OFFCURVE",
"115 346 OFFCURVE",
"136 339 CURVE SMOOTH",
"139 338 OFFCURVE",
"138 335 OFFCURVE",
"137 335 CURVE",
"109 322 OFFCURVE",
"85 307 OFFCURVE",
"62 296 CURVE"
);
},
{
closed = 0;
nodes = (
"287 143 LINE"
);
},
{
closed = 1;
nodes = (
"208 185 OFFCURVE",
"221 196 OFFCURVE",
"236 205 CURVE SMOOTH",
"244 210 OFFCURVE",
"256 213 OFFCURVE",
"258 216 CURVE SMOOTH",
"260 219 OFFCURVE",
"259 236 OFFCURVE",
"257 239 CURVE SMOOTH",
"253 245 OFFCURVE",
"240 262 OFFCURVE",
"240 262 CURVE",
"233 264 OFFCURVE",
"171 226 OFFCURVE",
"176 217 CURVE SMOOTH",
"180 210 OFFCURVE",
"200 177 OFFCURVE",
"203 180 CURVE SMOOTH"
);
},
{
closed = 1;
nodes = (
"90 319 OFFCURVE",
"115 329 OFFCURVE",
"120 334 CURVE SMOOTH",
"121 335 OFFCURVE",
"91 345 OFFCURVE",
"90 345 CURVE SMOOTH",
"89 345 OFFCURVE",
"90 323 OFFCURVE",
"90 321 CURVE SMOOTH"
);
},
{
closed = 1;
nodes = (
"226 155 OFFCURVE",
"232 156 OFFCURVE",
"235 156 CURVE SMOOTH",
"257 156 OFFCURVE",
"254 169 OFFCURVE",
"266 176 CURVE SMOOTH",
"271 179 OFFCURVE",
"287 187 OFFCURVE",
"290 194 CURVE SMOOTH",
"293 202 OFFCURVE",
"283 208 OFFCURVE",
"277 214 CURVE SMOOTH",
"273 218 OFFCURVE",
"264 236 OFFCURVE",
"264 230 CURVE SMOOTH",
"264 213 OFFCURVE",
"259 195 OFFCURVE",
"250 179 CURVE SMOOTH",
"244 168 OFFCURVE",
"230 159 OFFCURVE",
"225 159 CURVE SMOOTH",
"224 159 OFFCURVE",
"224 157 OFFCURVE",
"225 156 CURVE SMOOTH"
);
},
{
closed = 1;
nodes = (
"409 45 OFFCURVE",
"407 55 OFFCURVE",
"409 55 CURVE SMOOTH",
"414 55 OFFCURVE",
"418 56 OFFCURVE",
"424 58 CURVE SMOOTH",
"429 60 OFFCURVE",
"433 68 OFFCURVE",
"430 73 CURVE SMOOTH",
"425 81 OFFCURVE",
"421 79 OFFCURVE",
"414 80 CURVE SMOOTH",
"407 81 OFFCURVE",
"397 87 OFFCURVE",
"396 92 CURVE SMOOTH",
"393 106 OFFCURVE",
"408 114 OFFCURVE",
"417 114 CURVE SMOOTH",
"420 114 OFFCURVE",
"425 108 OFFCURVE",
"421 108 CURVE SMOOTH",
"411 108 OFFCURVE",
"399 99 OFFCURVE",
"404 92 CURVE SMOOTH",
"409 85 OFFCURVE",
"423 87 OFFCURVE",
"431 83 CURVE SMOOTH",
"435 81 OFFCURVE",
"443 74 OFFCURVE",
"439 64 CURVE SMOOTH",
"435 54 OFFCURVE",
"417 45 OFFCURVE",
"413 45 CURVE SMOOTH"
);
},
{
closed = 1;
nodes = (
"125 370 OFFCURVE",
"69 373 OFFCURVE",
"60 373 CURVE SMOOTH",
"59 373 OFFCURVE",
"59 379 OFFCURVE",
"61 380 CURVE SMOOTH",
"84 392 OFFCURVE",
"128 426 OFFCURVE",
"122 427 CURVE SMOOTH",
"68 434 LINE SMOOTH",
"66 434 OFFCURVE",
"67 442 OFFCURVE",
"69 442 CURVE SMOOTH",
"76 442 OFFCURVE",
"120 432 OFFCURVE",
"144 432 CURVE SMOOTH",
"145 432 OFFCURVE",
"146 430 OFFCURVE",
"144 428 CURVE SMOOTH",
"129 413 OFFCURVE",
"104 398 OFFCURVE",
"84 382 CURVE",
"100 380 OFFCURVE",
"129 384 OFFCURVE",
"133 380 CURVE SMOOTH",
"134 379 OFFCURVE",
"132 370 OFFCURVE",
"131 370 CURVE SMOOTH"
);
},
{
closed = 1;
nodes = (
"330 112 OFFCURVE",
"353 111 OFFCURVE",
"366 114 CURVE SMOOTH",
"383 118 OFFCURVE",
"408 127 OFFCURVE",
"418 135 CURVE SMOOTH",
"426 142 OFFCURVE",
"434 147 OFFCURVE",
"443 154 CURVE SMOOTH",
"447 157 OFFCURVE",
"453 160 OFFCURVE",
"452 162 CURVE SMOOTH",
"451 164 OFFCURVE",
"447 168 OFFCURVE",
"444 168 CURVE SMOOTH",
"443 168 OFFCURVE",
"413 148 OFFCURVE",
"408 146 CURVE SMOOTH",
"395 141 OFFCURVE",
"382 135 OFFCURVE",
"368 132 CURVE SMOOTH",
"349 128 OFFCURVE",
"316 130 OFFCURVE",
"311 128 CURVE SMOOTH",
"308 127 OFFCURVE",
"296 117 OFFCURVE",
"294 116 CURVE SMOOTH",
"292 115 OFFCURVE",
"321 112 OFFCURVE",
"323 112 CURVE SMOOTH"
);
},
{
closed = 1;
nodes = (
"204 257 OFFCURVE",
"216 278 OFFCURVE",
"214 290 CURVE SMOOTH",
"211 310 OFFCURVE",
"203 335 OFFCURVE",
"203 355 CURVE SMOOTH",
"203 367 OFFCURVE",
"220 389 OFFCURVE",
"215 385 CURVE SMOOTH",
"204 376 OFFCURVE",
"199 360 OFFCURVE",
"199 344 CURVE SMOOTH",
"199 334 OFFCURVE",
"200 321 OFFCURVE",
"201 311 CURVE SMOOTH",
"202 302 OFFCURVE",
"207 293 OFFCURVE",
"206 281 CURVE SMOOTH",
"205 273 OFFCURVE",
"202 257 OFFCURVE",
"203 257 CURVE SMOOTH"
);
},
{
closed = 1;
nodes = (
"336 136 OFFCURVE",
"392 143 OFFCURVE",
"407 151 CURVE SMOOTH",
"413 154 OFFCURVE",
"439 170 OFFCURVE",
"437 172 CURVE SMOOTH",
"436 173 OFFCURVE",
"416 189 OFFCURVE",
"409 186 CURVE SMOOTH",
"398 181 OFFCURVE",
"398 177 OFFCURVE",
"383 171 CURVE SMOOTH",
"378 169 OFFCURVE",
"366 170 OFFCURVE",
"363 174 CURVE",
"355 147 OFFCURVE",
"342 152 OFFCURVE",
"333 148 CURVE SMOOTH",
"328 146 OFFCURVE",
"318 136 OFFCURVE",
"319 136 CURVE SMOOTH"
);
},
{
closed = 1;
nodes = (
"481 73 OFFCURVE",
"471 80 OFFCURVE",
"474 81 CURVE SMOOTH",
"478 82 OFFCURVE",
"484 85 OFFCURVE",
"489 90 CURVE SMOOTH",
"493 94 OFFCURVE",
"495 108 OFFCURVE",
"490 111 CURVE SMOOTH",
"482 116 OFFCURVE",
"477 115 OFFCURVE",
"470 112 CURVE SMOOTH",
"463 109 OFFCURVE",
"451 114 OFFCURVE",
"449 118 CURVE SMOOTH",
"443 131 OFFCURVE",
"452 143 OFFCURVE",
"461 146 CURVE SMOOTH",
"464 147 OFFCURVE",
"470 143 OFFCURVE",
"467 142 CURVE SMOOTH",
"457 139 OFFCURVE",
"450 125 OFFCURVE",
"456 121 CURVE SMOOTH",
"464 116 OFFCURVE",
"481 123 OFFCURVE",
"489 121 CURVE SMOOTH",
"493 120 OFFCURVE",
"501 112 OFFCURVE",
"501 100 CURVE SMOOTH",
"501 89 OFFCURVE",
"488 75 OFFCURVE",
"484 74 CURVE SMOOTH"
);
},
{
closed = 1;
nodes = (
"178 232 OFFCURVE",
"199 249 OFFCURVE",
"200 268 CURVE SMOOTH",
"201 289 OFFCURVE",
"193 337 OFFCURVE",
"194 350 CURVE SMOOTH",
"195 359 OFFCURVE",
"197 366 OFFCURVE",
"199 373 CURVE SMOOTH",
"201 379 OFFCURVE",
"230 418 OFFCURVE",
"230 420 CURVE SMOOTH",
"230 421 OFFCURVE",
"224 414 OFFCURVE",
"223 413 CURVE SMOOTH",
"219 409 OFFCURVE",
"210 399 OFFCURVE",
"209 400 CURVE",
"209 400 OFFCURVE",
"207 401 OFFCURVE",
"207 402 CURVE SMOOTH",
"207 405 OFFCURVE",
"225 424 OFFCURVE",
"228 431 CURVE SMOOTH",
"230 436 OFFCURVE",
"233 450 OFFCURVE",
"233 454 CURVE SMOOTH",
"233 467 OFFCURVE",
"226 473 OFFCURVE",
"226 481 CURVE SMOOTH",
"226 487 OFFCURVE",
"230 498 OFFCURVE",
"235 507 CURVE SMOOTH",
"242 519 OFFCURVE",
"267 542 OFFCURVE",
"265 543 CURVE SMOOTH",
"262 544 OFFCURVE",
"243 533 OFFCURVE",
"234 521 CURVE SMOOTH",
"225 509 OFFCURVE",
"221 495 OFFCURVE",
"220 495 CURVE SMOOTH",
"219 495 OFFCURVE",
"221 508 OFFCURVE",
"224 511 CURVE SMOOTH",
"225 512 OFFCURVE",
"224 514 OFFCURVE",
"223 514 CURVE SMOOTH",
"215 514 OFFCURVE",
"212 496 OFFCURVE",
"210 480 CURVE SMOOTH",
"208 465 OFFCURVE",
"209 448 OFFCURVE",
"211 438 CURVE SMOOTH",
"212 433 OFFCURVE",
"205 423 OFFCURVE",
"207 423 CURVE SMOOTH",
"211 423 OFFCURVE",
"221 433 OFFCURVE",
"221 446 CURVE SMOOTH",
"221 452 OFFCURVE",
"220 463 OFFCURVE",
"219 467 CURVE SMOOTH",
"218 471 OFFCURVE",
"218 483 OFFCURVE",
"220 483 CURVE SMOOTH",
"223 483 OFFCURVE",
"227 457 OFFCURVE",
"227 444 CURVE SMOOTH",
"227 438 OFFCURVE",
"205 412 OFFCURVE",
"201 408 CURVE SMOOTH",
"190 397 OFFCURVE",
"180 393 OFFCURVE",
"176 383 CURVE SMOOTH",
"174 378 OFFCURVE",
"172 361 OFFCURVE",
"172 356 CURVE SMOOTH",
"172 339 OFFCURVE",
"178 319 OFFCURVE",
"179 303 CURVE",
"179 303 OFFCURVE",
"177 291 OFFCURVE",
"173 279 CURVE SMOOTH",
"171 273 OFFCURVE",
"168 267 OFFCURVE",
"166 263 CURVE",
"168 263 OFFCURVE",
"171 263 OFFCURVE",
"173 266 CURVE",
"173 266 OFFCURVE",
"177 272 OFFCURVE",
"177 271 CURVE SMOOTH",
"177 261 OFFCURVE",
"166 249 OFFCURVE",
"167 245 CURVE SMOOTH",
"169 238 OFFCURVE",
"186 273 OFFCURVE",
"186 286 CURVE SMOOTH",
"186 304 OFFCURVE",
"184 351 OFFCURVE",
"183 356 CURVE SMOOTH",
"182 361 OFFCURVE",
"190 393 OFFCURVE",
"201 393 CURVE SMOOTH",
"202 393 OFFCURVE",
"198 388 OFFCURVE",
"198 388 CURVE",
"193 382 OFFCURVE",
"188 362 OFFCURVE",
"188 354 CURVE SMOOTH",
"188 341 OFFCURVE",
"194 306 OFFCURVE",
"194 286 CURVE SMOOTH",
"194 269 OFFCURVE",
"190 254 OFFCURVE",
"188 252 CURVE SMOOTH",
"185 249 OFFCURVE",
"172 235 OFFCURVE",
"174 234 CURVE SMOOTH"
);
},
{
closed = 1;
nodes = (
"113 468 OFFCURVE",
"128 470 OFFCURVE",
"142 470 CURVE SMOOTH",
"145 470 OFFCURVE",
"123 490 OFFCURVE",
"120 490 CURVE SMOOTH",
"116 490 OFFCURVE",
"113 472 OFFCURVE",
"113 470 CURVE SMOOTH"
);
},
{
closed = 1;
nodes = (
"74 459 OFFCURVE",
"77 466 OFFCURVE",
"79 466 CURVE SMOOTH",
"87 466 OFFCURVE",
"104 467 OFFCURVE",
"104 468 CURVE",
"114 493 LINE SMOOTH",
"115 495 OFFCURVE",
"98 510 OFFCURVE",
"98 510 CURVE",
"96 509 OFFCURVE",
"94 509 OFFCURVE",
"93 508 CURVE SMOOTH",
"92 507 OFFCURVE",
"90 509 OFFCURVE",
"91 511 CURVE SMOOTH",
"96 521 OFFCURVE",
"101 526 OFFCURVE",
"112 529 CURVE SMOOTH",
"126 533 OFFCURVE",
"144 533 OFFCURVE",
"154 533 CURVE SMOOTH",
"156 533 OFFCURVE",
"150 515 OFFCURVE",
"161 511 CURVE SMOOTH",
"166 509 OFFCURVE",
"180 511 OFFCURVE",
"183 516 CURVE SMOOTH",
"185 519 OFFCURVE",
"188 513 OFFCURVE",
"187 512 CURVE SMOOTH",
"173 498 OFFCURVE",
"165 499 OFFCURVE",
"156 502 CURVE SMOOTH",
"148 505 OFFCURVE",
"145 523 OFFCURVE",
"145 523 CURVE",
"129 527 OFFCURVE",
"100 517 OFFCURVE",
"103 514 CURVE SMOOTH",
"107 510 OFFCURVE",
"147 485 OFFCURVE",
"159 467 CURVE SMOOTH",
"161 464 OFFCURVE",
"158 462 OFFCURVE",
"158 462 CURVE",
"131 461 OFFCURVE",
"103 459 OFFCURVE",
"76 459 CURVE SMOOTH"
);
},
{
closed = 1;
nodes = (
"149 278 OFFCURVE",
"160 304 OFFCURVE",
"160 323 CURVE SMOOTH",
"160 339 OFFCURVE",
"153 348 OFFCURVE",
"153 365 CURVE SMOOTH",
"153 402 OFFCURVE",
"157 400 OFFCURVE",
"161 404 CURVE SMOOTH",
"165 408 OFFCURVE",
"182 426 OFFCURVE",
"182 440 CURVE SMOOTH",
"182 445 OFFCURVE",
"185 440 OFFCURVE",
"185 432 CURVE SMOOTH",
"185 431 OFFCURVE",
"186 428 OFFCURVE",
"188 430 CURVE SMOOTH",
"190 432 OFFCURVE",
"193 443 OFFCURVE",
"193 445 CURVE SMOOTH",
"193 448 OFFCURVE",
"192 453 OFFCURVE",
"194 453 CURVE SMOOTH",
"195 453 OFFCURVE",
"197 453 OFFCURVE",
"197 452 CURVE SMOOTH",
"197 435 OFFCURVE",
"165 397 OFFCURVE",
"162 389 CURVE SMOOTH",
"161 386 OFFCURVE",
"157 372 OFFCURVE",
"159 366 CURVE SMOOTH",
"163 354 OFFCURVE",
"164 328 OFFCURVE",
"164 322 CURVE SMOOTH",
"164 320 OFFCURVE",
"167 317 OFFCURVE",
"167 318 CURVE SMOOTH",
"167 336 OFFCURVE",
"166 374 OFFCURVE",
"171 385 CURVE SMOOTH",
"181 407 OFFCURVE",
"195 405 OFFCURVE",
"203 430 CURVE SMOOTH",
"204 433 OFFCURVE",
"206 454 OFFCURVE",
"206 457 CURVE SMOOTH",
"206 465 OFFCURVE",
"203 474 OFFCURVE",
"203 483 CURVE SMOOTH",
"203 496 OFFCURVE",
"208 505 OFFCURVE",
"217 516 CURVE SMOOTH",
"224 524 OFFCURVE",
"230 531 OFFCURVE",
"240 538 CURVE SMOOTH",
"250 545 OFFCURVE",
"286 559 OFFCURVE",
"284 566 CURVE SMOOTH",
"282 572 OFFCURVE",
"269 568 OFFCURVE",
"256 563 CURVE SMOOTH",
"228 552 OFFCURVE",
"204 527 OFFCURVE",
"189 501 CURVE SMOOTH",
"178 483 OFFCURVE",
"172 466 OFFCURVE",
"172 445 CURVE SMOOTH",
"172 439 OFFCURVE",
"165 426 OFFCURVE",
"159 415 CURVE SMOOTH",
"158 413 OFFCURVE",
"150 395 OFFCURVE",
"149 389 CURVE SMOOTH",
"146 373 OFFCURVE",
"147 349 OFFCURVE",
"150 331 CURVE SMOOTH",
"151 325 OFFCURVE",
"151 314 OFFCURVE",
"151 308 CURVE SMOOTH",
"149 284 LINE SMOOTH"
);
},
{
closed = 1;
nodes = (
"460 167 OFFCURVE",
"488 205 OFFCURVE",
"488 207 CURVE SMOOTH",
"488 208 OFFCURVE",
"471 229 OFFCURVE",
"470 228 CURVE SMOOTH",
"468 226 OFFCURVE",
"462 213 OFFCURVE",
"458 207 CURVE SMOOTH",
"448 192 OFFCURVE",
"428 194 OFFCURVE",
"414 194 CURVE SMOOTH",
"413 194 OFFCURVE",
"412 192 OFFCURVE",
"413 192 CURVE SMOOTH",
"428 192 OFFCURVE",
"456 167 OFFCURVE",
"458 167 CURVE SMOOTH"
);
},
{
closed = 1;
nodes = (
"236 384 OFFCURVE",
"260 405 OFFCURVE",
"260 421 CURVE SMOOTH",
"260 424 OFFCURVE",
"256 444 OFFCURVE",
"255 440 CURVE SMOOTH",
"253 431 OFFCURVE",
"259 433 OFFCURVE",
"246 410 CURVE SMOOTH",
"242 403 OFFCURVE",
"216 380 OFFCURVE",
"225 382 CURVE SMOOTH"
);
},
{
closed = 1;
nodes = (
"239 380 OFFCURVE",
"251 383 OFFCURVE",
"252 384 CURVE SMOOTH",
"267 399 OFFCURVE",
"270 404 OFFCURVE",
"270 425 CURVE SMOOTH",
"270 427 OFFCURVE",
"270 430 OFFCURVE",
"271 431 CURVE SMOOTH",
"272 432 OFFCURVE",
"276 419 OFFCURVE",
"276 418 CURVE SMOOTH",
"276 415 OFFCURVE",
"277 409 OFFCURVE",
"274 406 CURVE SMOOTH",
"273 405 OFFCURVE",
"269 398 OFFCURVE",
"269 398 CURVE",
"274 400 OFFCURVE",
"287 410 OFFCURVE",
"287 418 CURVE SMOOTH",
"287 420 OFFCURVE",
"286 422 OFFCURVE",
"285 424 CURVE SMOOTH",
"282 430 OFFCURVE",
"269 440 OFFCURVE",
"264 440 CURVE SMOOTH",
"262 440 OFFCURVE",
"265 410 OFFCURVE",
"263 403 CURVE SMOOTH",
"260 393 OFFCURVE",
"229 380 OFFCURVE",
"238 380 CURVE SMOOTH"
);
},
{
closed = 1;
nodes = (
"239 407 OFFCURVE",
"251 423 OFFCURVE",
"251 438 CURVE SMOOTH",
"251 445 OFFCURVE",
"250 451 OFFCURVE",
"246 454 CURVE SMOOTH",
"243 456 OFFCURVE",
"242 454 OFFCURVE",
"242 451 CURVE SMOOTH",
"242 445 OFFCURVE",
"244 435 OFFCURVE",
"244 430 CURVE SMOOTH",
"244 423 OFFCURVE",
"238 417 OFFCURVE",
"238 410 CURVE SMOOTH",
"238 409 OFFCURVE",
"236 407 OFFCURVE",
"237 407 CURVE SMOOTH"
);
},
{
closed = 1;
nodes = (
"183 449 OFFCURVE",
"182 463 OFFCURVE",
"182 463 CURVE",
"182 467 OFFCURVE",
"185 477 OFFCURVE",
"185 480 CURVE SMOOTH",
"185 495 OFFCURVE",
"211 525 OFFCURVE",
"206 512 CURVE SMOOTH",
"204 507 OFFCURVE",
"199 501 OFFCURVE",
"196 494 CURVE SMOOTH",
"194 486 LINE",
"194 481 OFFCURVE",
"201 493 OFFCURVE",
"200 490 CURVE SMOOTH",
"198 485 OFFCURVE",
"194 458 OFFCURVE",
"193 458 CURVE SMOOTH",
"192 458 OFFCURVE",
"193 462 OFFCURVE",
"192 464 CURVE",
"192 464 OFFCURVE",
"191 468 OFFCURVE",
"193 473 CURVE",
"193 473 OFFCURVE",
"197 486 OFFCURVE",
"193 484 CURVE SMOOTH",
"190 482 OFFCURVE",
"186 471 OFFCURVE",
"186 466 CURVE SMOOTH",
"186 457 OFFCURVE",
"186 454 OFFCURVE",
"184 451 CURVE SMOOTH"
);
},
{
closed = 1;
nodes = (
"532 125 OFFCURVE",
"479 168 OFFCURVE",
"479 169 CURVE SMOOTH",
"479 173 OFFCURVE",
"493 187 OFFCURVE",
"501 200 CURVE SMOOTH",
"502 202 OFFCURVE",
"507 197 OFFCURVE",
"506 195 CURVE SMOOTH",
"502 187 OFFCURVE",
"489 176 OFFCURVE",
"489 173 CURVE SMOOTH",
"489 171 OFFCURVE",
"505 154 OFFCURVE",
"507 157 CURVE SMOOTH",
"514 168 OFFCURVE",
"516 173 OFFCURVE",
"523 183 CURVE SMOOTH",
"525 185 OFFCURVE",
"530 180 OFFCURVE",
"529 178 CURVE SMOOTH",
"523 169 OFFCURVE",
"514 154 OFFCURVE",
"514 151 CURVE SMOOTH",
"514 146 OFFCURVE",
"532 136 OFFCURVE",
"533 138 CURVE SMOOTH",
"540 148 OFFCURVE",
"545 154 OFFCURVE",
"553 164 CURVE SMOOTH",
"555 167 OFFCURVE",
"562 161 OFFCURVE",
"560 159 CURVE SMOOTH",
"548 147 OFFCURVE",
"542 135 OFFCURVE",
"534 127 CURVE SMOOTH"
);
},
{
closed = 1;
nodes = (
"241 107 OFFCURVE",
"141 175 OFFCURVE",
"141 345 CURVE SMOOTH",
"141 503 OFFCURVE",
"248 606 OFFCURVE",
"344 603 CURVE SMOOTH",
"433 600 OFFCURVE",
"542 523 OFFCURVE",
"542 362 CURVE SMOOTH",
"542 238 OFFCURVE",
"451 105 OFFCURVE",
"341 106 CURVE SMOOTH"
);
},
{
closed = 1;
nodes = (
"282 119 OFFCURVE",
"287 122 OFFCURVE",
"296 124 CURVE SMOOTH",
"300 125 OFFCURVE",
"323 152 OFFCURVE",
"330 154 CURVE SMOOTH",
"333 155 OFFCURVE",
"347 158 OFFCURVE",
"351 160 CURVE SMOOTH",
"353 161 OFFCURVE",
"356 174 OFFCURVE",
"355 175 CURVE SMOOTH",
"352 178 OFFCURVE",
"330 185 OFFCURVE",
"321 194 CURVE SMOOTH",
"300 215 OFFCURVE",
"293 232 OFFCURVE",
"276 256 CURVE SMOOTH",
"264 273 OFFCURVE",
"245 303 OFFCURVE",
"229 314 CURVE SMOOTH",
"216 323 OFFCURVE",
"214 346 OFFCURVE",
"217 346 CURVE SMOOTH",
"222 346 OFFCURVE",
"220 337 OFFCURVE",
"224 329 CURVE SMOOTH",
"229 318 OFFCURVE",
"242 306 OFFCURVE",
"252 297 CURVE SMOOTH",
"265 285 OFFCURVE",
"290 244 OFFCURVE",
"302 227 CURVE SMOOTH",
"312 213 OFFCURVE",
"323 204 OFFCURVE",
"347 186 CURVE SMOOTH",
"369 170 OFFCURVE",
"387 180 OFFCURVE",
"400 190 CURVE SMOOTH",
"411 199 OFFCURVE",
"415 216 OFFCURVE",
"422 221 CURVE SMOOTH",
"425 223 OFFCURVE",
"413 201 OFFCURVE",
"417 199 CURVE SMOOTH",
"422 197 OFFCURVE",
"437 193 OFFCURVE",
"451 209 CURVE SMOOTH",
"457 216 OFFCURVE",
"466 235 OFFCURVE",
"465 244 CURVE SMOOTH",
"462 268 OFFCURVE",
"462 265 OFFCURVE",
"462 282 CURVE SMOOTH",
"462 317 OFFCURVE",
"479 318 OFFCURVE",
"479 354 CURVE SMOOTH",
"479 375 OFFCURVE",
"475 406 OFFCURVE",
"469 422 CURVE SMOOTH",
"464 435 OFFCURVE",
"448 458 OFFCURVE",
"443 462 CURVE SMOOTH",
"430 473 OFFCURVE",
"406 485 OFFCURVE",
"403 497 CURVE SMOOTH",
"402 501 OFFCURVE",
"404 532 OFFCURVE",
"404 532 CURVE",
"404 545 OFFCURVE",
"397 553 OFFCURVE",
"387 563 CURVE SMOOTH",
"386 564 OFFCURVE",
"391 563 OFFCURVE",
"393 563 CURVE SMOOTH",
"397 563 OFFCURVE",
"400 559 OFFCURVE",
"403 557 CURVE SMOOTH",
"408 553 OFFCURVE",
"408 548 OFFCURVE",
"409 545 CURVE SMOOTH",
"414 531 OFFCURVE",
"409 515 OFFCURVE",
"407 506 CURVE SMOOTH",
"405 498 OFFCURVE",
"419 484 OFFCURVE",
"424 484 CURVE SMOOTH",
"425 484 OFFCURVE",
"416 505 OFFCURVE",
"419 508 CURVE SMOOTH",
"423 512 OFFCURVE",
"422 531 OFFCURVE",
"422 534 CURVE SMOOTH",
"422 542 OFFCURVE",
"418 544 OFFCURVE",
"418 548 CURVE SMOOTH",
"418 550 OFFCURVE",
"420 552 OFFCURVE",
"420 553 CURVE SMOOTH",
"420 558 OFFCURVE",
"412 564 OFFCURVE",
"407 568 CURVE SMOOTH",
"398 575 OFFCURVE",
"389 571 OFFCURVE",
"386 573 CURVE SMOOTH",
"375 580 OFFCURVE",
"363 587 OFFCURVE",
"348 587 CURVE SMOOTH",
"330 587 OFFCURVE",
"297 580 OFFCURVE",
"293 573 CURVE SMOOTH",
"290 568 OFFCURVE",
"296 569 OFFCURVE",
"290 562 CURVE SMOOTH",
"280 551 OFFCURVE",
"262 529 OFFCURVE",
"250 512 CURVE SMOOTH",
"239 497 OFFCURVE",
"232 489 OFFCURVE",
"232 481 CURVE SMOOTH",
"232 476 OFFCURVE",
"231 480 OFFCURVE",
"239 471 CURVE SMOOTH",
"246 463 OFFCURVE",
"256 455 OFFCURVE",
"264 448 CURVE SMOOTH",
"278 436 OFFCURVE",
"286 429 OFFCURVE",
"300 422 CURVE SMOOTH",
"304 420 OFFCURVE",
"333 409 OFFCURVE",
"337 408 CURVE",
"352 400 LINE",
"354 400 OFFCURVE",
"352 396 OFFCURVE",
"343 393 CURVE SMOOTH",
"337 391 OFFCURVE",
"334 387 OFFCURVE",
"334 377 CURVE SMOOTH",
"334 358 OFFCURVE",
"352 367 OFFCURVE",
"356 361 CURVE SMOOTH",
"359 357 OFFCURVE",
"359 353 OFFCURVE",
"359 345 CURVE SMOOTH",
"359 341 OFFCURVE",
"361 331 OFFCURVE",
"358 330 CURVE SMOOTH",
"352 328 OFFCURVE",
"353 357 OFFCURVE",
"351 358 CURVE SMOOTH",
"348 359 OFFCURVE",
"343 355 OFFCURVE",
"337 360 CURVE SMOOTH",
"332 364 OFFCURVE",
"330 370 OFFCURVE",
"325 375 CURVE SMOOTH",
"322 378 OFFCURVE",
"302 391 OFFCURVE",
"295 393 CURVE SMOOTH",
"291 394 OFFCURVE",
"278 396 OFFCURVE",
"274 394 CURVE SMOOTH",
"269 392 OFFCURVE",
"268 366 OFFCURVE",
"270 364 CURVE SMOOTH",
"277 357 OFFCURVE",
"290 347 OFFCURVE",
"293 348 CURVE SMOOTH",
"295 349 OFFCURVE",
"285 368 OFFCURVE",
"285 378 CURVE SMOOTH",
"285 380 OFFCURVE",
"286 383 OFFCURVE",
"288 383 CURVE SMOOTH",
"291 383 OFFCURVE",
"293 361 OFFCURVE",
"295 357 CURVE SMOOTH",
"302 344 OFFCURVE",
"311 334 OFFCURVE",
"321 325 CURVE SMOOTH",
"328 319 OFFCURVE",
"348 293 OFFCURVE",
"350 292 CURVE SMOOTH",
"354 290 OFFCURVE",
"353 307 OFFCURVE",
"357 313 CURVE SMOOTH",
"360 317 OFFCURVE",
"368 321 OFFCURVE",
"368 321 CURVE",
"369 319 OFFCURVE",
"362 309 OFFCURVE",
"362 309 CURVE",
"359 305 OFFCURVE",
"358 300 OFFCURVE",
"359 295 CURVE SMOOTH",
"363 277 OFFCURVE",
"369 271 OFFCURVE",
"371 257 CURVE SMOOTH",
"372 248 OFFCURVE",
"367 245 OFFCURVE",
"366 250 CURVE SMOOTH",
"362 268 OFFCURVE",
"350 288 OFFCURVE",
"344 293 CURVE SMOOTH",
"335 301 OFFCURVE",
"292 340 OFFCURVE",
"281 348 CURVE SMOOTH",
"255 366 LINE SMOOTH",
"249 370 OFFCURVE",
"238 376 OFFCURVE",
"229 376 CURVE SMOOTH",
"225 376 OFFCURVE",
"217 376 OFFCURVE",
"212 365 CURVE SMOOTH",
"208 356 OFFCURVE",
"207 349 OFFCURVE",
"207 341 CURVE SMOOTH",
"207 327 OFFCURVE",
"222 306 OFFCURVE",
"222 305 CURVE SMOOTH",
"222 285 OFFCURVE",
"253 254 OFFCURVE",
"262 245 CURVE SMOOTH",
"278 229 OFFCURVE",
"296 198 OFFCURVE",
"298 192 CURVE SMOOTH",
"304 173 OFFCURVE",
"307 159 OFFCURVE",
"298 144 CURVE SMOOTH",
"295 139 OFFCURVE",
"291 137 OFFCURVE",
"286 129 CURVE SMOOTH",
"284 126 OFFCURVE",
"276 125 OFFCURVE",
"278 123 CURVE SMOOTH"
);
},
{
closed = 1;
nodes = (
"170 536 OFFCURVE",
"152 553 OFFCURVE",
"129 564 CURVE SMOOTH",
"127 565 OFFCURVE",
"133 572 OFFCURVE",
"136 570 CURVE SMOOTH",
"156 557 OFFCURVE",
"176 543 OFFCURVE",
"194 525 CURVE SMOOTH",
"196 523 OFFCURVE",
"189 517 OFFCURVE",
"187 519 CURVE SMOOTH"
);
},
{
closed = 1;
nodes = (
"300 397 OFFCURVE",
"306 411 OFFCURVE",
"302 415 CURVE SMOOTH",
"298 419 OFFCURVE",
"296 420 OFFCURVE",
"294 420 CURVE SMOOTH",
"293 420 OFFCURVE",
"292 419 OFFCURVE",
"292 415 CURVE SMOOTH",
"292 414 LINE SMOOTH",
"292 412 OFFCURVE",
"289 402 OFFCURVE",
"289 401 CURVE SMOOTH",
"289 397 OFFCURVE",
"293 397 OFFCURVE",
"295 397 CURVE SMOOTH"
);
},
{
closed = 1;
nodes = (
"320 391 OFFCURVE",
"321 403 OFFCURVE",
"321 406 CURVE SMOOTH",
"321 411 OFFCURVE",
"319 407 OFFCURVE",
"314 411 CURVE SMOOTH",
"308 416 OFFCURVE",
"307 415 OFFCURVE",
"307 408 CURVE SMOOTH",
"307 402 OFFCURVE",
"302 398 OFFCURVE",
"307 393 CURVE SMOOTH",
"308 392 OFFCURVE",
"315 388 OFFCURVE",
"317 389 CURVE SMOOTH"
);
},
{
closed = 1;
nodes = (
"426 276 LINE SMOOTH",
"426 275 OFFCURVE",
"424 284 OFFCURVE",
"430 296 CURVE SMOOTH",
"433 302 OFFCURVE",
"429 292 OFFCURVE",
"429 283 CURVE SMOOTH",
"429 274 OFFCURVE",
"427 270 OFFCURVE",
"426 270 CURVE"
);
},
{
closed = 1;
nodes = (
"539 204 OFFCURVE",
"539 209 OFFCURVE",
"536 216 CURVE",
"544 216 OFFCURVE",
"549 218 OFFCURVE",
"556 221 CURVE",
"554 214 OFFCURVE",
"555 209 OFFCURVE",
"558 200 CURVE",
"550 199 OFFCURVE",
"543 198 OFFCURVE",
"536 195 CURVE"
);
},
{
closed = 1;
nodes = (
"491 239 OFFCURVE",
"493 244 OFFCURVE",
"495 249 CURVE SMOOTH",
"499 258 OFFCURVE",
"513 280 OFFCURVE",
"511 271 CURVE SMOOTH",
"510 266 OFFCURVE",
"494 242 OFFCURVE",
"492 240 CURVE SMOOTH"
);
},
{
closed = 1;
nodes = (
"283 485 OFFCURVE",
"283 496 OFFCURVE",
"281 494 CURVE SMOOTH",
"278 491 OFFCURVE",
"274 488 OFFCURVE",
"272 485 CURVE SMOOTH",
"271 483 OFFCURVE",
"280 482 OFFCURVE",
"281 483 CURVE SMOOTH"
);
},
{
closed = 1;
nodes = (
"196 550 LINE",
"208 551 OFFCURVE",
"212 551 OFFCURVE",
"221 568 CURVE SMOOTH",
"225 576 OFFCURVE",
"216 592 OFFCURVE",
"209 597 CURVE SMOOTH",
"206 599 OFFCURVE",
"195 608 OFFCURVE",
"185 608 CURVE SMOOTH",
"175 608 OFFCURVE",
"168 604 OFFCURVE",
"163 598 CURVE SMOOTH",
"156 589 OFFCURVE",
"156 584 OFFCURVE",
"156 572 CURVE",
"150 572 LINE",
"149 589 OFFCURVE",
"149 596 OFFCURVE",
"159 603 CURVE SMOOTH",
"167 609 OFFCURVE",
"176 614 OFFCURVE",
"186 614 CURVE SMOOTH",
"201 614 OFFCURVE",
"211 610 OFFCURVE",
"220 600 CURVE SMOOTH",
"233 586 OFFCURVE",
"231 564 OFFCURVE",
"224 557 CURVE SMOOTH",
"216 549 OFFCURVE",
"212 541 OFFCURVE",
"196 545 CURVE"
);
},
{
closed = 1;
nodes = (
"475 261 OFFCURVE",
"476 265 OFFCURVE",
"480 269 CURVE SMOOTH",
"483 272 OFFCURVE",
"489 279 OFFCURVE",
"492 288 CURVE SMOOTH",
"495 296 OFFCURVE",
"496 306 OFFCURVE",
"493 313 CURVE SMOOTH",
"490 319 OFFCURVE",
"487 334 OFFCURVE",
"489 334 CURVE SMOOTH",
"490 334 OFFCURVE",
"493 318 OFFCURVE",
"495 317 CURVE SMOOTH",
"500 314 OFFCURVE",
"499 310 OFFCURVE",
"499 306 CURVE SMOOTH",
"499 301 OFFCURVE",
"499 293 OFFCURVE",
"497 286 CURVE SMOOTH",
"495 279 OFFCURVE",
"491 274 OFFCURVE",
"487 270 CURVE SMOOTH",
"486 269 OFFCURVE",
"480 256 OFFCURVE",
"477 259 CURVE SMOOTH"
);
},
{
closed = 1;
nodes = (
"231 544 OFFCURVE",
"267 562 OFFCURVE",
"262 557 CURVE SMOOTH",
"258 553 OFFCURVE",
"250 549 OFFCURVE",
"243 547 CURVE SMOOTH"
);
},
{
closed = 1;
nodes = (
"321 466 OFFCURVE",
"315 481 OFFCURVE",
"316 487 CURVE SMOOTH",
"317 491 OFFCURVE",
"327 503 OFFCURVE",
"326 498 CURVE SMOOTH",
"325 494 OFFCURVE",
"322 490 OFFCURVE",
"321 486 CURVE SMOOTH",
"320 481 OFFCURVE",
"321 476 OFFCURVE",
"321 471 CURVE SMOOTH"
);
},
{
closed = 1;
nodes = (
"361 437 OFFCURVE",
"352 451 OFFCURVE",
"328 457 CURVE SMOOTH",
"324 458 OFFCURVE",
"259 479 OFFCURVE",
"259 483 CURVE SMOOTH",
"259 484 OFFCURVE",
"260 485 OFFCURVE",
"260 485 CURVE",
"267 489 OFFCURVE",
"275 495 OFFCURVE",
"281 503 CURVE SMOOTH",
"287 511 OFFCURVE",
"315 550 OFFCURVE",
"312 553 CURVE SMOOTH",
"311 554 OFFCURVE",
"313 556 OFFCURVE",
"314 555 CURVE SMOOTH",
"319 550 OFFCURVE",
"360 568 OFFCURVE",
"354 562 CURVE SMOOTH",
"348 556 OFFCURVE",
"340 558 OFFCURVE",
"325 543 CURVE SMOOTH",
"324 542 OFFCURVE",
"301 513 OFFCURVE",
"300 511 CURVE SMOOTH",
"294 498 OFFCURVE",
"297 490 OFFCURVE",
"295 490 CURVE SMOOTH",
"293 490 OFFCURVE",
"292 496 OFFCURVE",
"292 497 CURVE SMOOTH",
"292 516 OFFCURVE",
"304 520 OFFCURVE",
"311 533 CURVE",
"311 533 OFFCURVE",
"321 547 OFFCURVE",
"320 548 CURVE SMOOTH",
"318 550 OFFCURVE",
"304 535 OFFCURVE",
"296 519 CURVE SMOOTH",
"291 509 OFFCURVE",
"286 500 OFFCURVE",
"286 490 CURVE SMOOTH",
"286 483 OFFCURVE",
"289 479 OFFCURVE",
"291 477 CURVE SMOOTH",
"292 476 OFFCURVE",
"302 468 OFFCURVE",
"302 472 CURVE SMOOTH",
"302 476 OFFCURVE",
"300 480 OFFCURVE",
"300 483 CURVE SMOOTH",
"300 485 OFFCURVE",
"301 489 OFFCURVE",
"302 492 CURVE SMOOTH",
"304 499 OFFCURVE",
"318 510 OFFCURVE",
"318 507 CURVE SMOOTH",
"318 505 OFFCURVE",
"304 490 OFFCURVE",
"304 484 CURVE SMOOTH",
"304 481 OFFCURVE",
"306 480 OFFCURVE",
"306 477 CURVE SMOOTH",
"306 472 OFFCURVE",
"311 467 OFFCURVE",
"315 466 CURVE SMOOTH",
"318 465 OFFCURVE",
"330 460 OFFCURVE",
"333 463 CURVE SMOOTH",
"334 464 OFFCURVE",
"336 472 OFFCURVE",
"337 472 CURVE SMOOTH",
"339 472 OFFCURVE",
"339 467 OFFCURVE",
"339 465 CURVE SMOOTH",
"339 463 OFFCURVE",
"338 459 OFFCURVE",
"339 459 CURVE SMOOTH",
"356 459 OFFCURVE",
"366 444 OFFCURVE",
"364 441 CURVE SMOOTH"
);
},
{
closed = 1;
nodes = (
"439 341 OFFCURVE",
"439 343 OFFCURVE",
"439 344 CURVE SMOOTH",
"439 369 OFFCURVE",
"442 366 OFFCURVE",
"437 394 CURVE SMOOTH",
"435 405 OFFCURVE",
"429 421 OFFCURVE",
"427 429 CURVE SMOOTH",
"424 441 OFFCURVE",
"443 405 OFFCURVE",
"443 368 CURVE SMOOTH",
"443 354 OFFCURVE",
"444 341 OFFCURVE",
"442 341 CURVE SMOOTH"
);
},
{
closed = 1;
nodes = (
"511 327 LINE SMOOTH",
"510 334 OFFCURVE",
"501 339 OFFCURVE",
"511 335 CURVE SMOOTH",
"519 332 OFFCURVE",
"516 319 OFFCURVE",
"516 315 CURVE SMOOTH",
"516 312 OFFCURVE",
"515 310 OFFCURVE",
"514 310 CURVE"
);
},
{
closed = 1;
nodes = (
"488 219 OFFCURVE",
"478 236 OFFCURVE",
"477 241 CURVE SMOOTH",
"476 248 OFFCURVE",
"481 255 OFFCURVE",
"486 258 CURVE SMOOTH",
"490 261 OFFCURVE",
"505 287 OFFCURVE",
"505 297 CURVE SMOOTH",
"505 310 OFFCURVE",
"495 323 OFFCURVE",
"491 345 CURVE SMOOTH",
"490 350 OFFCURVE",
"488 360 OFFCURVE",
"488 365 CURVE SMOOTH",
"488 384 OFFCURVE",
"497 398 OFFCURVE",
"497 416 CURVE SMOOTH",
"497 432 OFFCURVE",
"491 448 OFFCURVE",
"467 461 CURVE SMOOTH",
"452 469 OFFCURVE",
"437 476 OFFCURVE",
"437 494 CURVE SMOOTH",
"437 527 LINE SMOOTH",
"437 538 OFFCURVE",
"435 546 OFFCURVE",
"431 555 CURVE SMOOTH",
"425 569 OFFCURVE",
"410 584 OFFCURVE",
"392 584 CURVE SMOOTH",
"386 584 LINE SMOOTH",
"385 584 OFFCURVE",
"384 582 OFFCURVE",
"385 580 CURVE",
"385 580 OFFCURVE",
"387 577 OFFCURVE",
"388 577 CURVE SMOOTH",
"398 577 OFFCURVE",
"419 576 OFFCURVE",
"427 553 CURVE SMOOTH",
"429 547 OFFCURVE",
"429 542 OFFCURVE",
"429 536 CURVE SMOOTH",
"429 524 OFFCURVE",
"428 510 OFFCURVE",
"427 503 CURVE SMOOTH",
"426 497 OFFCURVE",
"428 485 OFFCURVE",
"430 481 CURVE SMOOTH",
"433 475 OFFCURVE",
"461 458 OFFCURVE",
"466 451 CURVE SMOOTH",
"472 442 OFFCURVE",
"484 438 OFFCURVE",
"484 411 CURVE SMOOTH",
"484 348 LINE SMOOTH",
"484 340 OFFCURVE",
"482 331 OFFCURVE",
"482 325 CURVE SMOOTH",
"482 317 OFFCURVE",
"483 304 OFFCURVE",
"481 293 CURVE SMOOTH",
"480 288 OFFCURVE",
"469 270 OFFCURVE",
"469 264 CURVE SMOOTH",
"469 262 OFFCURVE",
"473 250 OFFCURVE",
"473 248 CURVE SMOOTH",
"473 242 OFFCURVE",
"478 224 OFFCURVE",
"486 220 CURVE SMOOTH"
);
},
{
closed = 1;
nodes = (
"518 237 OFFCURVE",
"523 248 OFFCURVE",
"527 248 CURVE SMOOTH",
"545 248 OFFCURVE",
"594 242 OFFCURVE",
"579 252 CURVE SMOOTH",
"565 262 OFFCURVE",
"553 274 OFFCURVE",
"539 283 CURVE SMOOTH",
"536 285 OFFCURVE",
"538 299 OFFCURVE",
"541 299 CURVE SMOOTH",
"563 299 OFFCURVE",
"623 285 OFFCURVE",
"605 297 CURVE SMOOTH",
"587 309 OFFCURVE",
"566 319 OFFCURVE",
"549 331 CURVE SMOOTH",
"546 333 OFFCURVE",
"548 343 OFFCURVE",
"550 342 CURVE SMOOTH",
"578 328 OFFCURVE",
"624 296 OFFCURVE",
"624 296 CURVE",
"624 291 LINE SMOOTH",
"624 276 OFFCURVE",
"528 300 OFFCURVE",
"549 285 CURVE SMOOTH",
"569 271 OFFCURVE",
"591 256 OFFCURVE",
"609 245 CURVE",
"610 244 OFFCURVE",
"609 240 OFFCURVE",
"608 240 CURVE SMOOTH",
"579 240 OFFCURVE",
"549 237 OFFCURVE",
"522 237 CURVE SMOOTH"
);
},
{
closed = 1;
nodes = (
"317 516 OFFCURVE",
"319 530 OFFCURVE",
"326 535 CURVE SMOOTH",
"330 538 OFFCURVE",
"344 550 OFFCURVE",
"341 546 CURVE SMOOTH",
"337 540 OFFCURVE",
"332 538 OFFCURVE",
"328 533 CURVE SMOOTH",
"324 528 OFFCURVE",
"326 527 OFFCURVE",
"321 521 CURVE SMOOTH"
);
},
{
closed = 1;
nodes = (
"245 612 OFFCURVE",
"239 614 OFFCURVE",
"231 615 CURVE",
"238 621 OFFCURVE",
"240 625 OFFCURVE",
"241 633 CURVE",
"249 629 OFFCURVE",
"254 628 OFFCURVE",
"261 628 CURVE",
"257 623 OFFCURVE",
"254 617 OFFCURVE",
"252 608 CURVE"
);
},
{
closed = 1;
nodes = (
"500 214 OFFCURVE",
"495 234 OFFCURVE",
"503 245 CURVE SMOOTH",
"506 249 OFFCURVE",
"501 234 OFFCURVE",
"503 233 CURVE SMOOTH",
"506 231 OFFCURVE",
"515 256 OFFCURVE",
"514 257 CURVE",
"511 257 OFFCURVE",
"503 246 OFFCURVE",
"508 254 CURVE SMOOTH",
"522 276 OFFCURVE",
"525 299 OFFCURVE",
"525 318 CURVE SMOOTH",
"525 319 OFFCURVE",
"521 335 OFFCURVE",
"519 339 CURVE SMOOTH",
"517 343 OFFCURVE",
"508 369 OFFCURVE",
"509 375 CURVE SMOOTH",
"512 392 OFFCURVE",
"514 403 OFFCURVE",
"517 414 CURVE SMOOTH",
"518 418 OFFCURVE",
"517 430 OFFCURVE",
"516 434 CURVE SMOOTH",
"514 443 OFFCURVE",
"509 449 OFFCURVE",
"502 456 CURVE SMOOTH",
"497 461 OFFCURVE",
"482 467 OFFCURVE",
"473 475 CURVE SMOOTH",
"468 479 OFFCURVE",
"459 491 OFFCURVE",
"457 497 CURVE SMOOTH",
"454 506 OFFCURVE",
"464 539 OFFCURVE",
"449 554 CURVE SMOOTH",
"447 556 OFFCURVE",
"441 562 OFFCURVE",
"439 562 CURVE SMOOTH",
"436 562 OFFCURVE",
"437 557 OFFCURVE",
"438 555 CURVE SMOOTH",
"440 551 OFFCURVE",
"441 546 OFFCURVE",
"443 541 CURVE SMOOTH",
"444 538 OFFCURVE",
"444 535 OFFCURVE",
"444 532 CURVE SMOOTH",
"444 525 OFFCURVE",
"447 519 OFFCURVE",
"444 511 CURVE SMOOTH",
"443 508 OFFCURVE",
"442 499 OFFCURVE",
"442 497 CURVE SMOOTH",
"442 478 OFFCURVE",
"461 469 OFFCURVE",
"475 462 CURVE SMOOTH",
"481 459 OFFCURVE",
"487 454 OFFCURVE",
"492 450 CURVE SMOOTH",
"495 448 OFFCURVE",
"498 443 OFFCURVE",
"501 435 CURVE SMOOTH",
"504 427 OFFCURVE",
"503 413 OFFCURVE",
"504 413 CURVE SMOOTH",
"505 413 OFFCURVE",
"506 416 OFFCURVE",
"506 417 CURVE SMOOTH",
"506 422 OFFCURVE",
"508 434 OFFCURVE",
"506 438 CURVE SMOOTH",
"505 440 OFFCURVE",
"494 456 OFFCURVE",
"495 457 CURVE SMOOTH",
"496 458 OFFCURVE",
"502 450 OFFCURVE",
"504 448 CURVE SMOOTH",
"510 442 OFFCURVE",
"510 433 OFFCURVE",
"510 426 CURVE SMOOTH",
"510 416 OFFCURVE",
"504 407 OFFCURVE",
"504 394 CURVE SMOOTH",
"504 393 OFFCURVE",
"503 387 OFFCURVE",
"502 384 CURVE SMOOTH",
"500 378 OFFCURVE",
"501 371 OFFCURVE",
"502 364 CURVE SMOOTH",
"503 357 OFFCURVE",
"509 349 OFFCURVE",
"506 343 CURVE SMOOTH",
"504 339 OFFCURVE",
"505 346 OFFCURVE",
"501 353 CURVE SMOOTH",
"500 355 OFFCURVE",
"499 361 OFFCURVE",
"497 361 CURVE SMOOTH",
"496 361 OFFCURVE",
"495 356 OFFCURVE",
"495 354 CURVE SMOOTH",
"495 336 OFFCURVE",
"508 323 OFFCURVE",
"511 310 CURVE SMOOTH",
"513 300 OFFCURVE",
"511 288 OFFCURVE",
"507 278 CURVE SMOOTH",
"499 258 OFFCURVE",
"482 244 OFFCURVE",
"483 239 CURVE SMOOTH",
"484 234 OFFCURVE",
"485 230 OFFCURVE",
"488 226 CURVE SMOOTH",
"491 222 OFFCURVE",
"493 217 OFFCURVE",
"495 216 CURVE SMOOTH"
);
},
{
closed = 1;
nodes = (
"337 515 OFFCURVE",
"336 519 OFFCURVE",
"339 525 CURVE SMOOTH",
"342 530 OFFCURVE",
"357 538 OFFCURVE",
"353 534 CURVE SMOOTH",
"349 530 OFFCURVE",
"345 530 OFFCURVE",
"342 525 CURVE SMOOTH",
"339 520 OFFCURVE",
"341 524 OFFCURVE",
"339 519 CURVE SMOOTH"
);
},
{
closed = 1;
nodes = (
"363 497 OFFCURVE",
"366 495 OFFCURVE",
"369 501 CURVE SMOOTH",
"372 507 OFFCURVE",
"369 518 OFFCURVE",
"370 521 CURVE SMOOTH",
"372 526 OFFCURVE",
"378 506 OFFCURVE",
"372 498 CURVE SMOOTH",
"369 494 OFFCURVE",
"359 489 OFFCURVE",
"360 491 CURVE SMOOTH"
);
},
{
closed = 1;
nodes = (
"356 511 OFFCURVE",
"358 514 OFFCURVE",
"359 519 CURVE SMOOTH",
"360 523 OFFCURVE",
"358 529 OFFCURVE",
"361 533 CURVE SMOOTH",
"363 536 OFFCURVE",
"366 522 OFFCURVE",
"363 516 CURVE SMOOTH",
"362 514 OFFCURVE",
"354 503 OFFCURVE",
"355 507 CURVE SMOOTH"
);
},
{
closed = 1;
nodes = (
"398 483 OFFCURVE",
"385 502 OFFCURVE",
"385 499 CURVE SMOOTH",
"385 498 OFFCURVE",
"385 492 OFFCURVE",
"382 495 CURVE SMOOTH",
"381 496 OFFCURVE",
"383 502 OFFCURVE",
"383 504 CURVE SMOOTH",
"383 520 LINE SMOOTH",
"383 528 OFFCURVE",
"366 546 OFFCURVE",
"375 538 CURVE SMOOTH",
"382 532 OFFCURVE",
"387 516 OFFCURVE",
"387 508 CURVE SMOOTH",
"387 498 OFFCURVE",
"402 489 OFFCURVE",
"400 486 CURVE SMOOTH"
);
},
{
closed = 1;
nodes = (
"396 510 OFFCURVE",
"393 528 OFFCURVE",
"393 532 CURVE SMOOTH",
"393 537 OFFCURVE",
"388 540 OFFCURVE",
"384 544 CURVE SMOOTH",
"383 545 OFFCURVE",
"386 545 OFFCURVE",
"389 543 CURVE SMOOTH",
"394 540 OFFCURVE",
"399 532 OFFCURVE",
"397 525 CURVE SMOOTH",
"396 522 OFFCURVE",
"397 514 OFFCURVE",
"397 514 CURVE"
);
},
{
closed = 1;
nodes = (
"535 320 OFFCURVE",
"522 352 OFFCURVE",
"522 381 CURVE SMOOTH",
"522 393 OFFCURVE",
"526 409 OFFCURVE",
"527 419 CURVE SMOOTH",
"528 430 OFFCURVE",
"530 438 OFFCURVE",
"525 447 CURVE SMOOTH",
"518 460 OFFCURVE",
"491 486 OFFCURVE",
"482 496 CURVE SMOOTH",
"474 505 OFFCURVE",
"468 528 OFFCURVE",
"465 540 CURVE SMOOTH",
"463 547 OFFCURVE",
"460 546 OFFCURVE",
"461 543 CURVE SMOOTH",
"465 531 OFFCURVE",
"464 506 OFFCURVE",
"466 500 CURVE SMOOTH",
"469 490 OFFCURVE",
"485 477 OFFCURVE",
"506 459 CURVE SMOOTH",
"513 453 OFFCURVE",
"518 446 OFFCURVE",
"523 436 CURVE SMOOTH",
"527 428 OFFCURVE",
"516 385 OFFCURVE",
"515 374 CURVE SMOOTH",
"513 357 OFFCURVE",
"523 349 OFFCURVE",
"526 334 CURVE SMOOTH",
"527 328 OFFCURVE",
"529 308 OFFCURVE",
"532 314 CURVE SMOOTH"
);
},
{
closed = 1;
nodes = (
"330 567 OFFCURVE",
"348 578 OFFCURVE",
"356 578 CURVE SMOOTH",
"361 578 OFFCURVE",
"379 572 OFFCURVE",
"374 572 CURVE SMOOTH",
"367 572 OFFCURVE",
"362 573 OFFCURVE",
"356 572 CURVE SMOOTH",
"349 571 OFFCURVE",
"342 569 OFFCURVE",
"335 568 CURVE SMOOTH"
);
},
{
closed = 1;
nodes = (
"321 629 OFFCURVE",
"317 632 OFFCURVE",
"308 635 CURVE",
"316 638 OFFCURVE",
"320 643 OFFCURVE",
"325 649 CURVE",
"330 642 OFFCURVE",
"335 638 OFFCURVE",
"341 635 CURVE",
"334 632 OFFCURVE",
"330 629 OFFCURVE",
"325 623 CURVE"
);
},
{
closed = 1;
nodes = (
"448 491 OFFCURVE",
"448 497 OFFCURVE",
"448 503 CURVE SMOOTH",
"448 515 OFFCURVE",
"450 531 OFFCURVE",
"452 528 CURVE SMOOTH",
"453 526 OFFCURVE",
"455 522 OFFCURVE",
"453 518 CURVE SMOOTH",
"451 513 OFFCURVE",
"451 509 OFFCURVE",
"451 504 CURVE SMOOTH",
"451 498 LINE SMOOTH",
"451 496 OFFCURVE",
"450 491 OFFCURVE",
"449 491 CURVE SMOOTH"
);
},
{
closed = 1;
nodes = (
"550 354 OFFCURVE",
"550 392 OFFCURVE",
"550 402 CURVE SMOOTH",
"550 404 OFFCURVE",
"560 403 OFFCURVE",
"560 402 CURVE SMOOTH",
"560 391 OFFCURVE",
"560 366 OFFCURVE",
"562 364 CURVE",
"562 364 OFFCURVE",
"586 363 OFFCURVE",
"586 366 CURVE SMOOTH",
"586 369 OFFCURVE",
"583 387 OFFCURVE",
"582 399 CURVE SMOOTH",
"582 402 OFFCURVE",
"589 401 OFFCURVE",
"589 400 CURVE SMOOTH",
"591 386 OFFCURVE",
"592 366 OFFCURVE",
"596 365 CURVE SMOOTH",
"601 364 OFFCURVE",
"613 366 OFFCURVE",
"613 367 CURVE SMOOTH",
"613 378 OFFCURVE",
"608 396 OFFCURVE",
"608 411 CURVE SMOOTH",
"608 414 OFFCURVE",
"619 414 OFFCURVE",
"619 411 CURVE SMOOTH",
"619 396 OFFCURVE",
"626 358 OFFCURVE",
"622 357 CURVE SMOOTH",
"618 356 OFFCURVE",
"558 354 OFFCURVE",
"553 354 CURVE SMOOTH"
);
},
{
closed = 1;
nodes = (
"541 420 OFFCURVE",
"539 430 OFFCURVE",
"541 431 CURVE SMOOTH",
"565 439 OFFCURVE",
"588 441 OFFCURVE",
"612 449 CURVE SMOOTH",
"615 450 OFFCURVE",
"619 439 OFFCURVE",
"615 438 CURVE SMOOTH",
"593 433 OFFCURVE",
"568 429 OFFCURVE",
"544 421 CURVE SMOOTH"
);
},
{
closed = 1;
nodes = (
"409 593 OFFCURVE",
"388 607 OFFCURVE",
"388 622 CURVE SMOOTH",
"388 631 OFFCURVE",
"405 634 OFFCURVE",
"405 634 CURVE",
"405 659 OFFCURVE",
"388 693 OFFCURVE",
"370 649 CURVE SMOOTH",
"369 646 OFFCURVE",
"365 646 OFFCURVE",
"366 650 CURVE SMOOTH",
"372 673 OFFCURVE",
"391 693 OFFCURVE",
"407 664 CURVE SMOOTH",
"414 651 OFFCURVE",
"412 636 OFFCURVE",
"418 627 CURVE SMOOTH",
"420 624 OFFCURVE",
"398 630 OFFCURVE",
"396 617 CURVE SMOOTH",
"395 611 OFFCURVE",
"405 604 OFFCURVE",
"414 602 CURVE",
"421 624 OFFCURVE",
"431 640 OFFCURVE",
"444 660 CURVE SMOOTH",
"446 663 OFFCURVE",
"453 653 OFFCURVE",
"451 650 CURVE SMOOTH",
"439 632 OFFCURVE",
"426 616 OFFCURVE",
"418 593 CURVE"
);
},
{
closed = 1;
nodes = (
"471 573 OFFCURVE",
"495 588 OFFCURVE",
"494 588 CURVE SMOOTH",
"493 588 OFFCURVE",
"477 600 OFFCURVE",
"475 602 CURVE SMOOTH",
"474 603 OFFCURVE",
"471 580 OFFCURVE",
"471 573 CURVE"
);
},
{
closed = 1;
nodes = (
"524 476 LINE",
"524 476 OFFCURVE",
"547 510 OFFCURVE",
"564 531 CURVE",
"552 527 OFFCURVE",
"525 516 OFFCURVE",
"503 516 CURVE SMOOTH",
"501 516 OFFCURVE",
"500 520 OFFCURVE",
"501 521 CURVE",
"513 543 OFFCURVE",
"524 566 OFFCURVE",
"544 586 CURVE SMOOTH",
"547 589 OFFCURVE",
"550 577 OFFCURVE",
"548 575 CURVE SMOOTH",
"535 562 OFFCURVE",
"524 538 OFFCURVE",
"510 526 CURVE",
"517 526 OFFCURVE",
"554 535 OFFCURVE",
"571 541 CURVE SMOOTH",
"574 542 OFFCURVE",
"578 540 OFFCURVE",
"575 537 CURVE SMOOTH",
"572 534 OFFCURVE",
"553 500 OFFCURVE",
"538 481 CURVE",
"552 481 OFFCURVE",
"584 487 OFFCURVE",
"604 487 CURVE SMOOTH",
"607 487 OFFCURVE",
"609 476 OFFCURVE",
"606 476 CURVE SMOOTH",
"575 476 OFFCURVE",
"528 471 OFFCURVE",
"527 472 CURVE SMOOTH"
);
},
{
closed = 1;
nodes = (
"462 559 OFFCURVE",
"458 566 OFFCURVE",
"458 567 CURVE SMOOTH",
"461 590 OFFCURVE",
"467 617 OFFCURVE",
"474 643 CURVE",
"475 645 OFFCURVE",
"483 641 OFFCURVE",
"483 638 CURVE SMOOTH",
"483 630 OFFCURVE",
"477 611 OFFCURVE",
"477 611 CURVE",
"500 591 LINE SMOOTH",
"504 588 OFFCURVE",
"523 606 OFFCURVE",
"525 604 CURVE SMOOTH",
"527 602 OFFCURVE",
"532 600 OFFCURVE",
"530 598 CURVE SMOOTH",
"529 597 OFFCURVE",
"487 565 OFFCURVE",
"466 560 CURVE SMOOTH"
);
}
);
width = 688;
}
);
},
